<svg width="232" height="168" viewBox="0 0 232 168" fill="none" xmlns="http://www.w3.org/2000/svg">
<rect width="232" height="168" rx="8" fill="#28608B"/>
<rect x="7" y="11" width="106" height="77"/>
<path d="M31.08 115.8C31.1467 115.96 31.18 116.093 31.18 116.2C31.18 116.453 31.0733 116.667 30.86 116.84C30.66 117.013 30.4333 117.1 30.18 117.1C30.0067 117.1 29.84 117.053 29.68 116.96C29.5333 116.853 29.42 116.707 29.34 116.52L28.02 113.52H20.7L19.38 116.52C19.3 116.707 19.18 116.853 19.02 116.96C18.86 117.053 18.6933 117.1 18.52 117.1C18.2533 117.1 18.0133 117.013 17.8 116.84C17.6 116.667 17.5 116.453 17.5 116.2C17.5 116.093 17.5333 115.96 17.6 115.8L23.24 103.46C23.3333 103.247 23.48 103.08 23.68 102.96C23.8933 102.84 24.1133 102.78 24.34 102.78C24.5667 102.78 24.78 102.84 24.98 102.96C25.1933 103.08 25.3467 103.247 25.44 103.46L31.08 115.8ZM27.3 111.88L24.36 105.26L21.44 111.88H27.3ZM38.2075 107.04C38.8475 107 39.1675 107.273 39.1675 107.86C39.1675 108.153 39.0942 108.373 38.9475 108.52C38.8008 108.667 38.5475 108.753 38.1875 108.78L37.5875 108.84C36.7475 108.92 36.1208 109.213 35.7075 109.72C35.3075 110.227 35.1075 110.84 35.1075 111.56V116.14C35.1075 116.46 35.0142 116.7 34.8275 116.86C34.6408 117.02 34.4008 117.1 34.1075 117.1C33.8142 117.1 33.5675 117.02 33.3675 116.86C33.1808 116.7 33.0875 116.46 33.0875 116.14V108C33.0875 107.693 33.1808 107.46 33.3675 107.3C33.5675 107.127 33.8142 107.04 34.1075 107.04C34.3742 107.04 34.5942 107.127 34.7675 107.3C34.9542 107.46 35.0475 107.687 35.0475 107.98V108.94C35.3142 108.353 35.7008 107.907 36.2075 107.6C36.7142 107.293 37.2875 107.113 37.9275 107.06L38.2075 107.04ZM44.4531 107C45.7465 107 46.7065 107.327 47.3331 107.98C47.9731 108.633 48.2931 109.627 48.2931 110.96V116.14C48.2931 116.447 48.2065 116.687 48.0331 116.86C47.8598 117.02 47.6198 117.1 47.3131 117.1C47.0198 117.1 46.7865 117.013 46.6131 116.84C46.4398 116.667 46.3531 116.433 46.3531 116.14V115.4C46.0998 115.96 45.7198 116.393 45.2131 116.7C44.7198 116.993 44.1398 117.14 43.4731 117.14C42.8331 117.14 42.2465 117.013 41.7131 116.76C41.1798 116.493 40.7598 116.127 40.4531 115.66C40.1598 115.193 40.0131 114.673 40.0131 114.1C40.0131 113.393 40.1931 112.84 40.5531 112.44C40.9265 112.027 41.5331 111.733 42.3731 111.56C43.2265 111.387 44.3931 111.3 45.8731 111.3H46.3331V110.72C46.3331 109.973 46.1798 109.433 45.8731 109.1C45.5665 108.767 45.0731 108.6 44.3931 108.6C43.9265 108.6 43.4865 108.66 43.0731 108.78C42.6598 108.9 42.2065 109.073 41.7131 109.3C41.3531 109.5 41.0998 109.6 40.9531 109.6C40.7531 109.6 40.5865 109.527 40.4531 109.38C40.3331 109.233 40.2731 109.047 40.2731 108.82C40.2731 108.62 40.3265 108.447 40.4331 108.3C40.5531 108.14 40.7398 107.987 40.9931 107.84C41.4598 107.587 42.0065 107.387 42.6331 107.24C43.2598 107.08 43.8665 107 44.4531 107ZM43.8331 115.64C44.5665 115.64 45.1665 115.393 45.6331 114.9C46.0998 114.393 46.3331 113.747 46.3331 112.96V112.44H45.9731C44.9331 112.44 44.1331 112.487 43.5731 112.58C43.0131 112.673 42.6131 112.833 42.3731 113.06C42.1331 113.273 42.0131 113.587 42.0131 114C42.0131 114.48 42.1865 114.873 42.5331 115.18C42.8798 115.487 43.3131 115.64 43.8331 115.64ZM52.0763 117.1C51.7829 117.1 51.5363 117.02 51.3363 116.86C51.1496 116.7 51.0563 116.46 51.0563 116.14V103.78C51.0563 103.46 51.1496 103.22 51.3363 103.06C51.5363 102.887 51.7829 102.8 52.0763 102.8C52.3696 102.8 52.6096 102.887 52.7963 103.06C52.9829 103.22 53.0763 103.46 53.0763 103.78V116.14C53.0763 116.46 52.9829 116.7 52.7963 116.86C52.6096 117.02 52.3696 117.1 52.0763 117.1ZM56.92 117.1C56.6267 117.1 56.38 117.02 56.18 116.86C55.9933 116.7 55.9 116.46 55.9 116.14V108.02C55.9 107.7 55.9933 107.46 56.18 107.3C56.38 107.127 56.6267 107.04 56.92 107.04C57.2133 107.04 57.4533 107.127 57.64 107.3C57.8267 107.46 57.92 107.7 57.92 108.02V116.14C57.92 116.46 57.8267 116.7 57.64 116.86C57.4533 117.02 57.2133 117.1 56.92 117.1ZM56.92 105.08C56.5333 105.08 56.2267 104.973 56 104.76C55.7733 104.547 55.66 104.267 55.66 103.92C55.66 103.573 55.7733 103.3 56 103.1C56.2267 102.887 56.5333 102.78 56.92 102.78C57.2933 102.78 57.5933 102.887 57.82 103.1C58.06 103.3 58.18 103.573 58.18 103.92C58.18 104.267 58.0667 104.547 57.84 104.76C57.6133 104.973 57.3067 105.08 56.92 105.08ZM66.0038 107C68.3371 107 69.5038 108.313 69.5038 110.94V116.14C69.5038 116.447 69.4104 116.687 69.2238 116.86C69.0504 117.02 68.8038 117.1 68.4838 117.1C68.1771 117.1 67.9304 117.013 67.7438 116.84C67.5704 116.667 67.4838 116.433 67.4838 116.14V111.04C67.4838 110.213 67.3171 109.607 66.9838 109.22C66.6638 108.833 66.1571 108.64 65.4638 108.64C64.6504 108.64 63.9971 108.893 63.5038 109.4C63.0104 109.907 62.7638 110.587 62.7638 111.44V116.14C62.7638 116.433 62.6704 116.667 62.4838 116.84C62.3104 117.013 62.0704 117.1 61.7638 117.1C61.4571 117.1 61.2104 117.013 61.0238 116.84C60.8371 116.667 60.7438 116.433 60.7438 116.14V108C60.7438 107.72 60.8371 107.493 61.0238 107.32C61.2238 107.133 61.4704 107.04 61.7638 107.04C62.0571 107.04 62.2904 107.127 62.4638 107.3C62.6371 107.473 62.7238 107.7 62.7238 107.98V108.8C63.0438 108.213 63.4904 107.767 64.0638 107.46C64.6371 107.153 65.2838 107 66.0038 107ZM80.3472 107.04C80.6539 107.04 80.8939 107.133 81.0672 107.32C81.2539 107.493 81.3472 107.727 81.3472 108.02V116.22C81.3472 117.713 80.9472 118.84 80.1472 119.6C79.3605 120.36 78.1939 120.74 76.6472 120.74C75.2072 120.74 74.0072 120.467 73.0472 119.92C72.5539 119.64 72.3072 119.307 72.3072 118.92C72.3072 118.693 72.3672 118.507 72.4872 118.36C72.6205 118.213 72.7805 118.14 72.9672 118.14C73.1405 118.14 73.4139 118.24 73.7872 118.44C74.2672 118.667 74.7139 118.84 75.1272 118.96C75.5405 119.093 76.0339 119.16 76.6072 119.16C78.4472 119.16 79.3672 118.233 79.3672 116.38V114.84C79.0872 115.427 78.6605 115.887 78.0872 116.22C77.5139 116.54 76.8472 116.7 76.0872 116.7C75.2339 116.7 74.4739 116.5 73.8072 116.1C73.1405 115.7 72.6205 115.133 72.2472 114.4C71.8872 113.667 71.7072 112.82 71.7072 111.86C71.7072 110.9 71.8939 110.053 72.2672 109.32C72.6405 108.587 73.1539 108.02 73.8072 107.62C74.4739 107.207 75.2339 107 76.0872 107C76.8339 107 77.4872 107.16 78.0472 107.48C78.6205 107.8 79.0539 108.253 79.3472 108.84V108C79.3472 107.707 79.4339 107.473 79.6072 107.3C79.7939 107.127 80.0405 107.04 80.3472 107.04ZM76.5672 115.1C77.4339 115.1 78.1139 114.813 78.6072 114.24C79.1005 113.667 79.3472 112.873 79.3472 111.86C79.3472 110.86 79.1005 110.073 78.6072 109.5C78.1272 108.913 77.4472 108.62 76.5672 108.62C75.6872 108.62 74.9939 108.907 74.4872 109.48C73.9939 110.053 73.7472 110.847 73.7472 111.86C73.7472 112.873 74.0005 113.667 74.5072 114.24C75.0139 114.813 75.7005 115.1 76.5672 115.1ZM90.6952 117.1C90.3885 117.1 90.1418 117.007 89.9552 116.82C89.7685 116.633 89.6752 116.38 89.6752 116.06V103.9C89.6752 103.593 89.7618 103.353 89.9352 103.18C90.1218 102.993 90.3752 102.9 90.6952 102.9H95.5152C97.0085 102.9 98.1685 103.267 98.9952 104C99.8218 104.733 100.235 105.773 100.235 107.12C100.235 108.453 99.8218 109.493 98.9952 110.24C98.1685 110.987 97.0085 111.36 95.5152 111.36H91.7352V116.06C91.7352 116.38 91.6418 116.633 91.4552 116.82C91.2818 117.007 91.0285 117.1 90.6952 117.1ZM95.2952 109.7C97.2685 109.7 98.2552 108.84 98.2552 107.12C98.2552 105.413 97.2685 104.56 95.2952 104.56H91.7352V109.7H95.2952ZM106.348 107C107.641 107 108.601 107.327 109.228 107.98C109.868 108.633 110.188 109.627 110.188 110.96V116.14C110.188 116.447 110.101 116.687 109.928 116.86C109.754 117.02 109.514 117.1 109.208 117.1C108.914 117.1 108.681 117.013 108.508 116.84C108.334 116.667 108.248 116.433 108.248 116.14V115.4C107.994 115.96 107.614 116.393 107.108 116.7C106.614 116.993 106.034 117.14 105.368 117.14C104.728 117.14 104.141 117.013 103.608 116.76C103.074 116.493 102.654 116.127 102.348 115.66C102.054 115.193 101.908 114.673 101.908 114.1C101.908 113.393 102.088 112.84 102.448 112.44C102.821 112.027 103.428 111.733 104.268 111.56C105.121 111.387 106.288 111.3 107.768 111.3H108.228V110.72C108.228 109.973 108.074 109.433 107.768 109.1C107.461 108.767 106.968 108.6 106.288 108.6C105.821 108.6 105.381 108.66 104.968 108.78C104.554 108.9 104.101 109.073 103.608 109.3C103.248 109.5 102.994 109.6 102.848 109.6C102.648 109.6 102.481 109.527 102.348 109.38C102.228 109.233 102.168 109.047 102.168 108.82C102.168 108.62 102.221 108.447 102.328 108.3C102.448 108.14 102.634 107.987 102.888 107.84C103.354 107.587 103.901 107.387 104.528 107.24C105.154 107.08 105.761 107 106.348 107ZM105.728 115.64C106.461 115.64 107.061 115.393 107.528 114.9C107.994 114.393 108.228 113.747 108.228 112.96V112.44H107.868C106.828 112.44 106.028 112.487 105.468 112.58C104.908 112.673 104.508 112.833 104.268 113.06C104.028 113.273 103.908 113.587 103.908 114C103.908 114.48 104.081 114.873 104.428 115.18C104.774 115.487 105.208 115.64 105.728 115.64ZM118.211 107C120.544 107 121.711 108.313 121.711 110.94V116.14C121.711 116.447 121.617 116.687 121.431 116.86C121.257 117.02 121.011 117.1 120.691 117.1C120.384 117.1 120.137 117.013 119.951 116.84C119.777 116.667 119.691 116.433 119.691 116.14V111.04C119.691 110.213 119.524 109.607 119.191 109.22C118.871 108.833 118.364 108.64 117.671 108.64C116.857 108.64 116.204 108.893 115.711 109.4C115.217 109.907 114.971 110.587 114.971 111.44V116.14C114.971 116.433 114.877 116.667 114.691 116.84C114.517 117.013 114.277 117.1 113.971 117.1C113.664 117.1 113.417 117.013 113.231 116.84C113.044 116.667 112.951 116.433 112.951 116.14V108C112.951 107.72 113.044 107.493 113.231 107.32C113.431 107.133 113.677 107.04 113.971 107.04C114.264 107.04 114.497 107.127 114.671 107.3C114.844 107.473 114.931 107.7 114.931 107.98V108.8C115.251 108.213 115.697 107.767 116.271 107.46C116.844 107.153 117.491 107 118.211 107ZM125.494 117.1C125.201 117.1 124.954 117.02 124.754 116.86C124.568 116.7 124.474 116.46 124.474 116.14V103.78C124.474 103.46 124.568 103.22 124.754 103.06C124.954 102.887 125.201 102.8 125.494 102.8C125.788 102.8 126.028 102.887 126.214 103.06C126.401 103.22 126.494 103.46 126.494 103.78V116.14C126.494 116.46 126.401 116.7 126.214 116.86C126.028 117.02 125.788 117.1 125.494 117.1ZM130.338 117.1C130.045 117.1 129.798 117.02 129.598 116.86C129.411 116.7 129.318 116.46 129.318 116.14V108.02C129.318 107.7 129.411 107.46 129.598 107.3C129.798 107.127 130.045 107.04 130.338 107.04C130.631 107.04 130.871 107.127 131.058 107.3C131.245 107.46 131.338 107.7 131.338 108.02V116.14C131.338 116.46 131.245 116.7 131.058 116.86C130.871 117.02 130.631 117.1 130.338 117.1ZM130.338 105.08C129.951 105.08 129.645 104.973 129.418 104.76C129.191 104.547 129.078 104.267 129.078 103.92C129.078 103.573 129.191 103.3 129.418 103.1C129.645 102.887 129.951 102.78 130.338 102.78C130.711 102.78 131.011 102.887 131.238 103.1C131.478 103.3 131.598 103.573 131.598 103.92C131.598 104.267 131.485 104.547 131.258 104.76C131.031 104.973 130.725 105.08 130.338 105.08ZM139.402 107C140.242 107 140.988 107.213 141.642 107.64C142.308 108.067 142.822 108.667 143.182 109.44C143.555 110.213 143.742 111.107 143.742 112.12C143.742 113.12 143.562 114 143.202 114.76C142.842 115.52 142.328 116.107 141.662 116.52C141.008 116.933 140.255 117.14 139.402 117.14C138.668 117.14 138.022 116.987 137.462 116.68C136.902 116.36 136.475 115.907 136.182 115.32V119.78C136.182 120.06 136.088 120.28 135.902 120.44C135.728 120.613 135.495 120.7 135.202 120.7C134.895 120.7 134.642 120.613 134.442 120.44C134.255 120.267 134.162 120.033 134.162 119.74V108.02C134.162 107.727 134.255 107.493 134.442 107.32C134.628 107.133 134.875 107.04 135.182 107.04C135.475 107.04 135.715 107.133 135.902 107.32C136.088 107.493 136.182 107.727 136.182 108.02V108.84C136.475 108.253 136.902 107.8 137.462 107.48C138.022 107.16 138.668 107 139.402 107ZM138.922 115.54C139.802 115.54 140.482 115.247 140.962 114.66C141.442 114.06 141.682 113.213 141.682 112.12C141.682 111.013 141.435 110.153 140.942 109.54C140.462 108.927 139.788 108.62 138.922 108.62C138.042 108.62 137.362 108.92 136.882 109.52C136.415 110.12 136.182 110.973 136.182 112.08C136.182 113.187 136.415 114.04 136.882 114.64C137.362 115.24 138.042 115.54 138.922 115.54ZM153.538 107.04C153.845 107.04 154.085 107.127 154.258 107.3C154.445 107.473 154.538 107.713 154.538 108.02V116.16C154.538 116.44 154.445 116.667 154.258 116.84C154.071 117.013 153.825 117.1 153.518 117.1C153.238 117.1 153.011 117.02 152.838 116.86C152.665 116.687 152.578 116.46 152.578 116.18V115.42C152.271 115.98 151.845 116.407 151.298 116.7C150.765 116.993 150.165 117.14 149.498 117.14C147.125 117.14 145.938 115.833 145.938 113.22V108.02C145.938 107.713 146.025 107.473 146.198 107.3C146.385 107.127 146.638 107.04 146.958 107.04C147.265 107.04 147.505 107.127 147.678 107.3C147.865 107.473 147.958 107.713 147.958 108.02V113.2C147.958 113.987 148.118 114.567 148.438 114.94C148.758 115.313 149.251 115.5 149.918 115.5C150.705 115.5 151.331 115.247 151.798 114.74C152.278 114.233 152.518 113.56 152.518 112.72V108.02C152.518 107.727 152.611 107.493 152.798 107.32C152.985 107.133 153.231 107.04 153.538 107.04ZM162.625 107C164.958 107 166.125 108.313 166.125 110.94V116.14C166.125 116.447 166.032 116.687 165.845 116.86C165.672 117.02 165.425 117.1 165.105 117.1C164.798 117.1 164.552 117.013 164.365 116.84C164.192 116.667 164.105 116.433 164.105 116.14V111.04C164.105 110.213 163.938 109.607 163.605 109.22C163.285 108.833 162.778 108.64 162.085 108.64C161.272 108.64 160.618 108.893 160.125 109.4C159.632 109.907 159.385 110.587 159.385 111.44V116.14C159.385 116.433 159.292 116.667 159.105 116.84C158.932 117.013 158.692 117.1 158.385 117.1C158.078 117.1 157.832 117.013 157.645 116.84C157.458 116.667 157.365 116.433 157.365 116.14V108C157.365 107.72 157.458 107.493 157.645 107.32C157.845 107.133 158.092 107.04 158.385 107.04C158.678 107.04 158.912 107.127 159.085 107.3C159.258 107.473 159.345 107.7 159.345 107.98V108.8C159.665 108.213 160.112 107.767 160.685 107.46C161.258 107.153 161.905 107 162.625 107ZM172.988 107C174.282 107 175.242 107.327 175.868 107.98C176.508 108.633 176.828 109.627 176.828 110.96V116.14C176.828 116.447 176.742 116.687 176.568 116.86C176.395 117.02 176.155 117.1 175.848 117.1C175.555 117.1 175.322 117.013 175.148 116.84C174.975 116.667 174.888 116.433 174.888 116.14V115.4C174.635 115.96 174.255 116.393 173.748 116.7C173.255 116.993 172.675 117.14 172.008 117.14C171.368 117.14 170.782 117.013 170.248 116.76C169.715 116.493 169.295 116.127 168.988 115.66C168.695 115.193 168.548 114.673 168.548 114.1C168.548 113.393 168.728 112.84 169.088 112.44C169.462 112.027 170.068 111.733 170.908 111.56C171.762 111.387 172.928 111.3 174.408 111.3H174.868V110.72C174.868 109.973 174.715 109.433 174.408 109.1C174.102 108.767 173.608 108.6 172.928 108.6C172.462 108.6 172.022 108.66 171.608 108.78C171.195 108.9 170.742 109.073 170.248 109.3C169.888 109.5 169.635 109.6 169.488 109.6C169.288 109.6 169.122 109.527 168.988 109.38C168.868 109.233 168.808 109.047 168.808 108.82C168.808 108.62 168.862 108.447 168.968 108.3C169.088 108.14 169.275 107.987 169.528 107.84C169.995 107.587 170.542 107.387 171.168 107.24C171.795 107.08 172.402 107 172.988 107ZM172.368 115.64C173.102 115.64 173.702 115.393 174.168 114.9C174.635 114.393 174.868 113.747 174.868 112.96V112.44H174.508C173.468 112.44 172.668 112.487 172.108 112.58C171.548 112.673 171.148 112.833 170.908 113.06C170.668 113.273 170.548 113.587 170.548 114C170.548 114.48 170.722 114.873 171.068 115.18C171.415 115.487 171.848 115.64 172.368 115.64ZM184.851 107C187.185 107 188.351 108.313 188.351 110.94V116.14C188.351 116.447 188.258 116.687 188.071 116.86C187.898 117.02 187.651 117.1 187.331 117.1C187.025 117.1 186.778 117.013 186.591 116.84C186.418 116.667 186.331 116.433 186.331 116.14V111.04C186.331 110.213 186.165 109.607 185.831 109.22C185.511 108.833 185.005 108.64 184.311 108.64C183.498 108.64 182.845 108.893 182.351 109.4C181.858 109.907 181.611 110.587 181.611 111.44V116.14C181.611 116.433 181.518 116.667 181.331 116.84C181.158 117.013 180.918 117.1 180.611 117.1C180.305 117.1 180.058 117.013 179.871 116.84C179.685 116.667 179.591 116.433 179.591 116.14V108C179.591 107.72 179.685 107.493 179.871 107.32C180.071 107.133 180.318 107.04 180.611 107.04C180.905 107.04 181.138 107.127 181.311 107.3C181.485 107.473 181.571 107.7 181.571 107.98V108.8C181.891 108.213 182.338 107.767 182.911 107.46C183.485 107.153 184.131 107 184.851 107ZM197.148 112.48C196.842 112.48 196.608 112.413 196.448 112.28C196.288 112.133 196.208 111.933 196.208 111.68C196.208 111.427 196.288 111.227 196.448 111.08C196.608 110.933 196.842 110.86 197.148 110.86H201.408C201.715 110.86 201.948 110.933 202.108 111.08C202.268 111.227 202.348 111.427 202.348 111.68C202.348 111.933 202.268 112.133 202.108 112.28C201.948 112.413 201.715 112.48 201.408 112.48H197.148ZM213.483 115.3C213.803 115.3 214.043 115.373 214.203 115.52C214.363 115.667 214.443 115.873 214.443 116.14C214.443 116.713 214.123 117 213.483 117H206.803C206.149 117 205.823 116.713 205.823 116.14C205.823 115.873 205.903 115.667 206.062 115.52C206.236 115.373 206.483 115.3 206.803 115.3H209.103V105.32L207.043 106.62C206.909 106.7 206.776 106.74 206.643 106.74C206.416 106.74 206.216 106.64 206.043 106.44C205.883 106.24 205.803 106.013 205.803 105.76C205.803 105.453 205.936 105.213 206.202 105.04L209.283 103.08C209.589 102.893 209.883 102.8 210.163 102.8C210.456 102.8 210.696 102.893 210.883 103.08C211.069 103.267 211.163 103.52 211.163 103.84V115.3H213.483Z" fill="white"/>
</svg>
