<svg width="232" height="168" viewBox="0 0 232 168" fill="none" xmlns="http://www.w3.org/2000/svg">
<rect width="232" height="168" rx="8" fill="#28608B"/>
<rect x="7" y="11" width="106" height="77"/>
<path d="M29.08 115.8C29.1467 115.96 29.18 116.093 29.18 116.2C29.18 116.453 29.0733 116.667 28.86 116.84C28.66 117.013 28.4333 117.1 28.18 117.1C28.0067 117.1 27.84 117.053 27.68 116.96C27.5333 116.853 27.42 116.707 27.34 116.52L26.02 113.52H18.7L17.38 116.52C17.3 116.707 17.18 116.853 17.02 116.96C16.86 117.053 16.6933 117.1 16.52 117.1C16.2533 117.1 16.0133 117.013 15.8 116.84C15.6 116.667 15.5 116.453 15.5 116.2C15.5 116.093 15.5333 115.96 15.6 115.8L21.24 103.46C21.3333 103.247 21.48 103.08 21.68 102.96C21.8933 102.84 22.1133 102.78 22.34 102.78C22.5667 102.78 22.78 102.84 22.98 102.96C23.1933 103.08 23.3467 103.247 23.44 103.46L29.08 115.8ZM25.3 111.88L22.36 105.26L19.44 111.88H25.3ZM36.2075 107.04C36.8475 107 37.1675 107.273 37.1675 107.86C37.1675 108.153 37.0942 108.373 36.9475 108.52C36.8008 108.667 36.5475 108.753 36.1875 108.78L35.5875 108.84C34.7475 108.92 34.1208 109.213 33.7075 109.72C33.3075 110.227 33.1075 110.84 33.1075 111.56V116.14C33.1075 116.46 33.0142 116.7 32.8275 116.86C32.6408 117.02 32.4008 117.1 32.1075 117.1C31.8142 117.1 31.5675 117.02 31.3675 116.86C31.1808 116.7 31.0875 116.46 31.0875 116.14V108C31.0875 107.693 31.1808 107.46 31.3675 107.3C31.5675 107.127 31.8142 107.04 32.1075 107.04C32.3742 107.04 32.5942 107.127 32.7675 107.3C32.9542 107.46 33.0475 107.687 33.0475 107.98V108.94C33.3142 108.353 33.7008 107.907 34.2075 107.6C34.7142 107.293 35.2875 107.113 35.9275 107.06L36.2075 107.04ZM42.4531 107C43.7465 107 44.7065 107.327 45.3331 107.98C45.9731 108.633 46.2931 109.627 46.2931 110.96V116.14C46.2931 116.447 46.2065 116.687 46.0331 116.86C45.8598 117.02 45.6198 117.1 45.3131 117.1C45.0198 117.1 44.7865 117.013 44.6131 116.84C44.4398 116.667 44.3531 116.433 44.3531 116.14V115.4C44.0998 115.96 43.7198 116.393 43.2131 116.7C42.7198 116.993 42.1398 117.14 41.4731 117.14C40.8331 117.14 40.2465 117.013 39.7131 116.76C39.1798 116.493 38.7598 116.127 38.4531 115.66C38.1598 115.193 38.0131 114.673 38.0131 114.1C38.0131 113.393 38.1931 112.84 38.5531 112.44C38.9265 112.027 39.5331 111.733 40.3731 111.56C41.2265 111.387 42.3931 111.3 43.8731 111.3H44.3331V110.72C44.3331 109.973 44.1798 109.433 43.8731 109.1C43.5665 108.767 43.0731 108.6 42.3931 108.6C41.9265 108.6 41.4865 108.66 41.0731 108.78C40.6598 108.9 40.2065 109.073 39.7131 109.3C39.3531 109.5 39.0998 109.6 38.9531 109.6C38.7531 109.6 38.5865 109.527 38.4531 109.38C38.3331 109.233 38.2731 109.047 38.2731 108.82C38.2731 108.62 38.3265 108.447 38.4331 108.3C38.5531 108.14 38.7398 107.987 38.9931 107.84C39.4598 107.587 40.0065 107.387 40.6331 107.24C41.2598 107.08 41.8665 107 42.4531 107ZM41.8331 115.64C42.5665 115.64 43.1665 115.393 43.6331 114.9C44.0998 114.393 44.3331 113.747 44.3331 112.96V112.44H43.9731C42.9331 112.44 42.1331 112.487 41.5731 112.58C41.0131 112.673 40.6131 112.833 40.3731 113.06C40.1331 113.273 40.0131 113.587 40.0131 114C40.0131 114.48 40.1865 114.873 40.5331 115.18C40.8798 115.487 41.3131 115.64 41.8331 115.64ZM50.0763 117.1C49.7829 117.1 49.5363 117.02 49.3363 116.86C49.1496 116.7 49.0563 116.46 49.0563 116.14V103.78C49.0563 103.46 49.1496 103.22 49.3363 103.06C49.5363 102.887 49.7829 102.8 50.0763 102.8C50.3696 102.8 50.6096 102.887 50.7963 103.06C50.9829 103.22 51.0763 103.46 51.0763 103.78V116.14C51.0763 116.46 50.9829 116.7 50.7963 116.86C50.6096 117.02 50.3696 117.1 50.0763 117.1ZM54.92 117.1C54.6267 117.1 54.38 117.02 54.18 116.86C53.9933 116.7 53.9 116.46 53.9 116.14V108.02C53.9 107.7 53.9933 107.46 54.18 107.3C54.38 107.127 54.6267 107.04 54.92 107.04C55.2133 107.04 55.4533 107.127 55.64 107.3C55.8267 107.46 55.92 107.7 55.92 108.02V116.14C55.92 116.46 55.8267 116.7 55.64 116.86C55.4533 117.02 55.2133 117.1 54.92 117.1ZM54.92 105.08C54.5333 105.08 54.2267 104.973 54 104.76C53.7733 104.547 53.66 104.267 53.66 103.92C53.66 103.573 53.7733 103.3 54 103.1C54.2267 102.887 54.5333 102.78 54.92 102.78C55.2933 102.78 55.5933 102.887 55.82 103.1C56.06 103.3 56.18 103.573 56.18 103.92C56.18 104.267 56.0667 104.547 55.84 104.76C55.6133 104.973 55.3067 105.08 54.92 105.08ZM64.0038 107C66.3371 107 67.5038 108.313 67.5038 110.94V116.14C67.5038 116.447 67.4104 116.687 67.2238 116.86C67.0504 117.02 66.8038 117.1 66.4838 117.1C66.1771 117.1 65.9304 117.013 65.7438 116.84C65.5704 116.667 65.4838 116.433 65.4838 116.14V111.04C65.4838 110.213 65.3171 109.607 64.9838 109.22C64.6638 108.833 64.1571 108.64 63.4638 108.64C62.6504 108.64 61.9971 108.893 61.5038 109.4C61.0104 109.907 60.7638 110.587 60.7638 111.44V116.14C60.7638 116.433 60.6704 116.667 60.4838 116.84C60.3104 117.013 60.0704 117.1 59.7638 117.1C59.4571 117.1 59.2104 117.013 59.0238 116.84C58.8371 116.667 58.7438 116.433 58.7438 116.14V108C58.7438 107.72 58.8371 107.493 59.0238 107.32C59.2238 107.133 59.4704 107.04 59.7638 107.04C60.0571 107.04 60.2904 107.127 60.4638 107.3C60.6371 107.473 60.7238 107.7 60.7238 107.98V108.8C61.0438 108.213 61.4904 107.767 62.0638 107.46C62.6371 107.153 63.2838 107 64.0038 107ZM78.3472 107.04C78.6539 107.04 78.8939 107.133 79.0672 107.32C79.2539 107.493 79.3472 107.727 79.3472 108.02V116.22C79.3472 117.713 78.9472 118.84 78.1472 119.6C77.3605 120.36 76.1939 120.74 74.6472 120.74C73.2072 120.74 72.0072 120.467 71.0472 119.92C70.5539 119.64 70.3072 119.307 70.3072 118.92C70.3072 118.693 70.3672 118.507 70.4872 118.36C70.6205 118.213 70.7805 118.14 70.9672 118.14C71.1405 118.14 71.4139 118.24 71.7872 118.44C72.2672 118.667 72.7139 118.84 73.1272 118.96C73.5405 119.093 74.0339 119.16 74.6072 119.16C76.4472 119.16 77.3672 118.233 77.3672 116.38V114.84C77.0872 115.427 76.6605 115.887 76.0872 116.22C75.5139 116.54 74.8472 116.7 74.0872 116.7C73.2339 116.7 72.4739 116.5 71.8072 116.1C71.1405 115.7 70.6205 115.133 70.2472 114.4C69.8872 113.667 69.7072 112.82 69.7072 111.86C69.7072 110.9 69.8939 110.053 70.2672 109.32C70.6405 108.587 71.1539 108.02 71.8072 107.62C72.4739 107.207 73.2339 107 74.0872 107C74.8339 107 75.4872 107.16 76.0472 107.48C76.6205 107.8 77.0539 108.253 77.3472 108.84V108C77.3472 107.707 77.4339 107.473 77.6072 107.3C77.7939 107.127 78.0405 107.04 78.3472 107.04ZM74.5672 115.1C75.4339 115.1 76.1139 114.813 76.6072 114.24C77.1005 113.667 77.3472 112.873 77.3472 111.86C77.3472 110.86 77.1005 110.073 76.6072 109.5C76.1272 108.913 75.4472 108.62 74.5672 108.62C73.6872 108.62 72.9939 108.907 72.4872 109.48C71.9939 110.053 71.7472 110.847 71.7472 111.86C71.7472 112.873 72.0005 113.667 72.5072 114.24C73.0139 114.813 73.7005 115.1 74.5672 115.1ZM88.6952 117.1C88.3885 117.1 88.1418 117.007 87.9552 116.82C87.7685 116.633 87.6752 116.38 87.6752 116.06V103.9C87.6752 103.593 87.7618 103.353 87.9352 103.18C88.1218 102.993 88.3752 102.9 88.6952 102.9H93.5152C95.0085 102.9 96.1685 103.267 96.9952 104C97.8218 104.733 98.2352 105.773 98.2352 107.12C98.2352 108.453 97.8218 109.493 96.9952 110.24C96.1685 110.987 95.0085 111.36 93.5152 111.36H89.7352V116.06C89.7352 116.38 89.6418 116.633 89.4552 116.82C89.2818 117.007 89.0285 117.1 88.6952 117.1ZM93.2952 109.7C95.2685 109.7 96.2552 108.84 96.2552 107.12C96.2552 105.413 95.2685 104.56 93.2952 104.56H89.7352V109.7H93.2952ZM104.348 107C105.641 107 106.601 107.327 107.228 107.98C107.868 108.633 108.188 109.627 108.188 110.96V116.14C108.188 116.447 108.101 116.687 107.928 116.86C107.754 117.02 107.514 117.1 107.208 117.1C106.914 117.1 106.681 117.013 106.508 116.84C106.334 116.667 106.248 116.433 106.248 116.14V115.4C105.994 115.96 105.614 116.393 105.108 116.7C104.614 116.993 104.034 117.14 103.368 117.14C102.728 117.14 102.141 117.013 101.608 116.76C101.074 116.493 100.654 116.127 100.348 115.66C100.054 115.193 99.9077 114.673 99.9077 114.1C99.9077 113.393 100.088 112.84 100.448 112.44C100.821 112.027 101.428 111.733 102.268 111.56C103.121 111.387 104.288 111.3 105.768 111.3H106.228V110.72C106.228 109.973 106.074 109.433 105.768 109.1C105.461 108.767 104.968 108.6 104.288 108.6C103.821 108.6 103.381 108.66 102.968 108.78C102.554 108.9 102.101 109.073 101.608 109.3C101.248 109.5 100.994 109.6 100.848 109.6C100.648 109.6 100.481 109.527 100.348 109.38C100.228 109.233 100.168 109.047 100.168 108.82C100.168 108.62 100.221 108.447 100.328 108.3C100.448 108.14 100.634 107.987 100.888 107.84C101.354 107.587 101.901 107.387 102.528 107.24C103.154 107.08 103.761 107 104.348 107ZM103.728 115.64C104.461 115.64 105.061 115.393 105.528 114.9C105.994 114.393 106.228 113.747 106.228 112.96V112.44H105.868C104.828 112.44 104.028 112.487 103.468 112.58C102.908 112.673 102.508 112.833 102.268 113.06C102.028 113.273 101.908 113.587 101.908 114C101.908 114.48 102.081 114.873 102.428 115.18C102.774 115.487 103.208 115.64 103.728 115.64ZM116.211 107C118.544 107 119.711 108.313 119.711 110.94V116.14C119.711 116.447 119.617 116.687 119.431 116.86C119.257 117.02 119.011 117.1 118.691 117.1C118.384 117.1 118.137 117.013 117.951 116.84C117.777 116.667 117.691 116.433 117.691 116.14V111.04C117.691 110.213 117.524 109.607 117.191 109.22C116.871 108.833 116.364 108.64 115.671 108.64C114.857 108.64 114.204 108.893 113.711 109.4C113.217 109.907 112.971 110.587 112.971 111.44V116.14C112.971 116.433 112.877 116.667 112.691 116.84C112.517 117.013 112.277 117.1 111.971 117.1C111.664 117.1 111.417 117.013 111.231 116.84C111.044 116.667 110.951 116.433 110.951 116.14V108C110.951 107.72 111.044 107.493 111.231 107.32C111.431 107.133 111.677 107.04 111.971 107.04C112.264 107.04 112.497 107.127 112.671 107.3C112.844 107.473 112.931 107.7 112.931 107.98V108.8C113.251 108.213 113.697 107.767 114.271 107.46C114.844 107.153 115.491 107 116.211 107ZM123.494 117.1C123.201 117.1 122.954 117.02 122.754 116.86C122.568 116.7 122.474 116.46 122.474 116.14V103.78C122.474 103.46 122.568 103.22 122.754 103.06C122.954 102.887 123.201 102.8 123.494 102.8C123.788 102.8 124.028 102.887 124.214 103.06C124.401 103.22 124.494 103.46 124.494 103.78V116.14C124.494 116.46 124.401 116.7 124.214 116.86C124.028 117.02 123.788 117.1 123.494 117.1ZM128.338 117.1C128.045 117.1 127.798 117.02 127.598 116.86C127.411 116.7 127.318 116.46 127.318 116.14V108.02C127.318 107.7 127.411 107.46 127.598 107.3C127.798 107.127 128.045 107.04 128.338 107.04C128.631 107.04 128.871 107.127 129.058 107.3C129.245 107.46 129.338 107.7 129.338 108.02V116.14C129.338 116.46 129.245 116.7 129.058 116.86C128.871 117.02 128.631 117.1 128.338 117.1ZM128.338 105.08C127.951 105.08 127.645 104.973 127.418 104.76C127.191 104.547 127.078 104.267 127.078 103.92C127.078 103.573 127.191 103.3 127.418 103.1C127.645 102.887 127.951 102.78 128.338 102.78C128.711 102.78 129.011 102.887 129.238 103.1C129.478 103.3 129.598 103.573 129.598 103.92C129.598 104.267 129.485 104.547 129.258 104.76C129.031 104.973 128.725 105.08 128.338 105.08ZM137.402 107C138.242 107 138.988 107.213 139.642 107.64C140.308 108.067 140.822 108.667 141.182 109.44C141.555 110.213 141.742 111.107 141.742 112.12C141.742 113.12 141.562 114 141.202 114.76C140.842 115.52 140.328 116.107 139.662 116.52C139.008 116.933 138.255 117.14 137.402 117.14C136.668 117.14 136.022 116.987 135.462 116.68C134.902 116.36 134.475 115.907 134.182 115.32V119.78C134.182 120.06 134.088 120.28 133.902 120.44C133.728 120.613 133.495 120.7 133.202 120.7C132.895 120.7 132.642 120.613 132.442 120.44C132.255 120.267 132.162 120.033 132.162 119.74V108.02C132.162 107.727 132.255 107.493 132.442 107.32C132.628 107.133 132.875 107.04 133.182 107.04C133.475 107.04 133.715 107.133 133.902 107.32C134.088 107.493 134.182 107.727 134.182 108.02V108.84C134.475 108.253 134.902 107.8 135.462 107.48C136.022 107.16 136.668 107 137.402 107ZM136.922 115.54C137.802 115.54 138.482 115.247 138.962 114.66C139.442 114.06 139.682 113.213 139.682 112.12C139.682 111.013 139.435 110.153 138.942 109.54C138.462 108.927 137.788 108.62 136.922 108.62C136.042 108.62 135.362 108.92 134.882 109.52C134.415 110.12 134.182 110.973 134.182 112.08C134.182 113.187 134.415 114.04 134.882 114.64C135.362 115.24 136.042 115.54 136.922 115.54ZM151.538 107.04C151.845 107.04 152.085 107.127 152.258 107.3C152.445 107.473 152.538 107.713 152.538 108.02V116.16C152.538 116.44 152.445 116.667 152.258 116.84C152.071 117.013 151.825 117.1 151.518 117.1C151.238 117.1 151.011 117.02 150.838 116.86C150.665 116.687 150.578 116.46 150.578 116.18V115.42C150.271 115.98 149.845 116.407 149.298 116.7C148.765 116.993 148.165 117.14 147.498 117.14C145.125 117.14 143.938 115.833 143.938 113.22V108.02C143.938 107.713 144.025 107.473 144.198 107.3C144.385 107.127 144.638 107.04 144.958 107.04C145.265 107.04 145.505 107.127 145.678 107.3C145.865 107.473 145.958 107.713 145.958 108.02V113.2C145.958 113.987 146.118 114.567 146.438 114.94C146.758 115.313 147.251 115.5 147.918 115.5C148.705 115.5 149.331 115.247 149.798 114.74C150.278 114.233 150.518 113.56 150.518 112.72V108.02C150.518 107.727 150.611 107.493 150.798 107.32C150.985 107.133 151.231 107.04 151.538 107.04ZM160.625 107C162.958 107 164.125 108.313 164.125 110.94V116.14C164.125 116.447 164.032 116.687 163.845 116.86C163.672 117.02 163.425 117.1 163.105 117.1C162.798 117.1 162.552 117.013 162.365 116.84C162.192 116.667 162.105 116.433 162.105 116.14V111.04C162.105 110.213 161.938 109.607 161.605 109.22C161.285 108.833 160.778 108.64 160.085 108.64C159.272 108.64 158.618 108.893 158.125 109.4C157.632 109.907 157.385 110.587 157.385 111.44V116.14C157.385 116.433 157.292 116.667 157.105 116.84C156.932 117.013 156.692 117.1 156.385 117.1C156.078 117.1 155.832 117.013 155.645 116.84C155.458 116.667 155.365 116.433 155.365 116.14V108C155.365 107.72 155.458 107.493 155.645 107.32C155.845 107.133 156.092 107.04 156.385 107.04C156.678 107.04 156.912 107.127 157.085 107.3C157.258 107.473 157.345 107.7 157.345 107.98V108.8C157.665 108.213 158.112 107.767 158.685 107.46C159.258 107.153 159.905 107 160.625 107ZM170.988 107C172.282 107 173.242 107.327 173.868 107.98C174.508 108.633 174.828 109.627 174.828 110.96V116.14C174.828 116.447 174.742 116.687 174.568 116.86C174.395 117.02 174.155 117.1 173.848 117.1C173.555 117.1 173.322 117.013 173.148 116.84C172.975 116.667 172.888 116.433 172.888 116.14V115.4C172.635 115.96 172.255 116.393 171.748 116.7C171.255 116.993 170.675 117.14 170.008 117.14C169.368 117.14 168.782 117.013 168.248 116.76C167.715 116.493 167.295 116.127 166.988 115.66C166.695 115.193 166.548 114.673 166.548 114.1C166.548 113.393 166.728 112.84 167.088 112.44C167.462 112.027 168.068 111.733 168.908 111.56C169.762 111.387 170.928 111.3 172.408 111.3H172.868V110.72C172.868 109.973 172.715 109.433 172.408 109.1C172.102 108.767 171.608 108.6 170.928 108.6C170.462 108.6 170.022 108.66 169.608 108.78C169.195 108.9 168.742 109.073 168.248 109.3C167.888 109.5 167.635 109.6 167.488 109.6C167.288 109.6 167.122 109.527 166.988 109.38C166.868 109.233 166.808 109.047 166.808 108.82C166.808 108.62 166.862 108.447 166.968 108.3C167.088 108.14 167.275 107.987 167.528 107.84C167.995 107.587 168.542 107.387 169.168 107.24C169.795 107.08 170.402 107 170.988 107ZM170.368 115.64C171.102 115.64 171.702 115.393 172.168 114.9C172.635 114.393 172.868 113.747 172.868 112.96V112.44H172.508C171.468 112.44 170.668 112.487 170.108 112.58C169.548 112.673 169.148 112.833 168.908 113.06C168.668 113.273 168.548 113.587 168.548 114C168.548 114.48 168.722 114.873 169.068 115.18C169.415 115.487 169.848 115.64 170.368 115.64ZM182.851 107C185.185 107 186.351 108.313 186.351 110.94V116.14C186.351 116.447 186.258 116.687 186.071 116.86C185.898 117.02 185.651 117.1 185.331 117.1C185.025 117.1 184.778 117.013 184.591 116.84C184.418 116.667 184.331 116.433 184.331 116.14V111.04C184.331 110.213 184.165 109.607 183.831 109.22C183.511 108.833 183.005 108.64 182.311 108.64C181.498 108.64 180.845 108.893 180.351 109.4C179.858 109.907 179.611 110.587 179.611 111.44V116.14C179.611 116.433 179.518 116.667 179.331 116.84C179.158 117.013 178.918 117.1 178.611 117.1C178.305 117.1 178.058 117.013 177.871 116.84C177.685 116.667 177.591 116.433 177.591 116.14V108C177.591 107.72 177.685 107.493 177.871 107.32C178.071 107.133 178.318 107.04 178.611 107.04C178.905 107.04 179.138 107.127 179.311 107.3C179.485 107.473 179.571 107.7 179.571 107.98V108.8C179.891 108.213 180.338 107.767 180.911 107.46C181.485 107.153 182.131 107 182.851 107ZM195.148 112.48C194.842 112.48 194.608 112.413 194.448 112.28C194.288 112.133 194.208 111.933 194.208 111.68C194.208 111.427 194.288 111.227 194.448 111.08C194.608 110.933 194.842 110.86 195.148 110.86H199.408C199.715 110.86 199.948 110.933 200.108 111.08C200.268 111.227 200.348 111.427 200.348 111.68C200.348 111.933 200.268 112.133 200.108 112.28C199.948 112.413 199.715 112.48 199.408 112.48H195.148ZM211.623 115.3C211.943 115.3 212.183 115.373 212.343 115.52C212.516 115.667 212.603 115.873 212.603 116.14C212.603 116.713 212.276 117 211.623 117H203.903C203.609 117 203.376 116.92 203.203 116.76C203.043 116.587 202.963 116.373 202.963 116.12C202.963 115.813 203.083 115.533 203.323 115.28L208.023 110.14C208.649 109.46 209.103 108.84 209.383 108.28C209.663 107.72 209.803 107.167 209.803 106.62C209.803 105.913 209.596 105.373 209.183 105C208.783 104.613 208.209 104.42 207.463 104.42C206.329 104.42 205.203 104.853 204.083 105.72C203.936 105.813 203.809 105.887 203.703 105.94C203.609 105.98 203.509 106 203.403 106C203.216 106 203.056 105.913 202.923 105.74C202.789 105.567 202.723 105.36 202.723 105.12C202.723 104.787 202.856 104.52 203.123 104.32C203.683 103.84 204.356 103.46 205.143 103.18C205.929 102.887 206.723 102.74 207.523 102.74C208.843 102.74 209.889 103.08 210.663 103.76C211.449 104.427 211.842 105.333 211.842 106.48C211.842 107.293 211.663 108.067 211.303 108.8C210.956 109.533 210.369 110.353 209.543 111.26L205.763 115.3H211.623Z" fill="white"/>
</svg>
