<svg width="216" height="236" viewBox="0 0 216 236" fill="none" xmlns="http://www.w3.org/2000/svg">
<g filter="url(#filter0_ddd)">
<rect x="20" y="10" width="176" height="196" rx="10" fill="white"/>
<rect x="20.5" y="10.5" width="175" height="195" rx="9.5" stroke="#228DD5"/>
</g>
<circle cx="57" cy="65" r="18" fill="#FFBE55" fill-opacity="0.41"/>
<path d="M176.055 171.139L169.081 190.719L155.612 174.889L176.055 171.139Z" fill="#FFE4B9"/>
<circle cx="162.5" cy="36.5" r="7.5" fill="#FFE4B9"/>
<path d="M118.381 110L128 128L115 126.971L118.381 110Z" fill="#6F5DC6"/>
<path d="M98.7151 80.052C98.6121 80.0591 98.5068 80.0538 98.4033 80.0573C98.1207 80.0698 97.8392 80.1001 97.5597 80.1429C97.1453 80.2071 96.7354 80.2981 96.3334 80.414C95.8314 80.562 95.342 80.7492 94.8729 80.9774C94.3255 81.2431 93.8061 81.5659 93.3267 81.9368C92.7753 82.3647 92.2781 82.8568 91.8437 83.3971C91.3345 84.0319 90.913 84.7327 90.5725 85.4674C90.1606 86.3554 89.8666 87.2933 89.6617 88.2472C89.4076 89.4312 89.2892 90.6402 89.26 91.8474C89.2495 92.2878 89.2696 92.7265 89.2751 93.1669C89.2783 93.4201 89.2903 93.6644 89.2133 93.9069C89.0913 94.2921 88.8913 94.654 88.6383 94.9714C88.2784 95.4208 87.8059 95.7738 87.2785 96.0146C85.522 96.817 79.8036 98.3808 79.3134 105.759C78.8233 113.14 78.4966 114.903 75.7191 116.348C72.9416 117.792 73.7585 121.642 76.536 123.405C79.3134 125.17 122.447 122.444 122.447 122.444C122.447 122.444 126.858 115.144 120.813 109.529C114.768 103.916 118.199 102.471 117.137 97.9796C116.075 93.4879 112.072 93.1669 111.99 91.0004C111.908 88.8357 111.663 79.2104 98.7151 80.052Z" fill="#3D3C3B"/>
<path d="M109.552 99.4501C108.232 104.039 104.502 103.338 100.04 101.98C95.5777 100.624 93.0281 95.8031 94.3481 91.2126C95.6659 86.6238 100.353 84.0002 104.815 85.358C109.277 86.7141 110.87 94.8595 109.552 99.4501Z" fill="#EEA886"/>
<path d="M101.094 83.0163C101.094 83.0163 104.306 88.8277 98.6358 91.9187C92.9658 95.0078 94.5498 100 94.5498 100C94.5498 100 91.435 98.606 92.0907 93.0335C92.7465 87.4593 91.107 85.8901 95.0417 84.3227C98.9763 82.7554 101.094 83.0163 101.094 83.0163Z" fill="#3D3C3B"/>
<path d="M105.442 100.794C105.442 100.794 104.339 104.932 105.82 106.075C107.301 107.217 99.1587 106.98 99.1587 106.98C99.1587 106.98 98.5012 102.046 99.8628 99.7968C101.228 97.5402 105.442 100.794 105.442 100.794Z" fill="#EEA886"/>
<path d="M97 97C97 97.5529 96.3284 98 95.5 98C94.6716 98 94 97.5529 94 97C94 96.4485 94.6716 96 95.5 96C96.3284 96 97 96.4485 97 97Z" fill="#EEA886"/>
<path d="M101 94.5C101 94.7763 100.776 95 100.5 95C100.224 95 100 94.7763 100 94.5C100 94.2237 100.224 94 100.5 94C100.776 94 101 94.2237 101 94.5Z" fill="#3D3C3B"/>
<path d="M108 90.5C108 90.7755 107.776 91 107.5 91C107.224 91 107 90.7755 107 90.5C107 90.2232 107.224 90 107.5 90C107.776 90 108 90.2232 108 90.5Z" fill="#3D3C3B"/>
<path d="M101 92.5706C101.002 92.5982 100.135 92.8557 100.051 92.8868C99.5539 93.0734 99.034 93.2755 98.6665 93.6954C98.5084 93.8769 98.408 94.0998 98.3179 94.3278C98.2337 94.5404 98.1644 94.8341 98.0131 95C97.992 94.9292 98.0015 94.8462 98.0068 94.7719C98.0362 94.3659 98.0612 93.9391 98.1843 93.5537C98.3549 93.0164 98.8819 92.5533 99.3359 92.2906C99.786 92.0297 100.942 91.6841 101 92.5706Z" fill="#3D3C3B"/>
<path d="M105.289 89.9997C105.313 90.0147 105.994 89.3862 106.065 89.328C106.489 88.9855 106.94 88.6313 107.504 88.5133C107.746 88.4617 107.997 88.4817 108.245 88.5116C108.477 88.5382 108.774 88.6197 109 88.5665C108.948 88.5149 108.87 88.4833 108.801 88.4534C108.426 88.2855 108.036 88.1043 107.629 88.0261C107.065 87.9197 106.38 88.1558 105.91 88.4235C105.444 88.6895 104.534 89.5275 105.289 89.9997Z" fill="#3D3C3B"/>
<path d="M89.9925 87.1971C89.5991 88.3665 89.2316 89.5427 88.9443 90.7379C88.7996 91.3338 88.6752 91.9366 88.5638 92.5393L88.483 92.994L88.4441 93.2213C88.4275 93.3005 88.4017 93.3866 88.3799 93.4693C88.2614 93.8 88.0156 94.0634 87.7503 94.2649C87.4827 94.4699 87.1872 94.6232 86.8883 94.7592C86.5888 94.8935 86.2842 95.0124 85.9772 95.1191C85.6708 95.2294 85.3628 95.331 85.0555 95.4309L84.5951 95.5824C84.4445 95.6375 84.2978 95.6892 84.1525 95.7512C83.5733 96.0026 83.0355 96.3436 82.532 96.7225C82.0273 97.1014 81.5535 97.5233 81.1232 97.9762L81.1212 97.978C81.0955 98.0055 81.0515 98.0072 81.0229 97.9831C80.9949 97.959 80.9924 97.9177 81.0164 97.8918C81.4418 97.4165 81.9043 96.9791 82.4068 96.5778C82.907 96.1766 83.4549 95.8218 84.0529 95.548C84.2021 95.4808 84.3595 95.4222 84.5118 95.3637L84.9698 95.2052C85.2751 95.0985 85.5793 94.9917 85.8795 94.8798C86.1805 94.7695 86.4756 94.6473 86.7609 94.5129C87.0456 94.3786 87.3209 94.227 87.556 94.0411C87.7907 93.8551 87.9858 93.6312 88.0724 93.3728C88.0873 93.3057 88.1055 93.2437 88.1202 93.1731L88.1588 92.944L88.2389 92.4859C88.3493 91.878 88.473 91.2701 88.6173 90.6673C88.7614 90.0645 88.9223 89.4635 89.1017 88.8694C89.2818 88.2752 89.4839 87.6879 89.6906 87.1024C89.7185 87.0232 89.8085 86.9818 89.8919 87.0077C89.9743 87.0335 90.0187 87.1179 89.9925 87.1971Z" fill="#3D3C3B"/>
<path d="M98.573 104.027C100.314 104.46 103.782 105.279 105.81 105.432C106.365 105.474 106.791 105.954 106.791 106.531V107.254C106.791 107.254 116.709 108.207 117.727 110.208C118.745 112.208 120 145 120 145H86L88.3804 110.208C88.3804 110.208 92.3435 108.639 97.3187 108.133L97.4599 104.897C97.4857 104.307 98.0206 103.888 98.573 104.027Z" fill="#33A3EF"/>
<path d="M102 137.304C100.88 139.178 99.756 141.052 98.6361 142.929C98.3541 143.403 90.6163 141.377 86.7748 140.377C85.7723 140.115 85.0361 139.923 84.7619 139.864C82.4516 139.356 80.1373 138.841 77.8269 138.333C76.053 137.94 73.954 137.741 72.462 136.619C71.5809 135.953 70.9348 134.896 71.0053 133.79C71.0641 132.85 71.6123 132.022 72.1447 131.242C77.306 123.605 83.5324 117.474 88.9323 110L87.7537 126.618C86.8413 127.688 84.2797 130.816 84.0844 130.814C85.1771 131.218 86.2735 131.618 87.37 132.015C92.2374 133.797 97.1168 135.558 102 137.304Z" fill="#33A3EF"/>
<path d="M106 143H98.0042L98 142.899C98.9833 141.266 99.9663 139.631 100.945 138L101.004 138.01C103.139 138.469 105.177 139.351 105.517 140.864L106 143Z" fill="#EEA886"/>
<path fill-rule="evenodd" clip-rule="evenodd" d="M137.427 145H105.29C104.372 145 103.817 144.224 104.055 143.273L109.47 121.727C109.708 120.776 110.655 120 111.573 120H143.71C144.628 120 145.184 120.776 144.944 121.727L139.53 143.273C139.292 144.224 138.346 145 137.427 145Z" fill="#1F618E"/>
<path fill-rule="evenodd" clip-rule="evenodd" d="M107.658 145H93.3416C92.6029 145 92 144.327 92 143.5C92 142.673 92.6029 142 93.3416 142H107.658C108.397 142 109 142.673 109 143.5C109 144.327 108.397 145 107.658 145Z" fill="#1F618E"/>
<path fill-rule="evenodd" clip-rule="evenodd" d="M138.437 145H107.289C106.372 145 105.817 144.224 106.055 143.273L111.462 121.727C111.701 120.776 112.646 120 113.563 120H144.711C145.629 120 146.183 120.776 145.945 121.727L140.538 143.273C140.3 144.224 139.354 145 138.437 145Z" fill="#2B8ACA"/>
<path d="M105.175 96C105.134 96 105.094 95.984 105.066 95.954C105.016 95.8979 105.023 95.8139 105.083 95.7679C105.159 95.7098 105.24 95.6598 105.319 95.6098C105.414 95.5517 105.504 95.4957 105.578 95.4297C105.768 95.2596 105.763 95.1055 105.563 94.9153C105.449 94.8073 105.359 94.7252 105.278 94.6532C104.957 94.365 104.796 94.2189 104.026 93.2063C103.981 93.1483 103.996 93.0662 104.061 93.0242C104.125 92.9822 104.213 92.9962 104.259 93.0562C105.013 94.0488 105.168 94.1889 105.477 94.4651C105.559 94.5391 105.651 94.6232 105.767 94.7332C106.074 95.0234 106.078 95.3456 105.777 95.6178C105.684 95.7018 105.578 95.7659 105.477 95.8299C105.401 95.8759 105.33 95.9199 105.266 95.968C105.24 95.99 105.207 96 105.175 96Z" fill="#3D3C3B"/>
<path d="M105.148 99C104.54 99 104.075 98.8086 104.066 98.8056C104.012 98.7817 103.986 98.7174 104.008 98.6605C104.029 98.6037 104.09 98.5768 104.144 98.5992C104.16 98.6052 105.754 99.2587 106.817 98.0369C106.856 97.9906 106.923 97.9876 106.966 98.0295C107.009 98.0713 107.012 98.1416 106.972 98.1865C106.41 98.8325 105.716 99 105.148 99Z" fill="#3D3C3B"/>
<path d="M116.596 101.243C116.657 101.928 116.823 102.607 117.099 103.25C117.375 103.893 117.761 104.499 118.237 105.05C119.191 106.15 120.482 107.014 121.891 107.663C121.99 107.708 122.029 107.815 121.977 107.903C121.926 107.991 121.805 108.024 121.706 107.982C120.243 107.34 118.878 106.468 117.841 105.32C117.325 104.747 116.898 104.109 116.588 103.425C116.276 102.743 116.083 102.02 116.001 101.289C115.985 101.143 116.105 101.015 116.269 101.001C116.433 100.987 116.579 101.092 116.596 101.236C116.596 101.238 116.596 101.241 116.596 101.243Z" fill="#3D3C3B"/>
<path d="M100 85.3498C100 85.3498 109.151 87.2858 109.982 94C109.982 94 110.887 82.9138 100 85.3498Z" fill="#3D3C3B"/>
<path d="M152 170C152 170 56.3826 170 49.3629 170C42.5833 161.1 41.8508 149.705 49.3629 143C56.5775 143 152 143 152 143V146.232H148.748V166.386H152V170Z" fill="#33A3EF"/>
<path d="M164 170C164 170 68.3829 170 61.3632 170C54.5835 161.1 53.8504 149.705 61.3632 143C68.5778 143 164 143 164 143V146.232H160.747V166.386H164V170Z" fill="#1F618E"/>
<path d="M161 166C161 166 70.1647 166 63.5715 166C58.8788 161.569 58.7407 150.058 63.5715 146C70.3475 146 161 146 161 146V166Z" fill="white"/>
<path d="M63.6412 166C63.6172 166 63.5937 166 63.5718 166C61.2066 163.767 59.9986 159.737 60 155.767C60.0016 151.862 61.1756 148.014 63.5718 146C70.3477 146 161 146 161 146V146.928V149.727C146.434 149.727 72.1526 149.727 66.0439 149.727C62.2595 152.908 61.5253 160.66 63.6412 166Z" fill="#D6D2CB"/>
<path d="M148.154 157H80.8463C80.3808 157 80 156.628 80 156.174V155.826C80 155.372 80.3808 155 80.8463 155H148.154C148.619 155 149 155.372 149 155.826V156.174C149 156.628 148.619 157 148.154 157Z" fill="#E3DCD5"/>
<path d="M138.154 163H70.8463C70.3806 163 70 162.629 70 162.175V161.827C70 161.371 70.3806 161 70.8463 161H138.154C138.619 161 139 161.371 139 161.827V162.175C139 162.629 138.619 163 138.154 163Z" fill="#E3DCD5"/>
<path d="M124.339 44L102.661 45.6744C101.191 45.6744 100 46.8562 100 48.3145L101.688 58.8464C101.688 60.3046 102.879 61.4846 104.349 61.4846L105.372 61.5484H105.372C105.372 61.5484 105.979 63.8199 104.788 65C104.788 65 108.336 64.1495 108.909 61.7628L122.651 62.6009C124.12 62.6009 125.312 61.4191 125.312 59.9626L127 46.6401C127 45.1818 125.809 44 124.339 44Z" fill="#33A3EF"/>
<path d="M110 54.0006C110 54.5529 109.329 55 108.5 55C107.671 55 107 54.5529 107 54.0006C107 53.4483 107.671 53 108.5 53C109.329 53 110 53.4483 110 54.0006Z" fill="white"/>
<path d="M114 53.5C114 54.328 113.328 55 112.5 55C111.671 55 111 54.328 111 53.5C111 52.672 111.671 52 112.5 52C113.328 52 114 52.672 114 53.5Z" fill="white"/>
<path d="M119 53.5C119 54.328 118.329 55 117.5 55C116.672 55 116 54.328 116 53.5C116 52.672 116.672 52 117.5 52C118.329 52 119 52.672 119 53.5Z" fill="white"/>
<defs>
<filter id="filter0_ddd" x="0" y="0" width="216" height="236" filterUnits="userSpaceOnUse" color-interpolation-filters="sRGB">
<feFlood flood-opacity="0" result="BackgroundImageFix"/>
<feColorMatrix in="SourceAlpha" type="matrix" values="0 0 0 0 0 0 0 0 0 0 0 0 0 0 0 0 0 0 127 0"/>
<feOffset/>
<feGaussianBlur stdDeviation="0.5"/>
<feColorMatrix type="matrix" values="0 0 0 0 0 0 0 0 0 0 0 0 0 0 0 0 0 0 0.04 0"/>
<feBlend mode="normal" in2="BackgroundImageFix" result="effect1_dropShadow"/>
<feColorMatrix in="SourceAlpha" type="matrix" values="0 0 0 0 0 0 0 0 0 0 0 0 0 0 0 0 0 0 127 0"/>
<feOffset dy="2"/>
<feGaussianBlur stdDeviation="3"/>
<feColorMatrix type="matrix" values="0 0 0 0 0 0 0 0 0 0 0 0 0 0 0 0 0 0 0.04 0"/>
<feBlend mode="normal" in2="effect1_dropShadow" result="effect2_dropShadow"/>
<feColorMatrix in="SourceAlpha" type="matrix" values="0 0 0 0 0 0 0 0 0 0 0 0 0 0 0 0 0 0 127 0"/>
<feOffset dy="10"/>
<feGaussianBlur stdDeviation="10"/>
<feColorMatrix type="matrix" values="0 0 0 0 0 0 0 0 0 0 0 0 0 0 0 0 0 0 0.04 0"/>
<feBlend mode="normal" in2="effect2_dropShadow" result="effect3_dropShadow"/>
<feBlend mode="normal" in="SourceGraphic" in2="effect3_dropShadow" result="shape"/>
</filter>
</defs>
</svg>
