<svg width="187" height="149" viewBox="0 0 187 149" fill="none" xmlns="http://www.w3.org/2000/svg">
<circle cx="27.3073" cy="79.6778" r="26.5593" fill="#228DD5" fill-opacity="0.32"/>
<path d="M142.998 112.624L89.2773 142.122L35.5566 112.624V53.6277L89.2773 24.1292L142.998 53.6277V112.624Z" fill="#FFB954"/>
<path d="M35.5566 53.6277V53.6289L89.2773 83.1274L142.998 53.6289V53.6277L89.2773 24.1292L35.5566 53.6277Z" fill="#FEA02C"/>
<path d="M35.5566 53.6458V112.624L89.2773 142.122L89.309 142.105V83.1263L35.5884 53.6277L35.5566 53.6458Z" fill="#FFC66C"/>
<path d="M142.998 53.6287L160.738 71.368L107.018 100.867L89.2773 83.1261L142.998 53.6287Z" fill="#FEDA9B"/>
<path d="M35.5569 53.6287L17.8164 71.368L71.537 100.867L89.2775 83.1261L35.5569 53.6287Z" fill="#FEDA9B"/>
<path d="M142.998 53.6286L160.738 35.8893L107.018 6.39075L89.2773 24.1312L142.998 53.6286Z" fill="#FEDA9B"/>
<path d="M35.5569 53.6286L17.8164 35.8893L71.537 6.39075L89.2775 24.1312L35.5569 53.6286Z" fill="#FEDA9B"/>
<ellipse cx="155.972" cy="11.8041" rx="12.3943" ry="11.8041" fill="#228DD5" fill-opacity="0.32"/>
<ellipse cx="168.366" cy="117.451" rx="17.7062" ry="17.116" fill="#85CEFF" fill-opacity="0.85"/>
</svg>
