<svg width="44" height="44" viewBox="0 0 44 44" fill="none" xmlns="http://www.w3.org/2000/svg">
<path d="M22.6875 0C21.5935 0 20.5443 0.434597 19.7707 1.20818C18.9971 1.98177 18.5625 3.03098 18.5625 4.125C18.5625 5.21902 18.9971 6.26823 19.7707 7.04182C20.5443 7.8154 21.5935 8.25 22.6875 8.25C23.7815 8.25 24.8307 7.8154 25.6043 7.04182C26.3779 6.26823 26.8125 5.21902 26.8125 4.125C26.8125 3.03098 26.3779 1.98177 25.6043 1.20818C24.8307 0.434597 23.7815 0 22.6875 0ZM18.5625 9.625C18.4507 9.625 18.3524 9.66428 18.2483 9.68945C17.4119 9.53587 16.5315 9.9048 16.0837 10.6858L10.5864 20.2893C10.0204 21.2776 10.3608 22.5371 11.3491 23.1038C11.6727 23.2891 12.0245 23.375 12.3723 23.375C13.088 23.375 13.4412 23.0017 13.8225 22.3357L16.5 17.8508V23.375H12.3723H8.9375H4.8125C4.05316 23.375 3.4375 23.99 3.4375 24.75C3.4375 25.51 4.05316 26.125 4.8125 26.125H6.875V42.625C6.875 43.385 7.49066 44 8.25 44C9.00934 44 9.625 43.385 9.625 42.625V26.125H33V42.625C33 43.385 33.6157 44 34.375 44C35.1343 44 35.75 43.385 35.75 42.625V26.125H39.1875C39.9468 26.125 40.5625 25.51 40.5625 24.75C40.5625 23.99 39.9468 23.375 39.1875 23.375H35.0625H33.0027H32.8308H27.5V17.0586L30.865 22.3357C31.2463 23.0017 32.1151 23.375 32.8308 23.375C33.1779 23.375 33.6163 23.2891 33.9399 23.1038C34.9282 22.5371 35.3143 21.2776 34.7483 20.2893L29.2698 10.6831C28.8231 9.90119 27.9541 9.53386 27.116 9.68945C27.0125 9.66461 26.9236 9.625 26.8125 9.625H18.5625ZM14.4375 28.875C13.6782 28.875 13.0625 29.49 13.0625 30.25C13.0625 31.01 13.6782 31.625 14.4375 31.625H29.5625C30.3218 31.625 30.9375 31.01 30.9375 30.25C30.9375 29.49 30.3218 28.875 29.5625 28.875H14.4375Z" fill="#A2A2A2"/>
</svg>
