<svg width="555" height="512" viewBox="0 0 555 512" fill="none" xmlns="http://www.w3.org/2000/svg">
<path d="M183.239 97.7372L177.766 99.4848L174.092 90.629L165.789 92.1612L161.998 86L159 87.9995L164.071 96.2375L171.941 94.7866L175.763 104L184 101.366L183.239 97.7372Z" fill="#228DD5"/>
<path d="M536.28 405.558L530.772 407.248L527.078 398.686L518.717 400.167L514.903 394.211L511.887 396.144L516.987 404.105L524.91 402.705L528.76 411.613L537.049 409.066L536.28 405.558Z" fill="#7EC8EC"/>
<path d="M149.097 506.915C149.097 506.915 119.7 407.305 117.341 385.334C114.986 363.358 131.424 370.167 131.424 370.167C131.424 370.167 117.596 328.299 127.591 318.362C137.595 308.426 146.61 326.948 146.61 326.948C146.61 326.948 149.636 276.121 160.298 276.105C180.152 276.07 179.765 331.533 179.765 331.533C179.765 331.533 184.829 309.82 195.462 315.773C211.496 324.751 188.505 368.27 188.505 368.27C188.505 368.27 208.936 368.281 216.111 378.584C228.988 397.062 149.097 506.915 149.097 506.915Z" fill="#0975BD"/>
<path d="M159 494C159 494 73.9663 479.79 55.4713 464.733C36.9763 449.676 55.282 442.89 55.282 442.89C55.282 442.89 12.566 421.008 13.0589 406.128C13.5558 391.249 34.7758 398.814 34.7758 398.814C34.7758 398.814 -1.21654 357.801 7.30537 350.01C23.174 335.505 64.7858 378.138 64.7858 378.138C64.7858 378.138 52.4308 357.864 65.4405 354.652C85.0673 349.817 99.5478 399.808 99.5478 399.808C99.5478 399.808 95.8685 380.065 109.399 382.697C133.679 387.414 159 494 159 494Z" fill="#228DD5"/>
<path d="M109.142 382.692C95.7067 380.241 99.383 399.799 99.383 399.799C99.383 399.799 85.0374 349.816 65.5934 354.651C52.7051 357.862 64.9449 378.133 64.9449 378.133C64.9449 378.133 23.7208 335.506 8 350.01L158 494C155.328 480.246 131.672 386.797 109.142 382.692Z" fill="#209AEC"/>
<path d="M183 505.456C183 505.456 138.327 460.341 115.834 455.642C93.3359 450.946 97.3838 466.838 97.3838 466.838C97.3838 466.838 52.7505 428.076 42.4045 437.467C32.0624 446.859 43.2502 455.927 43.2502 455.927C43.2502 455.927 6.07151 449.387 0.75295 461.502C-7.42551 480.117 53.7182 490.251 53.7182 490.251C53.7182 490.251 28.0931 492.017 34.0372 503.691C42.9985 521.294 183 505.456 183 505.456Z" fill="#2F719B"/>
<path d="M1 460.825C6.31135 448.649 43.4397 455.222 43.4397 455.222C43.4397 455.222 32.267 446.109 42.5951 436.67C52.927 427.231 96.1131 460.891 96.1131 460.891C96.1131 460.891 85.9305 441.436 108.394 446.16C130.861 450.883 183 505 183 505L1 460.825Z" fill="#255A7C"/>
<path d="M253.854 37.4538C238.832 39.9231 234.371 59.6375 246.861 68.4526C249.105 70.0369 250.658 72.4177 251.318 75.0817L253.588 84.2507C254.217 86.7775 256.678 88.4016 259.249 87.9768L264.937 87.0431C267.508 86.6183 269.323 84.295 269.101 81.6974C268.314 72.2318 267.34 68.7978 270.416 64.5761C279.419 52.2253 268.88 34.9801 253.854 37.4538Z" fill="#F7CC7F"/>
<path d="M262.402 50.7005C261.933 51.7738 262.111 53.1513 262.22 54.7373C263.45 54.0377 264.88 53.16 265.34 51.8781C265.666 50.9786 265.301 49.7098 264.388 49.4751C264.284 49.4491 262.733 49.9444 262.402 50.7005ZM248.478 56.5145C249.247 57.3401 250.525 57.7008 252.398 57.6139C252.076 56.2364 251.594 54.998 250.651 54.1159C248.512 52.1301 247.2 55.1327 248.478 56.5145ZM255.388 77.5283C254.41 69.4157 253.037 60.8554 252.572 58.4264C243.962 58.9001 247.235 49.8271 251.207 53.5163C252.337 54.5678 252.871 55.9931 253.228 57.5574C256.083 57.301 258.882 56.4841 261.429 55.1675C261.29 53.1686 261.094 51.6522 261.65 50.3703C262.498 48.4366 264.945 47.9109 265.944 49.7967C266.318 50.505 266.383 51.4088 266.114 52.1562C265.536 53.7553 263.797 54.8112 262.281 55.6411C262.737 62.0895 263.363 68.5857 264.149 74.982L263.341 75.0863C262.563 68.7899 261.942 62.398 261.49 56.0539C258.96 57.3097 256.209 58.1006 253.393 58.3656C253.98 61.4682 255.284 69.8155 256.201 77.4284L255.388 77.5283Z" fill="#FAE0B2"/>
<path d="M251.251 74.856C251.269 74.9302 251.299 75.0043 251.317 75.0829L253.59 84.2502C254.219 86.7766 256.676 88.3997 259.246 87.9765L264.937 87.0427C267.508 86.6195 269.323 84.2938 269.105 81.6977C268.751 77.487 268.363 74.472 268.315 72.0504L251.251 74.856Z" fill="#2F75A2"/>
<path d="M242.717 30.6061L238.226 22.41C237.795 21.6166 238.087 20.6206 238.88 20.1859C239.674 19.7512 240.666 20.0424 241.105 20.8358L245.596 29.0319C246.027 29.8253 245.735 30.8213 244.942 31.256C244.144 31.695 243.152 31.3953 242.717 30.6061Z" fill="#FAE0B2"/>
<path d="M232.903 50.4359L223.113 49.5766C222.212 49.4977 221.543 48.7048 221.626 47.804C221.705 46.9032 222.498 46.2348 223.399 46.3137L233.19 47.1689C234.091 47.2477 234.759 48.0448 234.68 48.9456C234.601 49.8464 233.808 50.5106 232.903 50.4359Z" fill="#FAE0B2"/>
<path d="M223.198 80.4462C222.559 79.8036 222.564 78.7672 223.21 78.1329C225.615 75.7532 228.261 73.5933 231.076 71.7153C231.827 71.2137 232.843 71.4168 233.349 72.1672C233.85 72.9217 233.651 73.9374 232.897 74.439C230.255 76.2051 227.772 78.2283 225.512 80.4628C224.869 81.0929 223.832 81.0929 223.198 80.4462Z" fill="#FAE0B2"/>
<path d="M266.909 30.1638C266.038 29.9319 265.518 29.0308 265.75 28.1604C266.861 24.0093 267.539 19.727 267.771 15.4403C267.823 14.5348 268.593 13.8437 269.495 13.8918C270.4 13.94 271.091 14.7098 271.043 15.6152C270.803 20.1294 270.085 24.6348 268.917 29.0046C268.681 29.8838 267.78 30.3956 266.909 30.1638Z" fill="#FAE0B2"/>
<path d="M276.993 42.7472C276.732 41.8844 277.222 40.9677 278.089 40.707L288.269 37.6379C289.137 37.3772 290.049 37.8715 290.31 38.7343C290.57 39.6016 290.08 40.5138 289.213 40.7789L279.038 43.8436C278.17 44.1042 277.258 43.6144 276.993 42.7472Z" fill="#FAE0B2"/>
<path d="M293.716 69.8291C293.571 69.8291 293.422 69.8065 293.272 69.7658C289.743 68.775 286.318 67.3997 283.078 65.6806C282.282 65.2553 281.978 64.2645 282.404 63.4638C282.825 62.6675 283.816 62.3644 284.616 62.7897C287.644 64.3957 290.856 65.6851 294.159 66.6125C295.028 66.8568 295.535 67.7616 295.291 68.6348C295.087 69.3541 294.431 69.8291 293.716 69.8291Z" fill="#FAE0B2"/>
<path d="M442.809 142.236L437.673 130.095L424.761 127.442C423.293 127.139 422.802 125.282 423.941 124.299L433.9 115.663L432.431 102.563C432.264 101.071 433.883 100.035 435.172 100.81L446.46 107.614L458.467 102.171C459.835 101.551 461.326 102.769 460.98 104.231L457.999 117.071L466.886 126.808C467.902 127.917 467.204 129.704 465.702 129.833L452.567 130.965L446.058 142.426C445.315 143.731 443.395 143.619 442.809 142.236Z" fill="#F7CC7F"/>
<path d="M524.565 100.576L522.455 109.075L508.397 107.19L503.777 119.237L493.028 119.545L493.189 124.986L507.556 124.573L511.938 113.157L526.556 115.118L529.734 102.327L524.565 100.576Z" fill="#FAE0B2"/>
<path d="M399.343 508.032H152.296C142.86 508.032 135.216 500.099 135.216 490.316V479.778C135.216 469.995 142.86 462.062 152.296 462.062H399.343C388.044 474.87 387.848 494.445 398.889 507.498L399.343 508.032Z" fill="#228DD5"/>
<path d="M395.535 467.33H258.507C249.068 467.33 241.422 475.263 241.422 485.047C241.422 494.834 249.068 502.763 258.507 502.763H395.545C389.137 491.895 389.153 478.171 395.535 467.33Z" fill="#FAE0B2"/>
<path d="M312.555 430.134C312.916 429.462 312.37 428.68 311.541 428.68H180.818C170.572 428.68 162.267 436.153 162.267 445.374C162.267 454.592 170.572 462.069 180.818 462.069H311.573C312.407 462.069 312.958 461.283 312.592 460.607C307.418 450.958 307.428 439.74 312.555 430.134Z" fill="#7EC8EC"/>
<path d="M311.732 431.787H246.946C234.921 431.787 225.177 438.05 225.177 445.775C225.177 453.504 234.921 459.766 246.946 459.766H312.157C307.702 450.863 307.581 440.726 311.732 431.787Z" fill="#F7CC7F"/>
<path d="M294.997 438.42H286.559C284.746 438.42 283.272 439.03 283.272 439.78V439.902H294.997V438.42Z" fill="#B75742"/>
<path d="M302.195 441.831C302.195 439.944 299.994 438.42 297.273 438.42H286.448C288.511 438.42 290.178 439.579 290.178 441.005L290.128 477.581L296.109 472.878L302.209 477.581L302.195 441.831Z" fill="#255A7C"/>
<path d="M288.521 427.478H212.459C205.719 427.478 200.251 420.987 200.251 412.983C200.251 404.98 205.719 398.493 212.459 398.493H288.521C282.708 406.528 282.48 418.311 287.979 426.653L288.521 427.478Z" fill="#FAE0B2"/>
<path d="M200.255 412.984C200.255 404.98 205.856 398.493 212.76 398.493H289.971C290.33 398.493 290.622 398.152 290.618 397.735C290.613 397.323 290.326 396.993 289.971 396.993H167.479C159.865 396.993 153.685 404.151 153.685 412.984C153.685 421.82 159.865 428.979 167.479 428.979H289.971C290.326 428.979 290.613 428.645 290.618 428.237C290.622 427.816 290.326 427.478 289.971 427.478H212.76C205.856 427.478 200.255 420.987 200.255 412.984Z" fill="#96D9F9"/>
<path d="M275.236 405.613H266.8C264.988 405.613 263.513 406.214 263.513 406.949V407.071H275.236V405.613Z" fill="#184655"/>
<path d="M282.435 408.96C282.435 407.114 280.231 405.613 277.515 405.613H266.688C268.75 405.613 270.421 406.752 270.421 408.151L270.368 444.02L276.35 439.407L282.448 444.02L282.435 408.96Z" fill="#228DD5"/>
<path d="M409.707 184.062L420.936 181.108L413.329 282.597L399.855 283.045L406.653 187.75C406.78 185.993 408.008 184.511 409.707 184.062Z" fill="#228DD5"/>
<path d="M414.334 285.49C414.079 285.513 413.823 285.509 413.562 285.478C411.332 285.214 409.682 282.998 409.874 280.527L417.352 185.098C417.544 182.625 419.508 180.834 421.738 181.098C423.968 181.362 425.618 183.579 425.427 186.051L417.954 281.482C417.778 283.662 416.229 285.317 414.334 285.49Z" fill="#F7CC7F"/>
<path d="M310.992 290.574C310.997 290.645 310.997 290.711 311.008 290.782C311.356 294.664 314.365 297.571 317.722 297.269L412.553 288.782C415.91 288.484 418.349 285.093 418 281.211C417.984 281.046 417.963 280.885 417.937 280.724L310.992 290.574Z" fill="#F7CC7F"/>
<path d="M377.027 393.074C370.816 396.516 351.837 390.481 351.837 389.935C351.566 395.121 330.582 445.885 330.582 445.885L330.602 461.503C330.602 461.503 373.831 463.562 373.213 459.743C372.59 455.924 370.263 458.407 361.641 451.193C360.877 450.553 348.767 447.744 352.043 440.577C358.641 426.145 372.655 402.083 377.027 393.074Z" fill="#F7A491"/>
<path d="M329.174 462.061L376.504 462.073C378.206 461.9 378.608 460.51 378.004 459.665C376.761 457.928 367.694 453.826 361.597 451.107C350.979 452.345 332.311 448.263 330.604 445.843C326.108 451.862 328.223 461.865 329.174 462.061Z" fill="#255A7C"/>
<path d="M318.8 356.628C318.155 354.707 359.543 337.148 361.39 339.155C364.673 342.703 338.999 409.317 338.999 409.317L368.496 418.326C368.496 418.326 399.15 341.367 397.87 327.29C396.591 313.216 381.233 297.22 347.957 307.455C314.682 317.695 318.8 356.628 318.8 356.628Z" fill="#196EA8"/>
<path d="M404.485 401.828C397.494 400.559 388.445 400.198 381.192 400.072C382.051 406.523 386.193 439.611 385.434 441.646C382.365 449.881 375.552 453.736 375.552 453.736C375.552 453.736 407.685 482.724 409.622 479.376C411.565 476.029 408.193 476.477 406.093 465.432C405.909 464.45 401.259 449.032 400.976 440.718C400.426 424.861 404.244 410.637 404.485 401.828Z" fill="#F7A491"/>
<path d="M394.167 293.584C389.682 291.195 378.047 291.108 365.25 291.938C340.303 293.556 315.673 298.464 291.944 306.326L276.064 311.583L276.111 295.305C276.111 295.305 225.59 286.853 223.83 299.371C221.189 318.223 224.471 356.5 241.304 365.042C293.59 391.578 366.86 322.769 367.125 331.77C367.479 343.86 377.672 388.852 380.281 408.548C387.531 408.674 399.984 408.67 405.385 407.428C406.437 368.841 406.927 300.393 394.167 293.584Z" fill="#228DD5"/>
<path d="M374.569 454.415L410.696 483.262C412.123 484.213 413.315 483.393 413.383 482.355C413.525 480.222 409.105 471.303 406.119 465.339C397.117 459.567 385.245 444.522 385.46 441.568C381.649 444.781 373.96 453.657 374.569 454.415Z" fill="#255A7C"/>
<path d="M292.807 136.227C291.593 125.136 290.316 114.005 281.123 105.874C273.681 99.2999 264.222 98.1854 254.862 101.705C228.357 111.677 242.014 135.212 208.216 158.941C197.714 166.315 186.139 171.362 178.232 181.291C167.162 195.189 171.345 211.906 181.427 223.068C229.693 276.471 283.573 204.348 287.446 187.035C290.32 174.155 293.588 143.366 292.807 136.227Z" fill="#255A7C"/>
<path d="M283.004 198.591C279.061 191.324 275.001 185.558 275.001 185.558C270.91 178.29 260.347 174.614 260.347 174.614C260.347 174.614 256.815 174.686 252.755 174.885C252.502 175.557 252.249 176.039 251.987 176.232C250.466 177.375 241.722 175.899 236.082 179.731C217.159 195.947 222.393 274.547 223.879 299.371L281.505 299.917C281.505 299.917 274.238 246.501 285.944 232.777C294.1 223.22 288.852 209.37 283.004 198.591Z" fill="#7EC8EC"/>
<path d="M257.031 148.021C257.031 148.021 253.865 170.64 251.654 176.136C249.437 181.632 263.813 193.386 275.776 196.953C287.739 200.521 272.123 184.813 272.615 178.938C273.112 173.063 275.288 145.246 275.288 145.246L257.031 148.021Z" fill="#F7A491"/>
<path d="M274.68 153.223C275.032 148.621 275.287 145.246 275.287 145.246L257.029 148.022C257.029 148.022 256.571 150.68 256.061 154.438C263.463 158.732 270.116 157.377 274.68 153.223Z" fill="#F47458"/>
<path d="M262.758 106.708C262.758 106.708 255.563 108.331 251.118 115.11C246.678 121.89 243.628 141.85 258.264 151.161C272.896 160.482 284.273 147.301 284.465 134.451C284.652 121.596 281.897 104.444 262.758 106.708Z" fill="#F7A491"/>
<path d="M287.812 130.427C286.565 133.531 284.089 135.454 282.282 134.728C280.474 134.002 280.021 130.898 281.268 127.795C282.515 124.692 284.991 122.768 286.798 123.495C288.606 124.226 289.059 127.329 287.812 130.427Z" fill="#F7A491"/>
<path d="M264.916 106.29C264.916 106.29 255.744 126.862 247.685 128.7C239.623 130.539 239.744 140.889 239.744 140.889C239.744 140.889 239.918 116.983 247.477 111.502C255.028 106.017 264.916 106.29 264.916 106.29Z" fill="#255A7C"/>
<path d="M250.885 132.976C251.945 136.318 250.975 139.608 248.714 140.328C246.457 141.043 243.763 138.915 242.702 135.573C241.642 132.236 242.613 128.945 244.874 128.226C247.13 127.511 249.825 129.635 250.885 132.976Z" fill="#F7A491"/>
<path d="M353.952 281.505C350.494 280.255 345.35 280.098 345.434 279.642C345.784 277.796 361.057 283.721 358.993 281.026C357.845 279.525 346.414 274.209 343.631 275.085C340.936 275.938 323.238 280.903 323.238 280.903L274.856 269.568C274.856 269.568 262.648 241.825 261.455 217.989C251.36 219.353 244.487 221.848 235.717 226.714C239.945 249.511 250.232 286.459 261.598 293.394C266.377 296.309 323.475 289.901 323.475 289.901C323.475 289.901 336.058 289.014 338.113 288.223C339.674 287.623 343.69 285.363 345.872 284.742C350.839 283.34 359.682 286.868 359.707 285.893C359.727 285.187 357.485 282.782 353.952 281.505Z" fill="#F7A491"/>
<path d="M261.754 192.52C261.287 185.185 258.505 178.102 250.701 175.822C245.864 174.408 240.44 175.762 236.572 178.919C231.974 182.674 230.689 188.7 230.71 194.401C230.758 207.349 231.645 220.773 234.007 233.522C242.78 228.654 253.02 225.727 263.116 224.362C263.112 224.286 262.364 202.213 261.754 192.52Z" fill="#96D9F9"/>
<path d="M112.314 205.953L37.2685 191.981C35.7626 191.698 34.7678 190.252 35.0469 188.742L44.4483 138.268C44.7314 136.762 46.1784 135.768 47.6883 136.047L122.73 150.019C124.24 150.298 125.235 151.748 124.952 153.254L115.55 203.732C115.271 205.238 113.82 206.232 112.314 205.953Z" fill="#F7CC7F"/>
<path d="M76.2584 148.952L53.2816 144.573C51.767 144.282 50.7664 142.793 51.0472 141.239L52.4867 133.336C52.7715 131.782 54.2268 130.758 55.7454 131.05L78.7183 135.428C80.2369 135.715 81.2334 137.208 80.9527 138.758L79.5131 146.665C79.2323 148.215 77.7731 149.239 76.2584 148.952Z" fill="#F7CC7F"/>
<path d="M115.487 204.006C115.096 205.367 113.707 206.213 112.286 205.953L36.282 192.078C34.8695 191.818 33.8843 190.549 34.0109 189.145L37.9872 144.501C38.0584 143.733 38.4541 143.027 39.0792 142.557C39.7083 142.092 40.5075 141.906 41.283 142.045L125.719 157.461C126.49 157.604 127.167 158.054 127.578 158.71C127.994 159.365 128.108 160.157 127.895 160.898L115.487 204.006Z" fill="#FAE0B2"/>
<path d="M459.286 39.1985L446.441 42.7036L443.676 27.1463L447.878 26.4L449.825 37.3575L458.163 35.0853L459.286 39.1985Z" fill="#228DD5"/>
<path d="M208.829 51.3963L128.227 80.1424C125.632 81.0702 122.776 79.7126 121.848 77.118L106.972 35.4187C106.044 32.82 107.402 29.9643 109.997 29.0365L190.599 0.29039C193.198 -0.633408 196.054 0.720169 196.982 3.31884L211.854 45.0141C212.782 47.6128 211.432 50.4685 208.829 51.3963Z" fill="#228DD5"/>
<path d="M155.066 40.6262C158.033 48.9453 153.697 58.0988 145.373 61.066C137.054 64.0332 127.905 59.6965 124.934 51.3734C121.966 43.0542 126.307 33.9047 134.626 30.9336C142.945 27.9664 152.099 32.307 155.066 40.6262Z" fill="white"/>
<path d="M142.736 38.3192C143.573 40.9218 142.35 43.7787 140.012 44.7088C137.67 45.6347 135.099 44.2792 134.262 41.6808C133.429 39.0782 134.649 36.2171 136.99 35.2912C139.329 34.3653 141.903 35.7208 142.736 38.3192Z" fill="#2F75A2"/>
<path d="M150 51.6267L135.891 57L135.323 55.3091C134.295 52.2279 135.801 48.8336 138.691 47.7356L142.337 46.3453C145.228 45.2472 148.404 46.8546 149.437 49.94L150 51.6267Z" fill="#2F75A2"/>
<path d="M157.072 32C156.2 32 155.416 31.446 155.121 30.6191C154.737 29.5393 155.3 28.3471 156.376 27.9617L192.232 15.1244C192.456 15.0441 192.692 15 192.928 15C193.803 15 194.587 15.558 194.879 16.3849C195.263 17.4647 194.703 18.6569 193.623 19.0423L157.772 31.8796C157.544 31.9599 157.312 32 157.072 32Z" fill="white"/>
<path d="M167.002 41C166.157 41 165.401 40.4495 165.116 39.6337C164.746 38.5683 165.29 37.3921 166.331 37.0119L193.329 27.1188C193.544 27.0396 193.772 27 193.999 27C194.844 27 195.6 27.5466 195.881 28.3624C196.062 28.8772 196.035 29.4356 195.808 29.9307C195.576 30.4257 195.175 30.802 194.67 30.9842L167.673 40.8772C167.457 40.9565 167.229 41 167.002 41Z" fill="white"/>
<path d="M334.064 365.909H139.447C133.4 365.909 128.506 370.808 128.506 376.851V386.053C128.506 392.096 133.4 396.996 139.447 396.996H334.064L333.964 396.89C325.637 388.226 325.68 374.522 334.064 365.909Z" fill="#255A7C"/>
<path d="M330.619 370.511H226.577C220.534 370.511 215.633 375.411 215.633 381.454C215.633 387.496 220.534 392.396 226.577 392.396H330.614C326.793 385.618 326.793 377.281 330.619 370.511Z" fill="#FAE0B2"/>
<path d="M493.351 366.805L478.595 329.8C477.856 327.938 478.766 325.828 480.624 325.085L533.708 303.931C535.572 303.189 537.68 304.096 538.425 305.958L553.175 342.962C553.921 344.825 553.01 346.935 551.153 347.677L498.068 368.832C496.205 369.574 494.091 368.667 493.351 366.805Z" fill="#FAE0B2"/>
<path d="M537.11 341.025L526.225 313.726C526.015 313.192 526.274 312.587 526.809 312.375C527.345 312.158 527.947 312.421 528.164 312.956L539.048 340.255C539.259 340.79 539 341.395 538.464 341.611C537.929 341.823 537.327 341.564 537.11 341.025Z" fill="white"/>
<path d="M535.538 348.551L522.278 315.3C522.068 314.765 522.327 314.16 522.861 313.947C523.396 313.732 524.003 313.995 524.214 314.529L537.473 347.781C537.683 348.315 537.425 348.92 536.89 349.133C536.355 349.345 535.748 349.086 535.538 348.551Z" fill="white"/>
<path d="M528.572 342.534L518.343 316.87C518.129 316.335 518.391 315.73 518.922 315.518C519.459 315.302 520.062 315.565 520.277 316.1L530.506 341.764C530.721 342.299 530.464 342.904 529.927 343.116C529.39 343.328 528.787 343.068 528.572 342.534Z" fill="white"/>
<path d="M356.101 12.4412C359.138 14.8628 364.414 22.6483 371.139 28.1164C375.076 31.314 378.113 30.5016 383.139 31.1057C406.984 33.9908 400.526 38.8652 403.385 39.3391C402.573 41.2086 395.14 56.9985 393.755 60.1908C392.473 63.1331 390.26 64.4507 387.051 64.008C382.118 63.3258 377.144 62.8207 372.29 61.7687C359.841 59.0711 352.919 52.8479 343.996 45.2863C341.632 43.2813 341.048 40.7816 342.278 37.9486C347.986 24.7575 355.487 13.6546 356.101 12.4412Z" fill="#228DD5"/>
<path d="M405.967 58.3386C405.862 63.5305 406.257 64.5741 404.022 63.7888C402.683 63.3144 401.381 62.6924 400.11 62.0388C399.219 61.5802 399.182 60.9688 399.91 60.2361C400.969 59.1767 402.055 58.1383 403.115 57.1105C402.34 55.0706 403.226 52.6988 405.134 51.5813C405.519 51.3547 405.24 51.8396 408.561 44.1967C397.574 42.8421 389.825 41.9355 376.429 40.2857C372.849 39.8482 369.66 38.4514 366.892 36.1375C357.318 28.1309 347.75 20.1243 338.187 12.1125C336.89 11.0214 336.726 9.42962 337.754 8.20677C338.545 7.26854 339.589 7.2211 340.712 7.36342C343.77 7.7482 373.751 11.4695 376.793 11.8279C380.794 12.2918 384.316 13.7992 387.41 16.3873C396.81 24.262 406.236 32.1052 415.646 39.9589C416.943 41.0394 417.291 42.0251 416.838 43.2269C416.337 44.5446 415.246 45.1718 413.606 44.8187C412.415 44.5604 411.893 44.9189 411.482 46.0205C409.636 50.9857 408.345 52.0873 408.793 53.9005C409.136 55.3026 407.47 57.7272 405.967 58.3386Z" fill="#96D9F9"/>
<path d="M455.703 411.299L461.166 416.508C474.089 428.834 484.63 443.434 492.254 459.579L493.094 461.351C493.094 461.351 507.4 462.616 509.397 449.681C496.847 435.513 486.516 420.382 477.988 403.554L475.402 397.507L455.703 411.299Z" fill="#7EC8EC"/>
<path d="M475.384 397.492C476.088 398.497 472.252 402.387 466.811 406.175C461.381 409.967 456.374 412.269 455.675 411.263C454.971 410.257 458.835 406.32 464.271 402.533C469.706 398.741 474.685 396.482 475.384 397.492Z" fill="#4987A5"/>
<path d="M475.406 397.526L475.395 397.507C475.395 397.507 464.497 406.725 460.014 407.663L461.399 409.55C463.038 408.666 464.903 407.514 466.812 406.175C472.19 402.43 475.998 398.587 475.406 397.526Z" fill="#61A4C5"/>
<path d="M489.961 424.287C489.984 425.874 489.371 432.735 477.963 435.595C478.709 436.617 479.449 437.65 480.171 438.691C487.398 436.554 490.644 432.849 492.106 430.023C492.336 429.58 492.617 428.979 492.8 428.515C491.837 427.116 490.89 425.71 489.961 424.287Z" fill="#B75742"/>
<path d="M478.986 433.568L462.186 432.967L466.167 436.346L463.792 440.66L479.687 436.61L478.986 433.568Z" fill="#B75742"/>
<path d="M480.515 437.474L474.55 447.866L478.744 446.271L480.362 449.571L483.166 438.641L480.515 437.474Z" fill="#B75742"/>
<path d="M482.795 440.29C479.851 440.498 477.283 438.204 477.067 435.166C476.85 432.129 479.069 429.497 482.019 429.289C484.963 429.08 487.53 431.375 487.747 434.412C487.964 437.449 485.75 440.082 482.795 440.29Z" fill="#F47458"/>
<path d="M518.445 204.48L483.075 172.925C480.779 170.874 481.734 166.655 484.906 164.86L513.131 148.88C514.943 147.857 516.976 147.952 518.286 149.12L553.656 180.675C555.952 182.726 554.997 186.945 551.825 188.74L523.6 204.72C521.788 205.743 519.756 205.648 518.445 204.48Z" fill="#228DD5"/>
<path d="M516.766 179.378L513.82 155.134C513.705 154.206 514.385 153.213 515.327 152.918C516.274 152.622 517.137 153.137 517.252 154.065L519.961 176.374L546.785 182.858C547.653 183.069 548.06 184.012 547.684 184.964C547.307 185.915 546.287 186.515 545.412 186.303L516.766 179.378Z" fill="white"/>
<path d="M55.2245 68L58.893 75.3907L67.1846 75.1177L70.723 83.6927L79.4642 80.6336L83.8861 90.152L92.2763 88.3415L98 96.7961L94.8561 99L90.5762 92.6812L81.7205 94.5921L77.4722 85.439L68.585 88.5502L64.6798 79.088L56.5854 79.353L53.1812 72.5042L47.9033 73.813L47 70.0353L55.2245 68Z" fill="#F7CC7F"/>
<path d="M497.232 253.302L504.738 256.35L510.793 250.724L518.967 254.739L523.565 246.76L533.008 250.893L538.146 244.068L547.881 246.559L546.94 250.241L539.658 248.382L534.235 255.584L525.162 251.612L520.486 259.726L511.461 255.293L505.552 260.786L498.598 257.961L495.471 262.382L492.367 260.185L497.232 253.302Z" fill="#7EC8EC"/>
</svg>
