<svg width="1437" height="379" viewBox="0 0 1437 379" fill="none" xmlns="http://www.w3.org/2000/svg">
<rect y="-8" width="1440" height="393" fill="#0E269D"/>
<g filter="url(#filter0_ddd)">
<path d="M1377.11 86.4034C1374.1 40.8501 1420.69 12.4872 1444.35 4V385H1139.64C1142.31 366.019 1163.81 321.392 1228.52 294.727C1309.4 261.395 1276.01 219.267 1286.83 167.418C1297.64 115.569 1380.87 143.345 1377.11 86.4034Z" fill="#1732B9"/>
</g>
<ellipse rx="2.82139" ry="2.77764" transform="matrix(-1 0 0 1 1417.08 99.3657)" fill="#FFE47E"/>
<ellipse rx="2.82139" ry="2.77764" transform="matrix(-1 0 0 1 1411.44 335.466)" fill="#08CDFF"/>
<ellipse rx="2.82139" ry="2.77764" transform="matrix(-1 0 0 1 1272.25 303.06)" fill="#FFE47E"/>
<ellipse rx="2.82139" ry="2.77764" transform="matrix(-1 0 0 1 1172.56 358.612)" fill="white"/>
<ellipse rx="1.41069" ry="1.38882" transform="matrix(-1 0 0 1 1371.47 183.158)" fill="white"/>
<ellipse rx="1.41069" ry="1.38882" transform="matrix(-1 0 0 1 1300.93 209.083)" fill="#FFE47E"/>
<ellipse rx="1.41069" ry="1.38882" transform="matrix(-1 0 0 1 1425.08 200.75)" fill="#08CDFF"/>
<ellipse rx="1.41069" ry="1.38882" transform="matrix(-1 0 0 1 1425.08 54.4605)" fill="white"/>
<ellipse rx="2.82139" ry="2.77764" transform="matrix(-1 0 0 1 1439.65 135.475)" fill="#FFE47E"/>
<ellipse rx="0.940462" ry="0.925881" transform="matrix(-1 0 0 1 1371 129.92)" fill="#08CDFF"/>
<path d="M1324.14 282.271C1324.14 282.271 1404.46 229.759 1409.96 227.312C1411.45 226.647 1413.02 226.332 1414.56 226.332C1418.71 226.332 1422.67 228.597 1424.53 232.447C1425.6 234.675 1425.8 237.077 1425.25 239.294C1424.86 239.436 1424.58 239.799 1424.58 240.224C1424.58 240.432 1424.65 240.624 1424.76 240.783C1423.76 243.202 1421.83 245.27 1419.18 246.45C1413.68 248.899 1324.14 282.271 1324.14 282.271" fill="#203FD6"/>
<ellipse rx="7.99392" ry="7.86999" transform="matrix(-1 0 0 1 1414.73 240.562)" fill="#08CDFF"/>
<path d="M1253.44 364.113C1253.44 364.113 1292.92 338.302 1295.62 337.099C1296.36 336.772 1297.13 336.617 1297.89 336.617C1299.92 336.617 1301.87 337.731 1302.78 339.623C1303.31 340.718 1303.41 341.899 1303.14 342.988C1302.95 343.059 1302.81 343.237 1302.81 343.446C1302.81 343.548 1302.85 343.642 1302.9 343.721C1302.41 344.909 1301.46 345.926 1300.16 346.506C1297.46 347.709 1253.44 364.113 1253.44 364.113" fill="#203FD6"/>
<ellipse rx="3.86119" ry="3.80133" transform="matrix(-1 0 0 1 1297.32 347.13)" fill="#08CDFF"/>
<path d="M260.452 -0.643345C306.005 2.36613 334.368 -44.2181 342.855 -67.8864L-38.1445 -67.8864L-38.1445 236.823C-19.164 234.159 25.4635 212.653 52.1289 147.95C85.4606 67.0699 127.588 100.456 179.437 89.641C231.287 78.8257 203.51 -4.4052 260.452 -0.643345Z" fill="#1732B9"/>
<ellipse cx="67.778" cy="24.8213" rx="2.82139" ry="2.77764" transform="rotate(90 67.778 24.8213)" fill="#FFE47E"/>
<ellipse cx="29.778" cy="127.821" rx="2.82139" ry="2.77764" transform="rotate(90 29.778 127.821)" fill="#FFE47E"/>
<ellipse cx="163.697" cy="4.99895" rx="1.41069" ry="1.38882" transform="rotate(90 163.697 4.99895)" fill="white"/>
<ellipse cx="137.773" cy="75.5341" rx="1.41069" ry="1.38882" transform="rotate(90 137.773 75.5341)" fill="#FFE47E"/>
<ellipse cx="216.935" cy="5.46915" rx="0.940462" ry="0.925881" transform="rotate(90 216.935 5.46915)" fill="#08CDFF"/>
<path d="M2.1582 78.8228C2.1582 78.8228 44.9585 60.2597 47.4123 58.6765C48.0786 58.247 48.6194 57.6911 49.0232 57.0594C50.1065 55.365 50.2031 53.1266 49.0902 51.3198C48.4463 50.2746 47.5006 49.5401 46.4382 49.1597C46.2768 49.2806 46.054 49.2949 45.8775 49.1792C45.7914 49.1227 45.7289 49.0436 45.6921 48.954C44.4267 48.7052 43.064 48.9314 41.8807 49.6945C39.4264 51.2774 2.1582 78.8228 2.1582 78.8228" fill="#203FD6"/>
<ellipse cx="43.0875" cy="56.0129" rx="3.86119" ry="3.80133" transform="rotate(122.925 43.0875 56.0129)" fill="#08CDFF"/>
<ellipse cx="170.954" cy="43.9933" rx="8.72562" ry="8.59034" transform="rotate(122.925 170.954 43.9933)" fill="#08CDFF"/>
<defs>
<filter id="filter0_ddd" x="1119.64" y="-6" width="344.71" height="421" filterUnits="userSpaceOnUse" color-interpolation-filters="sRGB">
<feFlood flood-opacity="0" result="BackgroundImageFix"/>
<feColorMatrix in="SourceAlpha" type="matrix" values="0 0 0 0 0 0 0 0 0 0 0 0 0 0 0 0 0 0 127 0"/>
<feOffset/>
<feGaussianBlur stdDeviation="0.5"/>
<feColorMatrix type="matrix" values="0 0 0 0 0 0 0 0 0 0 0 0 0 0 0 0 0 0 0.04 0"/>
<feBlend mode="normal" in2="BackgroundImageFix" result="effect1_dropShadow"/>
<feColorMatrix in="SourceAlpha" type="matrix" values="0 0 0 0 0 0 0 0 0 0 0 0 0 0 0 0 0 0 127 0"/>
<feOffset dy="2"/>
<feGaussianBlur stdDeviation="3"/>
<feColorMatrix type="matrix" values="0 0 0 0 0 0 0 0 0 0 0 0 0 0 0 0 0 0 0.04 0"/>
<feBlend mode="normal" in2="effect1_dropShadow" result="effect2_dropShadow"/>
<feColorMatrix in="SourceAlpha" type="matrix" values="0 0 0 0 0 0 0 0 0 0 0 0 0 0 0 0 0 0 127 0"/>
<feOffset dy="10"/>
<feGaussianBlur stdDeviation="10"/>
<feColorMatrix type="matrix" values="0 0 0 0 0 0 0 0 0 0 0 0 0 0 0 0 0 0 0.04 0"/>
<feBlend mode="normal" in2="effect2_dropShadow" result="effect3_dropShadow"/>
<feBlend mode="normal" in="SourceGraphic" in2="effect3_dropShadow" result="shape"/>
</filter>
</defs>
</svg>
