<svg width="329" height="405" viewBox="0 0 329 405" fill="none" xmlns="http://www.w3.org/2000/svg">
<path d="M170.772 357.5L137.272 323.5L144.772 314.5L169.272 328L180.272 347.5L170.772 357.5Z" stroke="black"/>
<path d="M328.771 365.871L66.8069 393.292L18.9609 272.328L301.758 219.966L328.771 365.871Z" fill="#56B5F4"/>
<path d="M282.797 213.199L0 265.558L47.8524 386.521L309.813 359.101L282.797 213.199ZM277.652 220.686L302.233 353.438L52.0344 379.625L8.84586 270.456L277.652 220.686Z" fill="#255A7C"/>
<path d="M272.38 249.408C270.37 253.998 267.366 258.446 263.239 262.651C226.764 299.778 146.595 209.194 215.673 181.182C225.993 177 238.237 179.964 249.003 187.195C268.195 200.01 282.578 226.333 272.38 249.408Z" fill="#474646"/>
<path d="M213.557 215.19C213.557 215.19 223.482 255.542 258.072 252.979" stroke="#363636" stroke-width="1.33333" stroke-miterlimit="10" stroke-linecap="round" stroke-linejoin="round"/>
<path d="M225.406 207.822C225.406 207.822 250.386 219.032 262.874 240.491" stroke="#363636" stroke-width="1.33333" stroke-miterlimit="10" stroke-linecap="round" stroke-linejoin="round"/>
<path d="M240.011 183.192C240.011 187.358 236.635 190.734 232.469 190.734C228.304 190.734 224.928 187.358 224.928 183.192C224.928 179.026 228.304 175.65 232.469 175.65C236.635 175.65 240.011 179.026 240.011 183.192Z" fill="#228DD5"/>
<path d="M235.877 180.992C235.877 182.8 234.413 184.268 232.601 184.268C230.793 184.268 229.328 182.8 229.328 180.992C229.328 179.183 230.793 177.716 232.601 177.716C234.413 177.716 235.877 179.183 235.877 180.992Z" fill="#5CBEFF"/>
<path d="M232.6 193.513C232.6 197.679 229.224 201.058 225.059 201.058C220.893 201.058 217.514 197.679 217.514 193.513C217.514 189.35 220.893 185.971 225.059 185.971C229.224 185.971 232.6 189.35 232.6 193.513Z" fill="#228DD5"/>
<path d="M228.201 192.237C228.201 194.045 226.736 195.513 224.928 195.513C223.116 195.513 221.651 194.045 221.651 192.237C221.651 190.429 223.116 188.964 224.928 188.964C226.736 188.964 228.201 190.429 228.201 192.237Z" fill="#5CBEFF"/>
<path d="M222.014 201.719C222.014 205.885 218.638 209.264 214.472 209.264C210.307 209.264 206.928 205.885 206.928 201.719C206.928 197.553 210.307 194.177 214.472 194.177C218.638 194.177 222.014 197.553 222.014 201.719Z" fill="#228DD5"/>
<path d="M217.744 201.057C217.744 202.865 216.28 204.33 214.471 204.33C212.66 204.33 211.195 202.865 211.195 201.057C211.195 199.249 212.66 197.781 214.471 197.781C216.28 197.781 217.744 199.249 217.744 201.057Z" fill="#5CBEFF"/>
<path d="M209.573 206.749C209.573 210.915 206.197 214.291 202.031 214.291C197.865 214.291 194.486 210.915 194.486 206.749C194.486 202.58 197.865 199.204 202.031 199.204C206.197 199.204 209.573 202.58 209.573 206.749Z" fill="#F1446E"/>
<path d="M207.852 202.024C207.852 202.024 161.586 230.701 78.1676 214.41C12.4821 201.597 6.18656 120.88 30.662 64.2521C37.2852 48.9373 46.1182 35.3924 56.66 25.4191C106.199 -21.4986 151.167 12.3784 151.167 12.3784C171.091 -1.26944 223.777 -10.9568 243.785 42.7639C246.688 50.5851 248.905 59.7233 250.225 70.3871C260.641 154.455 207.852 202.024 207.852 202.024Z" fill="#474646"/>
<path d="M87.3857 404.236C102.701 357.601 145.173 314.441 145.173 314.441L139.992 280.583L134.731 246.238L205.738 184.268L213.254 255.864L218.249 303.312C270.467 352.038 289.257 404.236 289.257 404.236H87.3857Z" fill="#F7A491"/>
<path d="M213.254 255.864C191.499 283.689 156.707 282.328 139.992 280.583L134.73 246.238L205.738 184.268L213.254 255.864Z" fill="#EA8771"/>
<path d="M289.26 404.238H87.3887C102.703 357.603 145.176 314.444 145.176 314.444C145.176 314.444 152.83 331.159 179.984 328.374C191.628 327.176 200.319 322.406 206.454 317.306C214.619 310.583 218.255 303.311 218.255 303.311C270.47 352.037 289.26 404.238 289.26 404.238Z" fill="white"/>
<path d="M168.813 246.237C159.733 252.655 150.023 257.325 140.297 259.885C106.623 268.782 72.4982 252.411 62.3451 195.032C49.2401 121.04 70.9114 39.5549 143.747 41.8483C159.042 42.3365 171.839 46.7819 182.32 53.646C208.925 71.055 220.729 103.978 221.053 127.255C221.477 159.69 209.252 217.638 168.813 246.237Z" fill="#F7A491"/>
<path d="M168.813 246.237C159.733 252.655 150.023 257.325 140.297 259.885C203.136 230.068 193.022 115.699 182.319 53.646C208.924 71.0551 220.729 103.978 221.053 127.255C221.477 159.69 209.252 217.638 168.813 246.237Z" fill="#EA8771"/>
<path d="M108.614 159.478C108.614 159.478 103.125 177.327 104.153 180.414C105.18 183.504 119.255 182.817 119.255 182.817" stroke="#321D4B" stroke-width="1.33333" stroke-miterlimit="10" stroke-linecap="round" stroke-linejoin="round"/>
<path d="M88.8955 192.086C88.8955 192.086 96.5818 210.173 119.737 205.214C141.174 200.621 153.64 174.591 153.64 174.591" stroke="#474646" stroke-width="1.33333" stroke-miterlimit="10" stroke-linecap="round" stroke-linejoin="round"/>
<path d="M96.7841 144.937C96.7841 149.337 94.6192 152.909 91.9436 152.909C89.2713 152.909 87.1064 149.337 87.1064 144.937C87.1064 140.533 89.2713 136.968 91.9436 136.968C94.6192 136.968 96.7841 140.533 96.7841 144.937Z" fill="#474646"/>
<path d="M142.912 139.956C142.912 144.751 140.548 148.638 137.638 148.638C134.728 148.638 132.367 144.751 132.367 139.956C132.367 135.16 134.728 131.274 137.638 131.274C140.548 131.274 142.912 135.16 142.912 139.956Z" fill="#474646"/>
<path d="M79.9922 115.332C79.9922 115.332 84.8294 106.223 96.2159 111.632" stroke="#474646" stroke-width="1.33333" stroke-miterlimit="10" stroke-linecap="round" stroke-linejoin="round"/>
<path d="M132.936 105.369C132.936 105.369 139.199 95.4082 153.149 103.663" stroke="#474646" stroke-width="1.33333" stroke-miterlimit="10" stroke-linecap="round" stroke-linejoin="round"/>
<path d="M51.4475 183.783C51.4475 183.783 44.2782 120.571 85.9893 97.1074C127.694 73.647 136.819 57.3525 136.819 57.3525C136.819 57.3525 125.741 149.245 197.426 157.715L195.473 171.401L211.765 165.536C211.765 165.536 239.789 129.693 237.833 80.1641C235.88 30.6351 136.167 4.56644 92.5032 35.8481C48.8393 67.1298 27.9838 134.254 51.4475 183.783Z" fill="#474646"/>
<path d="M34.1271 148.638C33.0735 142.339 32.5147 135.135 32.7106 126.912C33.6646 86.8004 58.4741 22.692 106.51 12.6224" stroke="#363636" stroke-width="1.33333" stroke-miterlimit="10" stroke-linecap="round" stroke-linejoin="round"/>
<path d="M55.0117 187.708C55.0117 187.708 45.7837 182.235 39.1895 166.554" stroke="#363636" stroke-width="1.33333" stroke-miterlimit="10" stroke-linecap="round" stroke-linejoin="round"/>
<path d="M49.7998 114.08C51.4604 96.9018 56.5643 76.8654 69.1713 58.5699C99.5118 14.5173 132.936 22.6467 132.936 22.6467" stroke="#363636" stroke-width="1.33333" stroke-miterlimit="10" stroke-linecap="round" stroke-linejoin="round"/>
<path d="M51.9485 156.767C51.9485 156.767 50.3747 150.272 49.5781 139.956" stroke="#363636" stroke-width="1.33333" stroke-miterlimit="10" stroke-linecap="round" stroke-linejoin="round"/>
<path d="M66.7744 100.39C66.7744 100.39 81.7744 45.9917 128.236 39.6705" stroke="#363636" stroke-width="1.33333" stroke-miterlimit="10" stroke-linecap="round" stroke-linejoin="round"/>
<path d="M185.817 132.111C190.077 135.259 194.895 137.928 200.345 139.955" stroke="#363636" stroke-width="1.33333" stroke-miterlimit="10" stroke-linecap="round" stroke-linejoin="round"/>
<path d="M153.64 48.221C153.64 48.221 151.315 97.188 177.99 125.187" stroke="#363636" stroke-width="1.33333" stroke-miterlimit="10" stroke-linecap="round" stroke-linejoin="round"/>
<path d="M198.049 114.173C201.903 120.867 205.806 126.796 209.573 131.273" stroke="#363636" stroke-width="1.33333" stroke-miterlimit="10" stroke-linecap="round" stroke-linejoin="round"/>
<path d="M164.664 39.6705C164.664 39.6705 177.435 74.8483 192.258 103.535" stroke="#363636" stroke-width="1.33333" stroke-miterlimit="10" stroke-linecap="round" stroke-linejoin="round"/>
<path d="M166.52 25.9199C166.52 25.9199 231.938 31.4928 227.48 122.184" stroke="#363636" stroke-width="1.33333" stroke-miterlimit="10" stroke-linecap="round" stroke-linejoin="round"/>
<path d="M241.864 72.8146C242.776 77.9024 243.444 83.424 243.833 89.4111" stroke="#363636" stroke-width="1.33333" stroke-miterlimit="10" stroke-linecap="round" stroke-linejoin="round"/>
<path d="M173.991 14.0259C173.991 14.0259 220.7 6.09543 237.932 57.2305" stroke="#363636" stroke-width="1.33333" stroke-miterlimit="10" stroke-linecap="round" stroke-linejoin="round"/>
<path d="M206.545 155.518C206.545 155.518 218.741 133.191 234.813 142.557C250.883 151.92 222.12 198.263 198.049 188.682L206.545 155.518Z" fill="#EA8771"/>
<path d="M231.573 151.936C231.573 151.936 220.389 148.669 210.509 172.942" stroke="#321D4B" stroke-width="1.33333" stroke-miterlimit="10" stroke-linecap="round" stroke-linejoin="round"/>
<path d="M219.168 157.988C219.168 157.988 222.316 160.024 220.273 172.095" stroke="#321D4B" stroke-width="1.33333" stroke-miterlimit="10" stroke-linecap="round" stroke-linejoin="round"/>
<path d="M202.372 206.251C194.39 221.691 183.45 235.885 168.813 246.237C159.733 252.655 150.023 257.325 140.297 259.885" stroke="#474646" stroke-width="1.33333" stroke-miterlimit="10" stroke-linecap="round" stroke-linejoin="round"/>
<path d="M173.272 388L135.772 338H147.772L179.272 388H173.272Z" fill="#68BAEA"/>
<path d="M180.272 388L217.772 338H205.772L174.272 388H180.272Z" fill="#68BAEA"/>
<path d="M123.272 336.5L144.272 314.5L165.272 328L175.772 374.5L139.272 353.5L148.772 340L123.272 336.5Z" fill="#E3E3E3"/>
<path d="M228.772 336L207.772 314L186.772 327.5L176.272 374L212.772 353L203.272 339.5L228.772 336Z" fill="#E3E3E3"/>
</svg>
