<svg width="378" height="422" viewBox="0 0 378 422" fill="none" xmlns="http://www.w3.org/2000/svg">
<path d="M7.56102 302.444L0 421.442L366.39 400.988L315.197 227.727L7.56102 302.444Z" fill="#56B5F4"/>
<path d="M326.031 208.773L18.3921 283.487L10.8311 402.485L377.224 382.031L326.031 208.773ZM321.605 216.459L368.763 376.07L17.7015 395.666L24.5045 288.613L321.605 216.459Z" fill="#255A7C"/>
<path d="M326.311 420.707H36.5566C52.2762 365.197 96.6981 310.644 146.722 288.302C160.472 282.148 174.669 278.447 188.786 277.82C310.306 272.479 326.311 420.707 326.311 420.707Z" fill="white"/>
<path d="M222.521 420.707C232.349 292.484 166.282 287.141 146.721 288.302C160.471 282.148 174.668 278.447 188.785 277.82C310.305 272.479 326.31 420.707 326.31 420.707H222.521Z" fill="#F0F0F0"/>
<path d="M225.509 285.841C198.798 338.569 156.065 361.274 156.065 361.274L146.294 339.96C140.426 327.159 137.545 313.201 137.866 299.126L138.72 245.768L220.838 178.336L222.094 207.462L225.509 285.841Z" fill="#F7A491"/>
<path d="M222.094 207.462C207.717 271.907 156.286 293.398 137.865 299.126L138.72 245.768L220.838 178.336L222.094 207.462Z" fill="#EA8771"/>
<path d="M245.635 110.315C245.635 116.896 245.127 123.516 244.192 130.159C236.008 187.6 194.413 244.59 154.947 255.803C150.376 257.103 145.828 257.794 141.38 257.794C93.9737 257.794 58.5935 219.728 55.9308 146.309C55.404 131.784 55.6481 117.911 56.9682 104.913C62.3291 52.2261 85.1792 14.3694 143.978 9.14993C163.417 7.41867 182.326 7.82657 198.454 13.7784C226.115 23.9765 245.635 50.4402 245.635 110.315Z" fill="#F7A491"/>
<path d="M245.635 110.315C245.635 116.897 245.127 123.517 244.193 130.159C236.009 187.6 194.413 244.59 154.947 255.803C171.178 240.283 187.629 217.943 193.257 188.389C203.818 133.002 199.816 39.5935 198.454 13.7787C226.116 23.9768 245.635 50.4405 245.635 110.315Z" fill="#EA8771"/>
<path d="M212.868 208.097C192.524 237.414 165.707 257.794 141.379 257.794" stroke="black" stroke-width="1.33333" stroke-miterlimit="10" stroke-linecap="round" stroke-linejoin="round"/>
<path d="M245.634 110.315C245.634 116.896 245.127 123.516 244.192 130.159L230.971 124.981C230.971 124.981 193.07 109.078 177.209 57.5482C173.287 44.8351 113.676 44.3469 77.9871 65.347C77.9871 65.347 69.4175 91.1008 56.9678 104.912C62.3286 52.226 85.1787 14.3693 143.978 9.14983C196.728 4.47315 245.634 15.5032 245.634 110.315Z" fill="#474646"/>
<path d="M110.252 65.8483C62.8464 76.5989 53.5606 59.4917 65.2908 36.0345C77.021 12.574 117.585 -8.92707 150.817 3.7796C150.817 3.7796 228.113 2.62969 237.319 39.4553C240.743 53.1384 204.576 55.0945 167.436 58.027C130.292 60.9564 110.252 65.8483 110.252 65.8483Z" fill="black"/>
<path d="M89.1489 65.3984C89.1489 65.3984 63.3951 54.8823 74.2773 29.1252" stroke="#474646" stroke-width="1.33333" stroke-miterlimit="10" stroke-linecap="round" stroke-linejoin="round"/>
<path d="M94.9569 62.1387C94.9569 62.1387 73.189 44.3602 94.5939 16.4286" stroke="#474646" stroke-width="1.33333" stroke-miterlimit="10" stroke-linecap="round" stroke-linejoin="round"/>
<path d="M104.75 60.6836C104.75 60.6836 98.8688 37.3934 115.716 19.0432" stroke="#474646" stroke-width="1.33333" stroke-miterlimit="10" stroke-linecap="round" stroke-linejoin="round"/>
<path d="M116.721 59.5977C116.721 59.5977 117.81 21.5067 167.509 7.36109" stroke="#474646" stroke-width="1.33333" stroke-miterlimit="10" stroke-linecap="round" stroke-linejoin="round"/>
<path d="M131.232 58.1426C131.232 58.1426 142.609 34.634 172.959 22.2229" stroke="#474646" stroke-width="1.33333" stroke-miterlimit="10" stroke-linecap="round" stroke-linejoin="round"/>
<path d="M151.546 54.5195C151.546 54.5195 182.381 43.634 213.939 28.3994" stroke="#474646" stroke-width="1.33333" stroke-miterlimit="10" stroke-linecap="round" stroke-linejoin="round"/>
<path d="M116.516 131.598C116.516 131.598 103.546 156.321 103.951 162.806C104.355 169.291 122.596 166.86 122.596 166.86" stroke="black" stroke-width="1.33333" stroke-miterlimit="10" stroke-linecap="round" stroke-linejoin="round"/>
<path d="M162.72 126.732C162.72 132.552 159.727 137.271 156.033 137.271C152.339 137.271 149.346 132.552 149.346 126.732C149.346 120.912 152.339 116.196 156.033 116.196C159.727 116.196 162.72 120.912 162.72 126.732Z" fill="black"/>
<path d="M153.293 96.1054C131.493 96.9629 133.32 105.041 153.819 104.251C174.318 103.464 173.268 95.3184 153.293 96.1054Z" fill="black"/>
<path d="M88.4943 135.436C90.02 141.054 94.1442 144.825 97.7063 143.858C101.272 142.891 102.929 137.553 101.403 131.935C99.8808 126.321 95.7598 122.55 92.1945 123.517C88.6292 124.483 86.9718 129.818 88.4943 135.436Z" fill="black"/>
<path d="M89.5788 103.406C110.849 98.5365 111.196 106.807 91.2041 111.407C71.2126 116.01 70.0948 107.874 89.5788 103.406Z" fill="black"/>
<path d="M85.3008 184.991C85.3008 184.991 105.996 194.777 135.826 188.543C169.847 181.431 183.556 161.123 183.556 161.123" stroke="black" stroke-width="1.33333" stroke-miterlimit="10" stroke-linecap="round" stroke-linejoin="round"/>
<path d="M223.286 124.294C223.286 124.294 234.136 101.53 258.13 109.368C282.123 117.202 254.956 164.733 220.135 157.335L223.286 124.294Z" fill="#EA8771"/>
<path d="M250.712 123.163C250.712 123.163 239.528 119.897 229.651 144.169" stroke="black" stroke-width="1.33333" stroke-miterlimit="10" stroke-linecap="round" stroke-linejoin="round"/>
<path d="M238.308 129.214C238.308 129.214 241.452 131.251 239.413 143.318" stroke="black" stroke-width="1.33333" stroke-miterlimit="10" stroke-linecap="round" stroke-linejoin="round"/>
</svg>
