<svg width="367" height="427" viewBox="0 0 367 427" fill="none" xmlns="http://www.w3.org/2000/svg">
<path d="M0 315.774L23.1457 426.087L300.547 419.188L342.216 239.175L0 315.774Z" fill="#56B5F4"/>
<path d="M366.149 203.971L9.47852 280.571L32.6242 390.884L324.479 383.984L366.149 203.971ZM366.149 203.971H366.165H366.149ZM357.608 212.377L319.343 377.679L37.8116 384.335L17.0781 285.508L357.608 212.377Z" fill="#255A7C"/>
<path d="M292.019 425.304H35.541C35.541 425.304 56.4447 393.296 88.5679 365.914C94.8505 360.55 101.564 355.375 108.63 350.634C115.362 346.125 122.426 342.029 129.765 338.554C154.472 326.923 185.365 333.501 214.013 348.954C219.052 351.649 224.028 354.656 228.884 357.877C256.559 376.218 280.466 401.843 292.019 425.304Z" fill="#F0F0F0"/>
<path d="M228.884 357.877C224.165 381.781 195.845 420.306 134.136 420.306C83.9035 420.306 84.7033 384.591 88.5673 365.914C94.85 360.55 101.563 355.375 108.63 350.634C115.362 346.125 122.425 342.029 129.764 338.554C154.471 326.923 185.364 333.501 214.012 348.954C219.052 351.649 224.027 354.656 228.884 357.877Z" fill="#2182C4"/>
<path d="M113.142 331.43C113.142 331.43 131.974 318.871 167.852 319.484C203.73 320.098 215.075 330.832 215.075 330.832L216.607 352.295H108.668L113.142 331.43Z" fill="#F4F4F4"/>
<path d="M274.482 166.124C277.813 169.474 280.331 175.446 279.968 185.339C279.213 205.976 264.958 214.584 255.187 215.946C256.588 219.219 256.87 223.847 254.516 229.696C249.296 242.673 237.396 248.464 229.189 249.235C231.383 252.1 232.054 257.522 227.259 267.11C215.092 291.421 155.622 293.676 140.532 255.836L61.2788 234.916C61.2788 234.916 44.5636 240.078 35.5636 229.025C29.268 221.329 34.2659 212.332 39.707 208.349C31.6449 208.147 19.1952 205.041 16.1887 193.667C14.6855 188.04 15.3568 183.733 17.162 180.566C13.7894 178.494 10.7861 174.675 8.97778 168.215C5.64694 156.353 8.22616 144.572 13.5067 136.105C13.5067 136.105 13.5067 136.105 13.5067 136.083C15.5592 132.752 18.0581 129.928 20.7562 127.818C16.6545 124.568 13.7284 119.226 14.3804 111C15.8836 91.6638 28.9211 83.5792 39.4051 82.2398C29.7755 76.7151 19.2337 65.4603 26.0978 48.138C35.3001 24.9024 65.4608 24.2503 82.706 33.0255C83.0497 27.9281 85.5486 22.3842 91.8666 17.2835C110.634 2.13248 134.763 7.63785 146.522 19.1143C161.596 -0.790466 198.132 -5.23907 218.911 10.5222C229.025 18.1796 232.784 29.3895 232.6 38.8553C239.914 36.3178 248.827 36.215 257.217 42.064C269.137 50.351 270.38 60.8928 267.676 68.7526C272.754 68.6113 278.381 70.7023 283.112 77.2034C292.212 89.6531 288.412 107.261 281.002 116.807C284.799 118.902 288.11 123.045 289.43 130.356C289.652 131.637 289.816 132.896 289.919 134.114C291.236 149.65 282.83 161.271 274.482 166.124Z" fill="black"/>
<path d="M274.482 166.124C277.813 169.475 280.331 175.446 279.968 185.339C279.213 205.976 264.958 214.584 255.187 215.946C256.588 219.219 256.87 223.847 254.516 229.696C249.296 242.673 237.396 248.464 229.189 249.235C231.383 252.1 232.054 257.522 227.259 267.11C215.092 291.421 155.622 293.676 140.532 255.836L61.2788 234.916C61.2788 234.916 44.5636 240.078 35.5636 229.025C29.268 221.329 34.2659 212.332 39.707 208.349C31.6449 208.147 19.1952 205.041 16.1887 193.667C14.6855 188.04 15.3568 183.733 17.162 180.566C13.7894 178.494 10.7861 174.675 8.97778 168.215C5.64694 156.354 8.22616 144.572 13.5067 136.105C17.8108 141.264 25.8151 143.618 39.9093 137.769C39.9093 137.769 58.2531 159.765 94.8506 149.753C131.432 139.76 146.686 109.924 146.686 109.924C146.686 109.924 155.969 139.76 183.165 141.08C210.341 142.401 221.615 121.847 221.615 121.847C221.615 121.847 218.972 151.683 239.529 150.363C260.082 149.043 261.399 135.109 261.399 135.109C261.399 135.109 274.989 145.751 289.919 134.114C291.236 149.65 282.83 161.271 274.482 166.124Z" fill="black"/>
<path d="M61.2744 234.919C61.2744 234.919 44.5624 240.068 35.5527 229.028C26.5431 217.992 40.7369 204.251 46.1427 206.505C51.5485 208.757 21.1372 212.361 16.1811 193.664C11.225 174.967 29.922 170.913 36.0024 174.517C42.0859 178.121 16.1811 193.889 8.97337 168.209C1.76243 142.529 22.2647 117.074 37.8043 125.181C53.3504 133.291 12.1244 139.824 14.3792 110.99C16.6308 82.156 44.5623 78.3273 51.3204 84.6357C58.0784 90.9408 13.7047 79.4515 26.0934 48.141C38.482 16.8304 88.9426 26.5145 94.5732 44.9868C100.204 63.459 67.3161 37.1045 91.8719 17.28C116.424 -2.54445 150.215 12.9984 153.369 31.021C156.52 49.0435 131.068 42.2854 145.259 20.8839C159.449 -0.517683 197.521 -5.69543 218.919 10.522C240.321 26.7426 233.338 58.9557 220.272 56.7009C207.205 54.4493 234.237 26.0648 257.216 42.0574C280.192 58.0531 263.521 82.3809 255.414 79.6796C247.304 76.9751 269.152 58.0532 283.121 77.1999C297.087 96.3499 280.644 127.66 267.353 123.154C254.062 118.651 284.698 104.007 289.429 130.365C294.157 156.719 270.957 173.165 262.397 167.531C253.837 161.9 281.094 154.243 279.967 185.329C278.839 216.418 247.076 220.243 246.176 213.035C245.277 205.828 261.498 212.361 254.512 229.706C247.529 247.05 228.604 251.557 222.526 248.403C216.44 245.249 239.422 242.772 227.255 267.1C215.091 291.428 155.62 293.679 140.527 255.835" stroke="black" stroke-width="1.33333" stroke-miterlimit="10" stroke-linecap="round" stroke-linejoin="round"/>
<path d="M207.987 209.329C207.987 209.329 222.434 187.571 245.895 199.112C269.352 210.649 234.553 255.418 199.928 242.747L207.987 209.329Z" fill="#EA8771"/>
<path d="M242.451 208.468C242.451 208.468 226.493 203.804 215.492 227.846" stroke="#321D4B" stroke-width="1.33333" stroke-miterlimit="10" stroke-linecap="round" stroke-linejoin="round"/>
<path d="M225.854 213.328C225.854 213.328 230.47 215.798 228.999 228.078" stroke="#321D4B" stroke-width="1.33333" stroke-miterlimit="10" stroke-linecap="round" stroke-linejoin="round"/>
<path d="M208.394 221.868C206.11 255.633 206.149 296.811 206.518 323.878C206.756 341.326 207.144 352.918 207.144 352.918L134.762 405.961L115.419 367.26L121.647 338.554V338.242C121.567 316.012 114.17 308.599 114.17 308.599C114.17 308.599 212.139 166.326 208.394 221.868Z" fill="#F7A491"/>
<path d="M208.394 221.868C206.11 255.633 206.149 296.81 206.518 323.878C177.324 345.713 142.509 342.903 121.647 338.242C121.567 316.012 114.17 308.598 114.17 308.598C114.17 308.598 212.139 166.326 208.394 221.868Z" fill="#EA8771"/>
<path d="M233.355 153.212C224.708 198.177 210.736 264.434 157.009 301.825C152.579 304.909 147.855 307.799 142.86 310.472C77.3448 345.425 56.1328 288.01 54.257 219.996C52.3844 151.963 68.6403 81.5493 152.853 78.954C165.675 78.5654 179.393 80.9647 191.824 86.0011C218.737 96.8705 239.756 119.936 233.355 153.212Z" fill="#F7A491"/>
<path d="M233.355 153.212C224.708 198.177 210.736 264.434 157.009 301.825C201.524 248.291 197.075 138.81 191.824 86.0013C218.737 96.8707 239.756 119.936 233.355 153.212Z" fill="#EA8771"/>
<path d="M200.551 253.657C189.977 271.837 175.969 288.63 157.009 301.825C152.58 304.908 147.855 307.799 142.86 310.471C136.343 313.95 130.263 316.513 124.597 318.241" stroke="#321D4B" stroke-width="1.33333" stroke-miterlimit="10" stroke-linecap="round" stroke-linejoin="round"/>
<path d="M108.669 192.026C108.669 192.026 88.9571 214.985 108.669 222.042" stroke="#321D4B" stroke-width="1.33333" stroke-miterlimit="10" stroke-linecap="round" stroke-linejoin="round"/>
<path d="M150.55 222.395C149.866 228.27 148.382 236.448 145.163 244.134C141.142 253.738 134.409 262.597 123.129 265.407C113.917 267.691 107.927 265.68 104.024 261.954C98.8301 257.018 97.3301 249.055 96.9189 244.099C109.78 245.856 131.483 244.449 150.55 222.395Z" fill="black"/>
<path d="M145.163 244.134C141.141 253.738 134.409 262.597 123.128 265.407C113.916 267.691 107.926 265.68 104.023 261.954C107.03 257.037 113.313 249.424 122.017 252.919C122.017 252.919 128.692 237.286 145.163 244.134Z" fill="#FF668B"/>
<path d="M155.271 216.463C153.729 218.589 152.168 220.561 150.55 222.396C131.483 244.449 109.78 245.856 96.9187 244.099C89.9711 243.18 85.5996 241.324 85.5996 241.324" stroke="black" stroke-width="1.33333" stroke-miterlimit="10" stroke-linecap="round" stroke-linejoin="round"/>
<path d="M93.1797 176.38C93.1797 182.659 90.1989 187.75 86.5212 187.75C82.8467 187.75 79.8691 182.659 79.8691 176.38C79.8691 170.101 82.8467 165.009 86.5212 165.009C90.1989 165.009 93.1797 170.101 93.1797 176.38Z" fill="black"/>
<path d="M161.381 175.686C161.381 182.348 158.22 187.75 154.321 187.75C150.422 187.75 147.258 182.348 147.258 175.686C147.258 169.024 150.422 163.622 154.321 163.622C158.22 163.622 161.381 169.024 161.381 175.686Z" fill="black"/>
<path d="M74.3222 153.363C74.3222 153.363 82.0856 149.48 94.8436 149.756V141.437C94.8436 141.437 84.8607 139.218 72.9346 146.152L74.3222 153.363Z" fill="black"/>
<path d="M169.546 151.699C169.546 151.699 160.796 147.324 146.426 147.636V138.263C146.426 138.263 157.674 135.764 171.107 143.573L169.546 151.699Z" fill="black"/>
<path d="M209.397 213.562C209.397 213.562 204.515 206.406 209.721 198.925C209.721 198.925 206.143 188.191 212.65 185.914C212.65 185.914 188.577 171.929 211.346 136.15C211.346 136.15 171.341 144.932 158.005 113.38C158.005 113.38 126.778 135.174 108.238 110.778C108.238 110.778 104.011 131.595 72.784 125.088C72.784 125.088 69.8578 147.533 58.7989 158.917C58.7989 158.917 39.4402 106.532 74.3739 77.7077C109.311 48.8897 207.132 59.8041 232.896 98.2357C258.662 136.664 241.356 188.711 209.397 213.562Z" fill="black"/>
<path d="M72.9343 99.9185C72.9343 99.9185 63.4042 74.9419 82.4643 66.398C101.524 57.8541 105.469 80.5276 98.5661 83.1582C91.6667 85.7888 92.0232 57.5233 120.437 57.8541C148.847 58.1818 152.239 72.6421 147.257 81.1861C142.275 89.73 141.353 57.7449 166.429 64.1496C191.505 70.5575 181.053 92.0298 181.053 92.0298" stroke="#2E2638" stroke-width="1.33333" stroke-miterlimit="10" stroke-linecap="round" stroke-linejoin="round"/>
<path d="M205.125 98.2161C205.125 98.2161 210.794 87.6454 222.142 89.4506C233.487 91.2557 232.196 106.725 224.718 107.242C217.241 107.756 229.363 94.6058 240.19 104.92C251.018 115.233 244.832 136.892 234.001 138.954C223.173 141.016 242.002 125.968 245.349 141.1C248.696 156.228 239.538 165.344 229.292 163.622" stroke="#2E2638" stroke-width="1.33333" stroke-miterlimit="10" stroke-linecap="round" stroke-linejoin="round"/>
<path d="M134.762 405.961C134.762 405.961 134.586 406.061 134.232 406.215C134.078 406.276 133.882 406.372 133.667 406.449C133.294 406.234 133.121 406.118 133.121 406.118C96.8223 402.704 101.155 372.823 106.95 355.34C106.95 355.321 106.95 355.321 106.969 355.298C108.726 352.626 110.602 350.246 112.375 348.196C116.688 343.199 120.437 340.25 120.437 340.25C120.437 340.25 120.379 341.384 120.395 343.414C120.437 352.333 121.725 378.759 134.194 404.792C134.39 405.18 134.563 405.572 134.762 405.961Z" fill="#F4F4F4"/>
<path d="M214.012 348.954C208.24 369.135 179.335 409.767 134.232 406.215C134.078 406.276 133.882 406.372 133.667 406.449C133.295 406.234 133.121 406.118 133.121 406.118L134.194 404.792L147.916 387.868C147.916 387.868 194.223 361.796 203.127 351.062C204.823 348.996 206.091 347.101 206.991 345.367C209.329 346.497 211.693 347.708 214.012 348.954Z" fill="#F4F4F4"/>
<path d="M114.495 331.137C119.84 330.646 121.651 338.557 121.651 338.557C121.651 338.557 121.266 370.661 134.756 405.955C134.756 405.955 122.387 386.117 117.508 385.138C112.629 384.161 98.4798 408.071 98.4798 408.071C98.4798 408.071 92.7239 388.481 93.9509 368.242C95.1779 348.004 107.416 331.789 114.495 331.137Z" fill="white"/>
<path d="M177.356 410.866C177.356 410.866 169.384 392.776 162.025 388.173C154.666 383.577 147.918 387.865 147.918 387.865C147.918 387.865 179.197 366.402 194.531 353.522C209.862 340.642 207.102 329.297 207.102 329.297C207.102 329.297 207.713 326.538 212.926 328.989C218.142 331.446 228.26 353.217 228.26 353.217C228.26 353.217 220.901 378.669 177.356 410.866Z" fill="white"/>
</svg>
