<svg width="384" height="393" viewBox="0 0 384 393" fill="none" xmlns="http://www.w3.org/2000/svg">
<path d="M28.6648 387.297L352.005 362.69L368.184 198.071L0 199.247L28.6648 387.297Z" fill="#56B5F4"/>
<path d="M383.835 177.759L10.832 178.937L39.4953 366.983L367.653 342.377L383.835 177.759ZM383.835 177.759H383.848H383.835ZM376.746 184.205L361.788 336.374L44.9509 360.133L18.3064 185.336L376.746 184.205Z" fill="#255A7C"/>
<path d="M133.521 7.17239C132.808 1.4711 51.0013 2.06207 36.5409 159.061C26.5586 267.45 67.9157 392.24 67.9157 392.24H231.213C231.213 392.24 235.491 107.721 204.117 62.7946C172.74 17.8683 133.521 7.17239 133.521 7.17239Z" fill="#302F2F"/>
<path d="M292.367 392.243H47.3789C54.2834 355.013 91.1488 318.149 127.059 301.269C137.458 296.352 147.775 293.124 157.281 292.049C251.119 281.324 292.367 392.243 292.367 392.243Z" fill="#C7E8FF"/>
<path d="M187.667 392.243C203.287 367.177 198.351 321.602 198.351 321.602C198.351 321.602 188.316 330.373 173.246 331.637C158.196 332.892 153.808 309.678 153.808 309.678C153.808 309.678 148.162 330.068 135.61 331.003C126.125 331.713 126.368 311.263 127.06 301.269C137.459 296.352 147.776 293.124 157.281 292.049C251.119 281.324 292.368 392.243 292.368 392.243H187.667Z" fill="#7BB0D5"/>
<path d="M193.74 183.525V313.01H132.908L135.652 275.131L137.804 245.478L193.74 183.525Z" fill="#F7A491"/>
<path d="M193.74 183.524V220.532C184.783 239.868 167.782 262.757 135.652 275.13L137.804 245.476L193.74 183.524Z" fill="#EA8771"/>
<path d="M186.286 202.558C173.328 219.984 161.446 232.358 150.661 240.865C125.292 260.931 106.099 259.691 93.5864 253.193C75.7547 243.91 57.2105 196.138 59.3635 147.656C61.3533 102.406 79.4925 38.7502 121.859 29.6731C124.907 29.0018 128.075 28.6357 131.385 28.5746C206.964 27.1324 229.793 144.085 186.286 202.558Z" fill="#F7A491"/>
<path d="M186.286 202.558C173.327 219.983 161.446 232.357 150.66 240.865C161.405 220.778 170.078 194.577 169.772 162.585C168.98 80.0821 119.971 40.6805 119.971 40.6805L121.859 29.673C124.907 29.0017 128.075 28.6355 131.385 28.5745C206.963 27.1323 229.792 144.085 186.286 202.558Z" fill="#EA8771"/>
<path d="M147.162 243.531C158.844 234.997 171.903 221.898 186.288 202.558" stroke="#2B2B2B" stroke-width="1.33333" stroke-miterlimit="10" stroke-linecap="round" stroke-linejoin="round"/>
<path d="M94.9627 136.026C94.9627 139.95 92.5762 143.13 89.6327 143.13C86.6892 143.13 84.3027 139.95 84.3027 136.026C84.3027 132.103 86.6892 128.917 89.6327 128.917C92.5762 128.917 94.9627 132.103 94.9627 136.026Z" fill="#2A2A2A"/>
<path d="M82.6826 111.264C82.6826 111.264 88.5436 104.467 99.0927 109.153" stroke="#2B2B2B" stroke-width="1.33333" stroke-miterlimit="10" stroke-linecap="round" stroke-linejoin="round"/>
<path d="M137.795 136.267C137.795 140.962 140.653 144.771 144.178 144.771C147.702 144.771 150.559 140.962 150.559 136.267C150.559 131.567 147.702 127.755 144.178 127.755C140.653 127.755 137.795 131.567 137.795 136.267Z" fill="#2A2A2A"/>
<path d="M154.034 107.236C154.034 107.236 145.584 99.486 132.9 107.011" stroke="#2B2B2B" stroke-width="1.33333" stroke-miterlimit="10" stroke-linecap="round" stroke-linejoin="round"/>
<path d="M107.765 143.376C107.765 143.376 101.438 158.149 98.1541 165.18C94.8734 172.214 109.173 177.604 109.173 177.604" stroke="#2B2B2B" stroke-width="1.33333" stroke-miterlimit="10" stroke-linecap="round" stroke-linejoin="round"/>
<path d="M81.2773 194.014C81.2773 194.014 110.11 218.628 151.368 187.214" stroke="#2B2B2B" stroke-width="1.33333" stroke-miterlimit="10" stroke-linecap="round" stroke-linejoin="round"/>
<path d="M119.971 40.6896C119.971 40.6896 72.3809 70.1244 59.8904 171.395C59.8904 171.395 33.6863 15.7292 132.807 1.4711C231.927 -12.7934 281.842 79.9081 296.816 139.092C311.79 198.279 336.038 328.061 336.038 392.24H213.386C213.386 392.24 215.526 126.257 119.971 40.6896Z" fill="#474646"/>
<path d="M244.962 360.271C245.347 365.92 245.71 371.663 246.041 377.496" stroke="#313131" stroke-width="2.66667" stroke-miterlimit="10" stroke-linecap="round" stroke-linejoin="round"/>
<path d="M155.658 35.2548C155.658 35.2548 224.562 103.23 243.787 344.384" stroke="#313131" stroke-width="2.66667" stroke-miterlimit="10" stroke-linecap="round" stroke-linejoin="round"/>
<path d="M244.631 66.1573C268.425 102.835 309.051 191.484 318.481 377.496" stroke="#313131" stroke-width="2.66667" stroke-miterlimit="10" stroke-linecap="round" stroke-linejoin="round"/>
<path d="M227.084 44.0557C227.084 44.0557 231.951 48.2056 239.46 58.5996" stroke="#313131" stroke-width="2.66667" stroke-miterlimit="10" stroke-linecap="round" stroke-linejoin="round"/>
<path d="M184.092 28.1469C184.092 28.1469 273.967 122.085 284.293 378.509" stroke="#313131" stroke-width="2.66667" stroke-miterlimit="10" stroke-linecap="round" stroke-linejoin="round"/>
<path d="M135.01 282.971C135.01 282.971 135.042 299.297 145.096 306.153C145.096 306.153 178.753 299.552 193.735 270.865C193.735 270.865 200.836 281.699 203.478 296.066C204.11 299.497 203.386 303.046 201.342 305.879C196.448 312.663 185.627 325.614 171.143 330.926C151.087 338.292 145.096 313.01 145.096 313.01C145.096 313.01 139.155 331.315 129.253 330.923C119.351 330.527 111.485 305.484 135.01 282.971Z" fill="white"/>
</svg>
