<svg width="1456" height="531" viewBox="0 0 1456 531" fill="none" xmlns="http://www.w3.org/2000/svg">
<g clip-path="url(#clip0)">
<rect width="1440" height="531" fill="#F8F8FC"/>
<path d="M168.52 202.24C166.467 202.32 165.44 201.613 165.44 200.12C165.44 199.48 165.613 199 165.96 198.68C166.28 198.333 166.8 198.133 167.52 198.08L168.8 198C169.893 197.947 170.72 197.6 171.28 196.96C171.84 196.32 172.12 195.347 172.12 194.04V176.16C172.12 175.387 172.347 174.773 172.8 174.32C173.28 173.84 173.907 173.6 174.68 173.6C175.48 173.6 176.107 173.84 176.56 174.32C177.04 174.773 177.28 175.387 177.28 176.16V194.04C177.28 199.08 174.787 201.787 169.8 202.16L168.52 202.24ZM191.856 202.32C189.856 202.32 188.096 201.907 186.576 201.08C185.083 200.253 183.923 199.067 183.096 197.52C182.269 195.973 181.856 194.173 181.856 192.12C181.856 190.067 182.269 188.28 183.096 186.76C183.923 185.213 185.083 184.027 186.576 183.2C188.096 182.373 189.856 181.96 191.856 181.96C193.856 181.96 195.603 182.373 197.096 183.2C198.616 184.027 199.776 185.213 200.576 186.76C201.403 188.28 201.816 190.067 201.816 192.12C201.816 194.173 201.403 195.973 200.576 197.52C199.776 199.067 198.616 200.253 197.096 201.08C195.603 201.907 193.856 202.32 191.856 202.32ZM191.816 198.44C193.443 198.44 194.683 197.907 195.536 196.84C196.389 195.773 196.816 194.2 196.816 192.12C196.816 190.067 196.389 188.507 195.536 187.44C194.683 186.347 193.456 185.8 191.856 185.8C190.256 185.8 189.016 186.347 188.136 187.44C187.283 188.507 186.856 190.067 186.856 192.12C186.856 194.2 187.283 195.773 188.136 196.84C188.989 197.907 190.216 198.44 191.816 198.44ZM208.424 202.24C207.704 202.24 207.104 202.04 206.624 201.64C206.17 201.213 205.944 200.613 205.944 199.84V184.4C205.944 183.627 206.17 183.04 206.624 182.64C207.104 182.24 207.704 182.04 208.424 182.04C209.144 182.04 209.744 182.24 210.224 182.64C210.704 183.04 210.944 183.627 210.944 184.4V199.84C210.944 200.613 210.704 201.213 210.224 201.64C209.744 202.04 209.144 202.24 208.424 202.24ZM208.424 178.48C207.517 178.48 206.797 178.24 206.264 177.76C205.73 177.253 205.464 176.6 205.464 175.8C205.464 175 205.73 174.36 206.264 173.88C206.797 173.4 207.517 173.16 208.424 173.16C209.304 173.16 210.01 173.4 210.544 173.88C211.104 174.36 211.384 175 211.384 175.8C211.384 176.6 211.117 177.253 210.584 177.76C210.05 178.24 209.33 178.48 208.424 178.48ZM227.46 181.96C229.807 181.96 231.553 182.627 232.7 183.96C233.847 185.293 234.42 187.307 234.42 190V199.84C234.42 200.587 234.193 201.173 233.74 201.6C233.313 202.027 232.713 202.24 231.94 202.24C231.167 202.24 230.553 202.027 230.1 201.6C229.647 201.173 229.42 200.587 229.42 199.84V190.28C229.42 188.76 229.127 187.653 228.54 186.96C227.98 186.267 227.087 185.92 225.86 185.92C224.42 185.92 223.26 186.373 222.38 187.28C221.527 188.187 221.1 189.4 221.1 190.92V199.84C221.1 200.587 220.873 201.173 220.42 201.6C219.967 202.027 219.353 202.24 218.58 202.24C217.807 202.24 217.193 202.027 216.74 201.6C216.313 201.173 216.1 200.587 216.1 199.84V184.36C216.1 183.667 216.327 183.107 216.78 182.68C217.233 182.253 217.847 182.04 218.62 182.04C219.313 182.04 219.873 182.253 220.3 182.68C220.753 183.08 220.98 183.613 220.98 184.28V185.36C221.647 184.267 222.54 183.427 223.66 182.84C224.78 182.253 226.047 181.96 227.46 181.96ZM265.798 182.04C266.571 182.04 267.184 182.253 267.638 182.68C268.091 183.107 268.318 183.68 268.318 184.4V199.92C268.318 200.613 268.078 201.173 267.598 201.6C267.144 202.027 266.544 202.24 265.798 202.24C265.078 202.24 264.504 202.04 264.078 201.64C263.651 201.24 263.438 200.693 263.438 200V199C262.824 200.067 261.998 200.893 260.958 201.48C259.918 202.04 258.744 202.32 257.438 202.32C252.638 202.32 250.238 199.627 250.238 194.24V184.4C250.238 183.68 250.464 183.107 250.918 182.68C251.371 182.253 251.971 182.04 252.718 182.04C253.491 182.04 254.104 182.253 254.558 182.68C255.011 183.107 255.238 183.68 255.238 184.4V194.28C255.238 195.667 255.518 196.693 256.078 197.36C256.638 198.027 257.518 198.36 258.718 198.36C260.104 198.36 261.211 197.907 262.038 197C262.891 196.067 263.318 194.84 263.318 193.32V184.4C263.318 183.68 263.544 183.107 263.998 182.68C264.451 182.253 265.051 182.04 265.798 182.04ZM280.602 202.32C277.695 202.32 275.349 201.747 273.562 200.6C272.709 200.093 272.282 199.373 272.282 198.44C272.282 197.907 272.429 197.48 272.722 197.16C273.015 196.813 273.375 196.64 273.802 196.64C274.255 196.64 274.882 196.853 275.682 197.28C276.535 197.68 277.309 197.987 278.002 198.2C278.722 198.413 279.629 198.52 280.722 198.52C281.842 198.52 282.709 198.333 283.322 197.96C283.962 197.587 284.282 197.067 284.282 196.4C284.282 195.947 284.149 195.587 283.882 195.32C283.642 195.053 283.189 194.813 282.522 194.6C281.882 194.36 280.895 194.093 279.562 193.8C277.189 193.32 275.482 192.64 274.442 191.76C273.429 190.88 272.922 189.667 272.922 188.12C272.922 186.947 273.269 185.893 273.962 184.96C274.655 184 275.602 183.267 276.802 182.76C278.029 182.227 279.415 181.96 280.962 181.96C282.082 181.96 283.162 182.107 284.202 182.4C285.242 182.667 286.175 183.067 287.002 183.6C287.855 184.133 288.282 184.84 288.282 185.72C288.282 186.253 288.135 186.707 287.842 187.08C287.549 187.427 287.189 187.6 286.762 187.6C286.469 187.6 286.175 187.547 285.882 187.44C285.615 187.307 285.269 187.12 284.842 186.88C284.069 186.48 283.402 186.187 282.842 186C282.282 185.787 281.589 185.68 280.762 185.68C279.775 185.68 278.989 185.88 278.402 186.28C277.842 186.68 277.562 187.227 277.562 187.92C277.562 188.587 277.855 189.093 278.442 189.44C279.029 189.787 280.162 190.133 281.842 190.48C283.629 190.853 285.029 191.28 286.042 191.76C287.055 192.24 287.775 192.84 288.202 193.56C288.655 194.28 288.882 195.2 288.882 196.32C288.882 198.133 288.122 199.587 286.602 200.68C285.109 201.773 283.109 202.32 280.602 202.32ZM312.275 181.96C314.995 181.96 317.009 182.64 318.315 184C319.649 185.333 320.315 187.373 320.315 190.12V199.88C320.315 200.6 320.102 201.173 319.675 201.6C319.249 202 318.662 202.2 317.915 202.2C317.222 202.2 316.649 201.987 316.195 201.56C315.769 201.133 315.555 200.573 315.555 199.88V199C315.102 200.04 314.382 200.853 313.395 201.44C312.435 202.027 311.315 202.32 310.035 202.32C308.729 202.32 307.542 202.053 306.475 201.52C305.409 200.987 304.569 200.253 303.955 199.32C303.342 198.387 303.035 197.347 303.035 196.2C303.035 194.76 303.395 193.627 304.115 192.8C304.862 191.973 306.062 191.373 307.715 191C309.369 190.627 311.649 190.44 314.555 190.44H315.555V189.52C315.555 188.213 315.275 187.267 314.715 186.68C314.155 186.067 313.249 185.76 311.995 185.76C311.222 185.76 310.435 185.88 309.635 186.12C308.835 186.333 307.889 186.653 306.795 187.08C306.102 187.427 305.595 187.6 305.275 187.6C304.795 187.6 304.395 187.427 304.075 187.08C303.782 186.733 303.635 186.28 303.635 185.72C303.635 185.267 303.742 184.88 303.955 184.56C304.195 184.213 304.582 183.893 305.115 183.6C306.049 183.093 307.155 182.693 308.435 182.4C309.742 182.107 311.022 181.96 312.275 181.96ZM311.035 198.72C312.369 198.72 313.449 198.28 314.275 197.4C315.129 196.493 315.555 195.333 315.555 193.92V193.08H314.835C313.049 193.08 311.662 193.16 310.675 193.32C309.689 193.48 308.982 193.76 308.555 194.16C308.129 194.56 307.915 195.107 307.915 195.8C307.915 196.653 308.209 197.36 308.795 197.92C309.409 198.453 310.155 198.72 311.035 198.72ZM332.477 202.32C329.57 202.32 327.224 201.747 325.437 200.6C324.584 200.093 324.157 199.373 324.157 198.44C324.157 197.907 324.304 197.48 324.597 197.16C324.89 196.813 325.25 196.64 325.677 196.64C326.13 196.64 326.757 196.853 327.557 197.28C328.41 197.68 329.184 197.987 329.877 198.2C330.597 198.413 331.504 198.52 332.597 198.52C333.717 198.52 334.584 198.333 335.197 197.96C335.837 197.587 336.157 197.067 336.157 196.4C336.157 195.947 336.024 195.587 335.757 195.32C335.517 195.053 335.064 194.813 334.397 194.6C333.757 194.36 332.77 194.093 331.437 193.8C329.064 193.32 327.357 192.64 326.317 191.76C325.304 190.88 324.797 189.667 324.797 188.12C324.797 186.947 325.144 185.893 325.837 184.96C326.53 184 327.477 183.267 328.677 182.76C329.904 182.227 331.29 181.96 332.837 181.96C333.957 181.96 335.037 182.107 336.077 182.4C337.117 182.667 338.05 183.067 338.877 183.6C339.73 184.133 340.157 184.84 340.157 185.72C340.157 186.253 340.01 186.707 339.717 187.08C339.424 187.427 339.064 187.6 338.637 187.6C338.344 187.6 338.05 187.547 337.757 187.44C337.49 187.307 337.144 187.12 336.717 186.88C335.944 186.48 335.277 186.187 334.717 186C334.157 185.787 333.464 185.68 332.637 185.68C331.65 185.68 330.864 185.88 330.277 186.28C329.717 186.68 329.437 187.227 329.437 187.92C329.437 188.587 329.73 189.093 330.317 189.44C330.904 189.787 332.037 190.133 333.717 190.48C335.504 190.853 336.904 191.28 337.917 191.76C338.93 192.24 339.65 192.84 340.077 193.56C340.53 194.28 340.757 195.2 340.757 196.32C340.757 198.133 339.997 199.587 338.477 200.68C336.984 201.773 334.984 202.32 332.477 202.32ZM382.11 183.52C382.297 183.04 382.564 182.68 382.91 182.44C383.284 182.2 383.684 182.08 384.11 182.08C384.724 182.08 385.27 182.293 385.75 182.72C386.257 183.12 386.51 183.627 386.51 184.24C386.51 184.587 386.444 184.893 386.31 185.16L379.71 200.64C379.497 201.147 379.164 201.533 378.71 201.8C378.284 202.067 377.804 202.2 377.27 202.2C376.764 202.2 376.284 202.067 375.83 201.8C375.404 201.533 375.084 201.147 374.87 200.64L370.11 189.2L365.51 200.64C365.297 201.147 364.964 201.533 364.51 201.8C364.084 202.067 363.604 202.2 363.07 202.2C362.564 202.2 362.084 202.067 361.63 201.8C361.177 201.533 360.844 201.147 360.63 200.64L354.07 185.16C353.937 184.813 353.87 184.52 353.87 184.28C353.87 183.667 354.137 183.147 354.67 182.72C355.204 182.267 355.79 182.04 356.43 182.04C356.884 182.04 357.297 182.16 357.67 182.4C358.044 182.64 358.324 183 358.51 183.48L363.23 195.68L368.07 183.6C368.284 183.093 368.59 182.72 368.99 182.48C369.39 182.213 369.83 182.08 370.31 182.08C370.79 182.08 371.23 182.213 371.63 182.48C372.03 182.72 372.337 183.093 372.55 183.6L377.43 195.72L382.11 183.52ZM405.096 196.64C405.549 196.64 405.909 196.813 406.176 197.16C406.469 197.507 406.616 197.973 406.616 198.56C406.616 199.387 406.122 200.08 405.136 200.64C404.229 201.147 403.202 201.56 402.056 201.88C400.909 202.173 399.816 202.32 398.776 202.32C395.629 202.32 393.136 201.413 391.296 199.6C389.456 197.787 388.536 195.307 388.536 192.16C388.536 190.16 388.936 188.387 389.736 186.84C390.536 185.293 391.656 184.093 393.096 183.24C394.562 182.387 396.216 181.96 398.056 181.96C399.816 181.96 401.349 182.347 402.656 183.12C403.962 183.893 404.976 184.987 405.696 186.4C406.416 187.813 406.776 189.48 406.776 191.4C406.776 192.547 406.269 193.12 405.256 193.12H393.456C393.616 194.96 394.136 196.32 395.016 197.2C395.896 198.053 397.176 198.48 398.856 198.48C399.709 198.48 400.456 198.373 401.096 198.16C401.762 197.947 402.509 197.653 403.336 197.28C404.136 196.853 404.722 196.64 405.096 196.64ZM398.176 185.48C396.816 185.48 395.722 185.907 394.896 186.76C394.096 187.613 393.616 188.84 393.456 190.44H402.496C402.442 188.813 402.042 187.587 401.296 186.76C400.549 185.907 399.509 185.48 398.176 185.48ZM431.885 198.52C433.218 198.6 433.885 199.2 433.885 200.32C433.885 200.96 433.618 201.453 433.085 201.8C432.578 202.12 431.845 202.253 430.885 202.2L429.805 202.12C425.325 201.8 423.085 199.4 423.085 194.92V186.2H421.085C420.365 186.2 419.805 186.04 419.405 185.72C419.032 185.4 418.845 184.933 418.845 184.32C418.845 183.707 419.032 183.24 419.405 182.92C419.805 182.6 420.365 182.44 421.085 182.44H423.085V178.76C423.085 178.04 423.312 177.467 423.765 177.04C424.218 176.613 424.832 176.4 425.605 176.4C426.352 176.4 426.952 176.613 427.405 177.04C427.858 177.467 428.085 178.04 428.085 178.76V182.44H431.485C432.205 182.44 432.752 182.6 433.125 182.92C433.525 183.24 433.725 183.707 433.725 184.32C433.725 184.933 433.525 185.4 433.125 185.72C432.752 186.04 432.205 186.2 431.485 186.2H428.085V195.28C428.085 197.253 428.992 198.307 430.805 198.44L431.885 198.52ZM444.971 181.96C447.691 181.96 449.704 182.64 451.011 184C452.344 185.333 453.011 187.373 453.011 190.12V199.88C453.011 200.6 452.797 201.173 452.371 201.6C451.944 202 451.357 202.2 450.611 202.2C449.917 202.2 449.344 201.987 448.891 201.56C448.464 201.133 448.251 200.573 448.251 199.88V199C447.797 200.04 447.077 200.853 446.091 201.44C445.131 202.027 444.011 202.32 442.731 202.32C441.424 202.32 440.237 202.053 439.171 201.52C438.104 200.987 437.264 200.253 436.651 199.32C436.037 198.387 435.731 197.347 435.731 196.2C435.731 194.76 436.091 193.627 436.811 192.8C437.557 191.973 438.757 191.373 440.411 191C442.064 190.627 444.344 190.44 447.251 190.44H448.251V189.52C448.251 188.213 447.971 187.267 447.411 186.68C446.851 186.067 445.944 185.76 444.691 185.76C443.917 185.76 443.131 185.88 442.331 186.12C441.531 186.333 440.584 186.653 439.491 187.08C438.797 187.427 438.291 187.6 437.971 187.6C437.491 187.6 437.091 187.427 436.771 187.08C436.477 186.733 436.331 186.28 436.331 185.72C436.331 185.267 436.437 184.88 436.651 184.56C436.891 184.213 437.277 183.893 437.811 183.6C438.744 183.093 439.851 182.693 441.131 182.4C442.437 182.107 443.717 181.96 444.971 181.96ZM443.731 198.72C445.064 198.72 446.144 198.28 446.971 197.4C447.824 196.493 448.251 195.333 448.251 193.92V193.08H447.531C445.744 193.08 444.357 193.16 443.371 193.32C442.384 193.48 441.677 193.76 441.251 194.16C440.824 194.56 440.611 195.107 440.611 195.8C440.611 196.653 440.904 197.36 441.491 197.92C442.104 198.453 442.851 198.72 443.731 198.72ZM475.492 198.12C476.026 198.627 476.292 199.2 476.292 199.84C476.292 200.453 476.066 201 475.612 201.48C475.186 201.96 474.679 202.2 474.092 202.2C473.506 202.2 472.959 201.96 472.452 201.48L463.092 193V199.84C463.092 200.613 462.852 201.2 462.372 201.6C461.892 202 461.292 202.2 460.572 202.2C459.852 202.2 459.252 202 458.772 201.6C458.319 201.2 458.092 200.613 458.092 199.84V175.96C458.092 175.187 458.319 174.6 458.772 174.2C459.252 173.8 459.852 173.6 460.572 173.6C461.292 173.6 461.892 173.8 462.372 174.2C462.852 174.6 463.092 175.187 463.092 175.96V191L471.652 182.8C472.132 182.32 472.679 182.08 473.292 182.08C473.906 182.08 474.439 182.307 474.892 182.76C475.346 183.213 475.572 183.747 475.572 184.36C475.572 184.973 475.319 185.533 474.812 186.04L468.532 191.88L475.492 198.12ZM494.744 196.64C495.197 196.64 495.557 196.813 495.824 197.16C496.117 197.507 496.264 197.973 496.264 198.56C496.264 199.387 495.771 200.08 494.784 200.64C493.877 201.147 492.851 201.56 491.704 201.88C490.557 202.173 489.464 202.32 488.424 202.32C485.277 202.32 482.784 201.413 480.944 199.6C479.104 197.787 478.184 195.307 478.184 192.16C478.184 190.16 478.584 188.387 479.384 186.84C480.184 185.293 481.304 184.093 482.744 183.24C484.211 182.387 485.864 181.96 487.704 181.96C489.464 181.96 490.997 182.347 492.304 183.12C493.611 183.893 494.624 184.987 495.344 186.4C496.064 187.813 496.424 189.48 496.424 191.4C496.424 192.547 495.917 193.12 494.904 193.12H483.104C483.264 194.96 483.784 196.32 484.664 197.2C485.544 198.053 486.824 198.48 488.504 198.48C489.357 198.48 490.104 198.373 490.744 198.16C491.411 197.947 492.157 197.653 492.984 197.28C493.784 196.853 494.371 196.64 494.744 196.64ZM487.824 185.48C486.464 185.48 485.371 185.907 484.544 186.76C483.744 187.613 483.264 188.84 483.104 190.44H492.144C492.091 188.813 491.691 187.587 490.944 186.76C490.197 185.907 489.157 185.48 487.824 185.48ZM180.04 236.96C184.627 236.96 186.92 239.64 186.92 245V254.84C186.92 255.587 186.693 256.173 186.24 256.6C185.813 257.027 185.213 257.24 184.44 257.24C183.667 257.24 183.053 257.027 182.6 256.6C182.147 256.173 181.92 255.587 181.92 254.84V245C181.92 243.587 181.627 242.56 181.04 241.92C180.48 241.253 179.587 240.92 178.36 240.92C176.92 240.92 175.76 241.373 174.88 242.28C174.027 243.187 173.6 244.4 173.6 245.92V254.84C173.6 255.587 173.373 256.173 172.92 256.6C172.467 257.027 171.853 257.24 171.08 257.24C170.307 257.24 169.693 257.027 169.24 256.6C168.813 256.173 168.6 255.587 168.6 254.84V230.92C168.6 230.227 168.827 229.667 169.28 229.24C169.76 228.813 170.373 228.6 171.12 228.6C171.867 228.6 172.467 228.8 172.92 229.2C173.373 229.6 173.6 230.147 173.6 230.84V240.16C174.267 239.12 175.147 238.333 176.24 237.8C177.36 237.24 178.627 236.96 180.04 236.96ZM200.918 257.32C198.918 257.32 197.158 256.907 195.638 256.08C194.145 255.253 192.985 254.067 192.158 252.52C191.332 250.973 190.918 249.173 190.918 247.12C190.918 245.067 191.332 243.28 192.158 241.76C192.985 240.213 194.145 239.027 195.638 238.2C197.158 237.373 198.918 236.96 200.918 236.96C202.918 236.96 204.665 237.373 206.158 238.2C207.678 239.027 208.838 240.213 209.638 241.76C210.465 243.28 210.878 245.067 210.878 247.12C210.878 249.173 210.465 250.973 209.638 252.52C208.838 254.067 207.678 255.253 206.158 256.08C204.665 256.907 202.918 257.32 200.918 257.32ZM200.878 253.44C202.505 253.44 203.745 252.907 204.598 251.84C205.452 250.773 205.878 249.2 205.878 247.12C205.878 245.067 205.452 243.507 204.598 242.44C203.745 241.347 202.518 240.8 200.918 240.8C199.318 240.8 198.078 241.347 197.198 242.44C196.345 243.507 195.918 245.067 195.918 247.12C195.918 249.2 196.345 250.773 197.198 251.84C198.052 252.907 199.278 253.44 200.878 253.44ZM238.246 236.96C240.38 236.96 242.006 237.6 243.126 238.88C244.273 240.133 244.846 242.173 244.846 245V254.84C244.846 255.613 244.606 256.213 244.126 256.64C243.673 257.04 243.073 257.24 242.326 257.24C241.606 257.24 241.006 257.04 240.526 256.64C240.073 256.213 239.846 255.613 239.846 254.84V245C239.846 243.533 239.58 242.493 239.046 241.88C238.54 241.24 237.753 240.92 236.686 240.92C235.38 240.92 234.34 241.373 233.566 242.28C232.793 243.16 232.406 244.373 232.406 245.92V254.84C232.406 255.613 232.166 256.213 231.686 256.64C231.233 257.04 230.646 257.24 229.926 257.24C229.206 257.24 228.606 257.04 228.126 256.64C227.646 256.213 227.406 255.613 227.406 254.84V245C227.406 243.533 227.14 242.493 226.606 241.88C226.1 241.24 225.313 240.92 224.246 240.92C222.94 240.92 221.9 241.373 221.126 242.28C220.38 243.16 220.006 244.373 220.006 245.92V254.84C220.006 255.613 219.766 256.213 219.286 256.64C218.806 257.04 218.206 257.24 217.486 257.24C216.766 257.24 216.166 257.04 215.686 256.64C215.233 256.213 215.006 255.613 215.006 254.84V239.36C215.006 238.613 215.246 238.04 215.726 237.64C216.206 237.24 216.806 237.04 217.526 237.04C218.22 237.04 218.78 237.24 219.206 237.64C219.66 238.013 219.886 238.56 219.886 239.28V240.24C220.5 239.173 221.313 238.36 222.326 237.8C223.366 237.24 224.553 236.96 225.886 236.96C228.82 236.96 230.78 238.187 231.766 240.64C232.353 239.52 233.22 238.627 234.366 237.96C235.513 237.293 236.806 236.96 238.246 236.96ZM265.408 251.64C265.861 251.64 266.221 251.813 266.488 252.16C266.781 252.507 266.928 252.973 266.928 253.56C266.928 254.387 266.435 255.08 265.448 255.64C264.541 256.147 263.515 256.56 262.368 256.88C261.221 257.173 260.128 257.32 259.088 257.32C255.941 257.32 253.448 256.413 251.608 254.6C249.768 252.787 248.848 250.307 248.848 247.16C248.848 245.16 249.248 243.387 250.048 241.84C250.848 240.293 251.968 239.093 253.408 238.24C254.875 237.387 256.528 236.96 258.368 236.96C260.128 236.96 261.661 237.347 262.968 238.12C264.275 238.893 265.288 239.987 266.008 241.4C266.728 242.813 267.088 244.48 267.088 246.4C267.088 247.547 266.581 248.12 265.568 248.12H253.768C253.928 249.96 254.448 251.32 255.328 252.2C256.208 253.053 257.488 253.48 259.168 253.48C260.021 253.48 260.768 253.373 261.408 253.16C262.075 252.947 262.821 252.653 263.648 252.28C264.448 251.853 265.035 251.64 265.408 251.64ZM258.488 240.48C257.128 240.48 256.035 240.907 255.208 241.76C254.408 242.613 253.928 243.84 253.768 245.44H262.808C262.755 243.813 262.355 242.587 261.608 241.76C260.861 240.907 259.821 240.48 258.488 240.48ZM278.258 257.32C275.351 257.32 273.005 256.747 271.218 255.6C270.365 255.093 269.938 254.373 269.938 253.44C269.938 252.907 270.085 252.48 270.378 252.16C270.671 251.813 271.031 251.64 271.458 251.64C271.911 251.64 272.538 251.853 273.338 252.28C274.191 252.68 274.965 252.987 275.658 253.2C276.378 253.413 277.285 253.52 278.378 253.52C279.498 253.52 280.365 253.333 280.978 252.96C281.618 252.587 281.938 252.067 281.938 251.4C281.938 250.947 281.805 250.587 281.538 250.32C281.298 250.053 280.845 249.813 280.178 249.6C279.538 249.36 278.551 249.093 277.218 248.8C274.845 248.32 273.138 247.64 272.098 246.76C271.085 245.88 270.578 244.667 270.578 243.12C270.578 241.947 270.925 240.893 271.618 239.96C272.311 239 273.258 238.267 274.458 237.76C275.685 237.227 277.071 236.96 278.618 236.96C279.738 236.96 280.818 237.107 281.858 237.4C282.898 237.667 283.831 238.067 284.658 238.6C285.511 239.133 285.938 239.84 285.938 240.72C285.938 241.253 285.791 241.707 285.498 242.08C285.205 242.427 284.845 242.6 284.418 242.6C284.125 242.6 283.831 242.547 283.538 242.44C283.271 242.307 282.925 242.12 282.498 241.88C281.725 241.48 281.058 241.187 280.498 241C279.938 240.787 279.245 240.68 278.418 240.68C277.431 240.68 276.645 240.88 276.058 241.28C275.498 241.68 275.218 242.227 275.218 242.92C275.218 243.587 275.511 244.093 276.098 244.44C276.685 244.787 277.818 245.133 279.498 245.48C281.285 245.853 282.685 246.28 283.698 246.76C284.711 247.24 285.431 247.84 285.858 248.56C286.311 249.28 286.538 250.2 286.538 251.32C286.538 253.133 285.778 254.587 284.258 255.68C282.765 256.773 280.765 257.32 278.258 257.32ZM299.272 257.32C297.326 257.32 295.606 256.907 294.112 256.08C292.646 255.253 291.512 254.08 290.712 252.56C289.912 251.04 289.512 249.267 289.512 247.24C289.512 245.213 289.926 243.427 290.752 241.88C291.606 240.307 292.792 239.093 294.312 238.24C295.832 237.387 297.579 236.96 299.552 236.96C300.592 236.96 301.632 237.107 302.672 237.4C303.739 237.693 304.672 238.093 305.472 238.6C306.326 239.16 306.752 239.867 306.752 240.72C306.752 241.307 306.606 241.787 306.312 242.16C306.046 242.507 305.686 242.68 305.232 242.68C304.939 242.68 304.632 242.613 304.312 242.48C303.992 242.347 303.672 242.187 303.352 242C302.766 241.653 302.206 241.387 301.672 241.2C301.139 240.987 300.526 240.88 299.832 240.88C298.179 240.88 296.899 241.427 295.992 242.52C295.112 243.587 294.672 245.133 294.672 247.16C294.672 249.16 295.112 250.707 295.992 251.8C296.899 252.867 298.179 253.4 299.832 253.4C300.499 253.4 301.086 253.307 301.592 253.12C302.126 252.907 302.712 252.627 303.352 252.28C303.752 252.04 304.099 251.867 304.392 251.76C304.686 251.627 304.979 251.56 305.272 251.56C305.699 251.56 306.059 251.747 306.352 252.12C306.646 252.493 306.792 252.96 306.792 253.52C306.792 253.973 306.686 254.373 306.472 254.72C306.286 255.04 305.966 255.333 305.512 255.6C304.686 256.133 303.726 256.56 302.632 256.88C301.539 257.173 300.419 257.32 299.272 257.32ZM321.563 236.96C326.15 236.96 328.443 239.64 328.443 245V254.84C328.443 255.587 328.217 256.173 327.763 256.6C327.337 257.027 326.737 257.24 325.963 257.24C325.19 257.24 324.577 257.027 324.123 256.6C323.67 256.173 323.443 255.587 323.443 254.84V245C323.443 243.587 323.15 242.56 322.563 241.92C322.003 241.253 321.11 240.92 319.883 240.92C318.443 240.92 317.283 241.373 316.403 242.28C315.55 243.187 315.123 244.4 315.123 245.92V254.84C315.123 255.587 314.897 256.173 314.443 256.6C313.99 257.027 313.377 257.24 312.603 257.24C311.83 257.24 311.217 257.027 310.763 256.6C310.337 256.173 310.123 255.587 310.123 254.84V230.92C310.123 230.227 310.35 229.667 310.803 229.24C311.283 228.813 311.897 228.6 312.643 228.6C313.39 228.6 313.99 228.8 314.443 229.2C314.897 229.6 315.123 230.147 315.123 230.84V240.16C315.79 239.12 316.67 238.333 317.763 237.8C318.883 237.24 320.15 236.96 321.563 236.96ZM342.442 257.32C340.442 257.32 338.682 256.907 337.162 256.08C335.669 255.253 334.509 254.067 333.682 252.52C332.855 250.973 332.442 249.173 332.442 247.12C332.442 245.067 332.855 243.28 333.682 241.76C334.509 240.213 335.669 239.027 337.162 238.2C338.682 237.373 340.442 236.96 342.442 236.96C344.442 236.96 346.189 237.373 347.682 238.2C349.202 239.027 350.362 240.213 351.162 241.76C351.989 243.28 352.402 245.067 352.402 247.12C352.402 249.173 351.989 250.973 351.162 252.52C350.362 254.067 349.202 255.253 347.682 256.08C346.189 256.907 344.442 257.32 342.442 257.32ZM342.402 253.44C344.029 253.44 345.269 252.907 346.122 251.84C346.975 250.773 347.402 249.2 347.402 247.12C347.402 245.067 346.975 243.507 346.122 242.44C345.269 241.347 344.042 240.8 342.442 240.8C340.842 240.8 339.602 241.347 338.722 242.44C337.869 243.507 337.442 245.067 337.442 247.12C337.442 249.2 337.869 250.773 338.722 251.84C339.575 252.907 340.802 253.44 342.402 253.44ZM365.45 257.32C363.45 257.32 361.69 256.907 360.17 256.08C358.676 255.253 357.516 254.067 356.69 252.52C355.863 250.973 355.45 249.173 355.45 247.12C355.45 245.067 355.863 243.28 356.69 241.76C357.516 240.213 358.676 239.027 360.17 238.2C361.69 237.373 363.45 236.96 365.45 236.96C367.45 236.96 369.196 237.373 370.69 238.2C372.21 239.027 373.37 240.213 374.17 241.76C374.996 243.28 375.41 245.067 375.41 247.12C375.41 249.173 374.996 250.973 374.17 252.52C373.37 254.067 372.21 255.253 370.69 256.08C369.196 256.907 367.45 257.32 365.45 257.32ZM365.41 253.44C367.036 253.44 368.276 252.907 369.13 251.84C369.983 250.773 370.41 249.2 370.41 247.12C370.41 245.067 369.983 243.507 369.13 242.44C368.276 241.347 367.05 240.8 365.45 240.8C363.85 240.8 362.61 241.347 361.73 242.44C360.876 243.507 360.45 245.067 360.45 247.12C360.45 249.2 360.876 250.773 361.73 251.84C362.583 252.907 363.81 253.44 365.41 253.44ZM382.018 257.24C381.298 257.24 380.698 257.04 380.218 256.64C379.764 256.213 379.538 255.613 379.538 254.84V230.96C379.538 230.187 379.764 229.6 380.218 229.2C380.698 228.8 381.298 228.6 382.018 228.6C382.738 228.6 383.338 228.8 383.818 229.2C384.298 229.6 384.538 230.187 384.538 230.96V254.84C384.538 255.613 384.298 256.213 383.818 256.64C383.338 257.04 382.738 257.24 382.018 257.24ZM392.174 257.24C391.454 257.24 390.854 257.04 390.374 256.64C389.92 256.213 389.694 255.613 389.694 254.84V239.4C389.694 238.627 389.92 238.04 390.374 237.64C390.854 237.24 391.454 237.04 392.174 237.04C392.894 237.04 393.494 237.24 393.974 237.64C394.454 238.04 394.694 238.627 394.694 239.4V254.84C394.694 255.613 394.454 256.213 393.974 256.64C393.494 257.04 392.894 257.24 392.174 257.24ZM392.174 233.48C391.267 233.48 390.547 233.24 390.014 232.76C389.48 232.253 389.214 231.6 389.214 230.8C389.214 230 389.48 229.36 390.014 228.88C390.547 228.4 391.267 228.16 392.174 228.16C393.054 228.16 393.76 228.4 394.294 228.88C394.854 229.36 395.134 230 395.134 230.8C395.134 231.6 394.867 232.253 394.334 232.76C393.8 233.24 393.08 233.48 392.174 233.48ZM411.21 236.96C413.557 236.96 415.303 237.627 416.45 238.96C417.597 240.293 418.17 242.307 418.17 245V254.84C418.17 255.587 417.943 256.173 417.49 256.6C417.063 257.027 416.463 257.24 415.69 257.24C414.917 257.24 414.303 257.027 413.85 256.6C413.397 256.173 413.17 255.587 413.17 254.84V245.28C413.17 243.76 412.877 242.653 412.29 241.96C411.73 241.267 410.837 240.92 409.61 240.92C408.17 240.92 407.01 241.373 406.13 242.28C405.277 243.187 404.85 244.4 404.85 245.92V254.84C404.85 255.587 404.623 256.173 404.17 256.6C403.717 257.027 403.103 257.24 402.33 257.24C401.557 257.24 400.943 257.027 400.49 256.6C400.063 256.173 399.85 255.587 399.85 254.84V239.36C399.85 238.667 400.077 238.107 400.53 237.68C400.983 237.253 401.597 237.04 402.37 237.04C403.063 237.04 403.623 237.253 404.05 237.68C404.503 238.08 404.73 238.613 404.73 239.28V240.36C405.397 239.267 406.29 238.427 407.41 237.84C408.53 237.253 409.797 236.96 411.21 236.96ZM439.808 237.04C440.555 237.04 441.155 237.253 441.608 237.68C442.062 238.107 442.288 238.68 442.288 239.4V255.2C442.288 258.267 441.435 260.587 439.728 262.16C438.022 263.733 435.502 264.52 432.168 264.52C429.262 264.52 426.835 263.973 424.888 262.88C423.902 262.293 423.408 261.587 423.408 260.76C423.408 260.173 423.542 259.707 423.808 259.36C424.102 259.013 424.475 258.84 424.928 258.84C425.168 258.84 425.462 258.893 425.808 259C426.155 259.133 426.515 259.28 426.888 259.44C427.848 259.84 428.702 260.147 429.448 260.36C430.222 260.573 431.102 260.68 432.088 260.68C435.582 260.68 437.328 258.973 437.328 255.56V253C436.742 254.093 435.888 254.947 434.768 255.56C433.648 256.147 432.368 256.44 430.928 256.44C429.222 256.44 427.702 256.04 426.368 255.24C425.062 254.413 424.035 253.267 423.288 251.8C422.542 250.333 422.168 248.64 422.168 246.72C422.168 244.8 422.528 243.107 423.248 241.64C423.995 240.147 425.035 239 426.368 238.2C427.702 237.373 429.222 236.96 430.928 236.96C432.368 236.96 433.648 237.267 434.768 237.88C435.888 238.467 436.742 239.307 437.328 240.4V239.36C437.328 238.667 437.555 238.107 438.008 237.68C438.462 237.253 439.062 237.04 439.808 237.04ZM432.248 252.56C433.848 252.56 435.088 252.04 435.968 251C436.875 249.96 437.328 248.533 437.328 246.72C437.328 244.88 436.875 243.44 435.968 242.4C435.088 241.36 433.848 240.84 432.248 240.84C430.675 240.84 429.435 241.36 428.528 242.4C427.622 243.44 427.168 244.88 427.168 246.72C427.168 248.533 427.622 249.96 428.528 251C429.435 252.04 430.675 252.56 432.248 252.56ZM468.487 253.52C469.82 253.6 470.487 254.2 470.487 255.32C470.487 255.96 470.22 256.453 469.687 256.8C469.18 257.12 468.447 257.253 467.487 257.2L466.407 257.12C461.927 256.8 459.687 254.4 459.687 249.92V241.2H457.687C456.967 241.2 456.407 241.04 456.007 240.72C455.633 240.4 455.447 239.933 455.447 239.32C455.447 238.707 455.633 238.24 456.007 237.92C456.407 237.6 456.967 237.44 457.687 237.44H459.687V233.76C459.687 233.04 459.913 232.467 460.367 232.04C460.82 231.613 461.433 231.4 462.207 231.4C462.953 231.4 463.553 231.613 464.007 232.04C464.46 232.467 464.687 233.04 464.687 233.76V237.44H468.087C468.807 237.44 469.353 237.6 469.727 237.92C470.127 238.24 470.327 238.707 470.327 239.32C470.327 239.933 470.127 240.4 469.727 240.72C469.353 241.04 468.807 241.2 468.087 241.2H464.687V250.28C464.687 252.253 465.593 253.307 467.407 253.44L468.487 253.52ZM482.012 257.32C480.012 257.32 478.252 256.907 476.732 256.08C475.239 255.253 474.079 254.067 473.252 252.52C472.426 250.973 472.012 249.173 472.012 247.12C472.012 245.067 472.426 243.28 473.252 241.76C474.079 240.213 475.239 239.027 476.732 238.2C478.252 237.373 480.012 236.96 482.012 236.96C484.012 236.96 485.759 237.373 487.252 238.2C488.772 239.027 489.932 240.213 490.732 241.76C491.559 243.28 491.972 245.067 491.972 247.12C491.972 249.173 491.559 250.973 490.732 252.52C489.932 254.067 488.772 255.253 487.252 256.08C485.759 256.907 484.012 257.32 482.012 257.32ZM481.972 253.44C483.599 253.44 484.839 252.907 485.692 251.84C486.546 250.773 486.972 249.2 486.972 247.12C486.972 245.067 486.546 243.507 485.692 242.44C484.839 241.347 483.612 240.8 482.012 240.8C480.412 240.8 479.172 241.347 478.292 242.44C477.439 243.507 477.012 245.067 477.012 247.12C477.012 249.2 477.439 250.773 478.292 251.84C479.146 252.907 480.372 253.44 481.972 253.44ZM517.119 253.52C518.453 253.6 519.119 254.2 519.119 255.32C519.119 255.96 518.853 256.453 518.319 256.8C517.813 257.12 517.079 257.253 516.119 257.2L515.039 257.12C510.559 256.8 508.319 254.4 508.319 249.92V241.2H506.319C505.599 241.2 505.039 241.04 504.639 240.72C504.266 240.4 504.079 239.933 504.079 239.32C504.079 238.707 504.266 238.24 504.639 237.92C505.039 237.6 505.599 237.44 506.319 237.44H508.319V233.76C508.319 233.04 508.546 232.467 508.999 232.04C509.453 231.613 510.066 231.4 510.839 231.4C511.586 231.4 512.186 231.613 512.639 232.04C513.093 232.467 513.319 233.04 513.319 233.76V237.44H516.719C517.439 237.44 517.986 237.6 518.359 237.92C518.759 238.24 518.959 238.707 518.959 239.32C518.959 239.933 518.759 240.4 518.359 240.72C517.986 241.04 517.439 241.2 516.719 241.2H513.319V250.28C513.319 252.253 514.226 253.307 516.039 253.44L517.119 253.52ZM533.165 236.96C537.752 236.96 540.045 239.64 540.045 245V254.84C540.045 255.587 539.818 256.173 539.365 256.6C538.938 257.027 538.338 257.24 537.565 257.24C536.792 257.24 536.178 257.027 535.725 256.6C535.272 256.173 535.045 255.587 535.045 254.84V245C535.045 243.587 534.752 242.56 534.165 241.92C533.605 241.253 532.712 240.92 531.485 240.92C530.045 240.92 528.885 241.373 528.005 242.28C527.152 243.187 526.725 244.4 526.725 245.92V254.84C526.725 255.587 526.498 256.173 526.045 256.6C525.592 257.027 524.978 257.24 524.205 257.24C523.432 257.24 522.818 257.027 522.365 256.6C521.938 256.173 521.725 255.587 521.725 254.84V230.92C521.725 230.227 521.952 229.667 522.405 229.24C522.885 228.813 523.498 228.6 524.245 228.6C524.992 228.6 525.592 228.8 526.045 229.2C526.498 229.6 526.725 230.147 526.725 230.84V240.16C527.392 239.12 528.272 238.333 529.365 237.8C530.485 237.24 531.752 236.96 533.165 236.96ZM560.603 251.64C561.057 251.64 561.417 251.813 561.683 252.16C561.977 252.507 562.123 252.973 562.123 253.56C562.123 254.387 561.63 255.08 560.643 255.64C559.737 256.147 558.71 256.56 557.563 256.88C556.417 257.173 555.323 257.32 554.283 257.32C551.137 257.32 548.643 256.413 546.803 254.6C544.963 252.787 544.043 250.307 544.043 247.16C544.043 245.16 544.443 243.387 545.243 241.84C546.043 240.293 547.163 239.093 548.603 238.24C550.07 237.387 551.723 236.96 553.563 236.96C555.323 236.96 556.857 237.347 558.163 238.12C559.47 238.893 560.483 239.987 561.203 241.4C561.923 242.813 562.283 244.48 562.283 246.4C562.283 247.547 561.777 248.12 560.763 248.12H548.963C549.123 249.96 549.643 251.32 550.523 252.2C551.403 253.053 552.683 253.48 554.363 253.48C555.217 253.48 555.963 253.373 556.603 253.16C557.27 252.947 558.017 252.653 558.843 252.28C559.643 251.853 560.23 251.64 560.603 251.64ZM553.683 240.48C552.323 240.48 551.23 240.907 550.403 241.76C549.603 242.613 549.123 243.84 548.963 245.44H558.003C557.95 243.813 557.55 242.587 556.803 241.76C556.057 240.907 555.017 240.48 553.683 240.48ZM588.593 236.96C590.939 236.96 592.686 237.627 593.833 238.96C594.979 240.293 595.553 242.307 595.553 245V254.84C595.553 255.587 595.326 256.173 594.873 256.6C594.446 257.027 593.846 257.24 593.073 257.24C592.299 257.24 591.686 257.027 591.233 256.6C590.779 256.173 590.553 255.587 590.553 254.84V245.28C590.553 243.76 590.259 242.653 589.673 241.96C589.113 241.267 588.219 240.92 586.993 240.92C585.553 240.92 584.393 241.373 583.513 242.28C582.659 243.187 582.233 244.4 582.233 245.92V254.84C582.233 255.587 582.006 256.173 581.553 256.6C581.099 257.027 580.486 257.24 579.713 257.24C578.939 257.24 578.326 257.027 577.873 256.6C577.446 256.173 577.233 255.587 577.233 254.84V239.36C577.233 238.667 577.459 238.107 577.913 237.68C578.366 237.253 578.979 237.04 579.753 237.04C580.446 237.04 581.006 237.253 581.433 237.68C581.886 238.08 582.113 238.613 582.113 239.28V240.36C582.779 239.267 583.673 238.427 584.793 237.84C585.913 237.253 587.179 236.96 588.593 236.96ZM616.111 251.64C616.565 251.64 616.925 251.813 617.191 252.16C617.485 252.507 617.631 252.973 617.631 253.56C617.631 254.387 617.138 255.08 616.151 255.64C615.245 256.147 614.218 256.56 613.071 256.88C611.925 257.173 610.831 257.32 609.791 257.32C606.645 257.32 604.151 256.413 602.311 254.6C600.471 252.787 599.551 250.307 599.551 247.16C599.551 245.16 599.951 243.387 600.751 241.84C601.551 240.293 602.671 239.093 604.111 238.24C605.578 237.387 607.231 236.96 609.071 236.96C610.831 236.96 612.365 237.347 613.671 238.12C614.978 238.893 615.991 239.987 616.711 241.4C617.431 242.813 617.791 244.48 617.791 246.4C617.791 247.547 617.285 248.12 616.271 248.12H604.471C604.631 249.96 605.151 251.32 606.031 252.2C606.911 253.053 608.191 253.48 609.871 253.48C610.725 253.48 611.471 253.373 612.111 253.16C612.778 252.947 613.525 252.653 614.351 252.28C615.151 251.853 615.738 251.64 616.111 251.64ZM609.191 240.48C607.831 240.48 606.738 240.907 605.911 241.76C605.111 242.613 604.631 243.84 604.471 245.44H613.511C613.458 243.813 613.058 242.587 612.311 241.76C611.565 240.907 610.525 240.48 609.191 240.48ZM638.724 253.32C639.204 253.8 639.444 254.347 639.444 254.96C639.444 255.547 639.217 256.08 638.764 256.56C638.311 257.013 637.777 257.24 637.164 257.24C636.497 257.24 635.924 256.96 635.444 256.4L629.804 250.16L624.164 256.4C623.657 256.933 623.084 257.2 622.444 257.2C621.857 257.2 621.337 256.973 620.884 256.52C620.431 256.067 620.204 255.547 620.204 254.96C620.204 254.347 620.444 253.8 620.924 253.32L626.764 246.96L621.244 240.96C620.764 240.48 620.524 239.933 620.524 239.32C620.524 238.707 620.751 238.187 621.204 237.76C621.657 237.307 622.177 237.08 622.764 237.08C623.404 237.08 623.977 237.347 624.484 237.88L629.804 243.72L635.124 237.88C635.631 237.347 636.204 237.08 636.844 237.08C637.457 237.08 637.977 237.307 638.404 237.76C638.857 238.187 639.084 238.707 639.084 239.32C639.084 239.933 638.844 240.48 638.364 240.96L632.844 246.96L638.724 253.32ZM653.213 253.52C654.546 253.6 655.213 254.2 655.213 255.32C655.213 255.96 654.946 256.453 654.413 256.8C653.906 257.12 653.173 257.253 652.213 257.2L651.133 257.12C646.653 256.8 644.413 254.4 644.413 249.92V241.2H642.413C641.693 241.2 641.133 241.04 640.733 240.72C640.36 240.4 640.173 239.933 640.173 239.32C640.173 238.707 640.36 238.24 640.733 237.92C641.133 237.6 641.693 237.44 642.413 237.44H644.413V233.76C644.413 233.04 644.64 232.467 645.093 232.04C645.546 231.613 646.16 231.4 646.933 231.4C647.68 231.4 648.28 231.613 648.733 232.04C649.186 232.467 649.413 233.04 649.413 233.76V237.44H652.813C653.533 237.44 654.08 237.6 654.453 237.92C654.853 238.24 655.053 238.707 655.053 239.32C655.053 239.933 654.853 240.4 654.453 240.72C654.08 241.04 653.533 241.2 652.813 241.2H649.413V250.28C649.413 252.253 650.32 253.307 652.133 253.44L653.213 253.52ZM671.158 257.24C670.438 257.24 669.838 257.04 669.358 256.64C668.905 256.213 668.678 255.613 668.678 254.84V230.96C668.678 230.187 668.905 229.6 669.358 229.2C669.838 228.8 670.438 228.6 671.158 228.6C671.878 228.6 672.478 228.8 672.958 229.2C673.438 229.6 673.678 230.187 673.678 230.96V254.84C673.678 255.613 673.438 256.213 672.958 256.64C672.478 257.04 671.878 257.24 671.158 257.24ZM694.314 251.64C694.768 251.64 695.128 251.813 695.394 252.16C695.688 252.507 695.834 252.973 695.834 253.56C695.834 254.387 695.341 255.08 694.354 255.64C693.448 256.147 692.421 256.56 691.274 256.88C690.128 257.173 689.034 257.32 687.994 257.32C684.848 257.32 682.354 256.413 680.514 254.6C678.674 252.787 677.754 250.307 677.754 247.16C677.754 245.16 678.154 243.387 678.954 241.84C679.754 240.293 680.874 239.093 682.314 238.24C683.781 237.387 685.434 236.96 687.274 236.96C689.034 236.96 690.568 237.347 691.874 238.12C693.181 238.893 694.194 239.987 694.914 241.4C695.634 242.813 695.994 244.48 695.994 246.4C695.994 247.547 695.488 248.12 694.474 248.12H682.674C682.834 249.96 683.354 251.32 684.234 252.2C685.114 253.053 686.394 253.48 688.074 253.48C688.928 253.48 689.674 253.373 690.314 253.16C690.981 252.947 691.728 252.653 692.554 252.28C693.354 251.853 693.941 251.64 694.314 251.64ZM687.394 240.48C686.034 240.48 684.941 240.907 684.114 241.76C683.314 242.613 682.834 243.84 682.674 245.44H691.714C691.661 243.813 691.261 242.587 690.514 241.76C689.768 240.907 688.728 240.48 687.394 240.48ZM713.412 238.48C713.625 238 713.905 237.64 714.252 237.4C714.625 237.16 715.025 237.04 715.452 237.04C716.065 237.04 716.612 237.253 717.092 237.68C717.599 238.08 717.852 238.587 717.852 239.2C717.852 239.52 717.772 239.84 717.612 240.16L710.212 255.64C709.972 256.147 709.625 256.533 709.172 256.8C708.745 257.067 708.265 257.2 707.732 257.2C707.225 257.2 706.732 257.067 706.252 256.8C705.799 256.533 705.452 256.147 705.212 255.64L697.772 240.16C697.639 239.893 697.572 239.587 697.572 239.24C697.572 238.627 697.825 238.107 698.332 237.68C698.865 237.253 699.465 237.04 700.132 237.04C701.092 237.04 701.799 237.507 702.252 238.44L707.852 250.8L713.412 238.48ZM735.994 251.64C736.447 251.64 736.807 251.813 737.074 252.16C737.367 252.507 737.514 252.973 737.514 253.56C737.514 254.387 737.021 255.08 736.034 255.64C735.127 256.147 734.101 256.56 732.954 256.88C731.807 257.173 730.714 257.32 729.674 257.32C726.527 257.32 724.034 256.413 722.194 254.6C720.354 252.787 719.434 250.307 719.434 247.16C719.434 245.16 719.834 243.387 720.634 241.84C721.434 240.293 722.554 239.093 723.994 238.24C725.461 237.387 727.114 236.96 728.954 236.96C730.714 236.96 732.247 237.347 733.554 238.12C734.861 238.893 735.874 239.987 736.594 241.4C737.314 242.813 737.674 244.48 737.674 246.4C737.674 247.547 737.167 248.12 736.154 248.12H724.354C724.514 249.96 725.034 251.32 725.914 252.2C726.794 253.053 728.074 253.48 729.754 253.48C730.607 253.48 731.354 253.373 731.994 253.16C732.661 252.947 733.407 252.653 734.234 252.28C735.034 251.853 735.621 251.64 735.994 251.64ZM729.074 240.48C727.714 240.48 726.621 240.907 725.794 241.76C724.994 242.613 724.514 243.84 724.354 245.44H733.394C733.341 243.813 732.941 242.587 732.194 241.76C731.447 240.907 730.407 240.48 729.074 240.48ZM744.244 257.24C743.524 257.24 742.924 257.04 742.444 256.64C741.991 256.213 741.764 255.613 741.764 254.84V230.96C741.764 230.187 741.991 229.6 742.444 229.2C742.924 228.8 743.524 228.6 744.244 228.6C744.964 228.6 745.564 228.8 746.044 229.2C746.524 229.6 746.764 230.187 746.764 230.96V254.84C746.764 255.613 746.524 256.213 746.044 256.64C745.564 257.04 744.964 257.24 744.244 257.24ZM754.28 248.84C753.88 248.84 753.534 248.707 753.24 248.44C752.974 248.173 752.814 247.787 752.76 247.28L751.28 231.72L751.24 231.32C751.24 230.493 751.52 229.84 752.08 229.36C752.667 228.853 753.4 228.6 754.28 228.6C755.16 228.6 755.88 228.853 756.44 229.36C757.027 229.84 757.32 230.493 757.32 231.32L757.28 231.76L755.8 247.28C755.747 247.787 755.574 248.173 755.28 248.44C755.014 248.707 754.68 248.84 754.28 248.84ZM754.28 257.24C753.427 257.24 752.72 256.96 752.16 256.4C751.6 255.813 751.32 255.093 751.32 254.24C751.32 253.387 751.6 252.68 752.16 252.12C752.72 251.533 753.427 251.24 754.28 251.24C755.134 251.24 755.84 251.533 756.4 252.12C756.96 252.68 757.24 253.387 757.24 254.24C757.24 255.093 756.96 255.813 756.4 256.4C755.84 256.96 755.134 257.24 754.28 257.24Z" fill="#0E269D"/>
<path d="M1174.08 267.91C1014.98 188.945 977.404 36 986 0H1443V467.019C1348.5 467.019 1344.5 423.5 1329.31 400.438C1317.86 383.065 1320.73 372.22 1279.21 372.22C1245 372.22 1235.5 356.5 1226.25 331.638C1212.75 295.313 1206.5 284 1174.08 267.91Z" fill="#03146C"/>
<path d="M1174.08 267.91C1014.98 188.945 977.404 36 986 0H1443V467.019C1348.5 467.019 1344.5 423.5 1329.31 400.438C1317.86 383.065 1320.73 372.22 1279.21 372.22C1245 372.22 1235.5 356.5 1226.25 331.638C1212.75 295.313 1206.5 284 1174.08 267.91Z" fill="#03146C"/>
<rect x="937.989" y="195.103" width="33.9796" height="33.9796" rx="8.5" transform="rotate(37.442 937.989 195.103)" stroke="#12CDFE" stroke-width="3"/>
<rect x="736.509" y="327.103" width="22.0517" height="22.0517" rx="7.5" transform="rotate(37.442 736.509 327.103)" stroke="#03146C" stroke-width="3"/>
<path d="M889.038 356.918L904.412 368.171C905.965 369.308 905.705 371.699 903.944 372.476L886.512 380.164C884.751 380.94 882.81 379.519 883.018 377.606L885.076 358.665C885.284 356.752 887.485 355.781 889.038 356.918Z" stroke="#FFDD60" stroke-width="3"/>
<path d="M1211.7 403.986L1204.21 421.503C1203.45 423.272 1201.06 423.559 1199.91 422.019L1188.48 406.771C1187.33 405.231 1188.28 403.019 1190.19 402.79L1209.1 400.52C1211.01 400.291 1212.46 402.216 1211.7 403.986Z" stroke="#08CDFF" stroke-width="3"/>
<circle cx="1066" cy="328" r="14.5" stroke="#031567" stroke-width="3"/>
<circle cx="817.5" cy="107.5" r="7" stroke="#FFDD60" stroke-width="3"/>
<circle cx="68" cy="448" r="32" fill="#031567"/>
<path d="M70.5 355L105.574 415.75H35.426L70.5 355Z" fill="#12CDFE"/>
<rect x="41" y="480" width="56" height="57" fill="#FFDD60"/>
<circle cx="1141" cy="38" r="6" fill="white"/>
<circle cx="1359" cy="128" r="3" fill="white"/>
<circle cx="1418" cy="94" r="3" fill="#FFDD60"/>
<path d="M1409.83 306.374C1409.83 306.374 1324.42 248.76 1318.57 246.075C1316.99 245.345 1315.32 245 1313.68 245C1309.27 245 1305.06 247.485 1303.08 251.71C1301.94 254.153 1301.73 256.789 1302.31 259.221C1302.73 259.378 1303.02 259.776 1303.02 260.242C1303.02 260.47 1302.95 260.68 1302.83 260.856C1303.9 263.509 1305.95 265.777 1308.77 267.073C1314.61 269.759 1409.83 306.374 1409.83 306.374" fill="#0E269D"/>
<path d="M1304.65 252.428C1302.34 257.371 1304.51 263.232 1309.49 265.522C1314.47 267.811 1320.38 265.661 1322.69 260.72C1325 255.777 1322.83 249.915 1317.85 247.626C1312.87 245.337 1306.95 247.487 1304.65 252.428Z" fill="#08CDFF"/>
<path d="M1263 150.135C1263 150.135 1209.93 114.336 1206.3 112.668C1205.31 112.214 1204.28 112 1203.26 112C1200.52 112 1197.9 113.544 1196.67 116.169C1195.96 117.687 1195.83 119.325 1196.19 120.836C1196.45 120.934 1196.63 121.181 1196.63 121.471C1196.63 121.612 1196.59 121.743 1196.52 121.852C1197.18 123.5 1198.45 124.91 1200.2 125.715C1203.84 127.384 1263 150.135 1263 150.135" fill="#0E269D"/>
<path d="M1197.64 116.616C1196.21 119.687 1197.56 123.328 1200.65 124.751C1203.75 126.174 1207.42 124.838 1208.86 121.767C1210.29 118.696 1208.94 115.054 1205.85 113.632C1202.75 112.209 1199.08 113.545 1197.64 116.616Z" fill="#08CDFF"/>
<path d="M1286.05 89.9271C1286.35 89.0057 1287.65 89.0057 1287.95 89.9271L1288.12 90.4549C1288.26 90.8669 1288.64 91.1459 1289.07 91.1459H1289.63C1290.6 91.1459 1291 92.3855 1290.22 92.9549L1289.77 93.2812C1289.42 93.5358 1289.27 93.9872 1289.4 94.3992L1289.58 94.927C1289.88 95.8484 1288.82 96.6145 1288.04 96.0451L1287.59 95.7188C1287.24 95.4642 1286.76 95.4642 1286.41 95.7188L1285.96 96.0451C1285.18 96.6145 1284.12 95.8484 1284.42 94.9271L1284.6 94.3992C1284.73 93.9872 1284.58 93.5358 1284.23 93.2812L1283.78 92.9549C1283 92.3855 1283.4 91.1459 1284.37 91.1459H1284.93C1285.36 91.1459 1285.74 90.8669 1285.88 90.4549L1286.05 89.9271Z" fill="#FFDD60"/>
<circle cx="1079" cy="93" r="3" fill="#08CDFF"/>
<circle cx="1356" cy="29" r="3" fill="#08CDFF"/>
<circle cx="1119" cy="473" r="21" fill="#031567"/>
<path d="M1120.5 412L1143.45 451.75H1097.55L1120.5 412Z" fill="#12CDFE"/>
<rect x="1101" y="494" width="37" height="37" fill="#FFDD60"/>
</g>
<defs>
<clipPath id="clip0">
<rect width="1456" height="531" fill="white"/>
</clipPath>
</defs>
</svg>
