<svg width="1440" height="565" viewBox="0 0 1440 565" fill="none" xmlns="http://www.w3.org/2000/svg">
<rect x="1314.24" y="149.809" width="32" height="32" rx="4.5" transform="rotate(55.6922 1314.24 149.809)" stroke="#A8B8E0" stroke-width="3"/>
<rect x="-0.482929" y="461.084" width="32" height="32" rx="4.5" transform="rotate(55.6922 -0.482929 461.084)" stroke="#A8B8E0" stroke-width="3"/>
<circle cx="1399.16" cy="340.771" r="13" transform="rotate(43.1908 1399.16 340.771)" stroke="#CFF5FF" stroke-width="3"/>
<path d="M1271.27 372.238C1272.95 369.208 1277.28 369.132 1279.06 372.101L1289.77 389.916C1291.55 392.885 1289.46 396.673 1285.99 396.733L1265.21 397.098C1261.75 397.159 1259.52 393.447 1261.2 390.417L1271.27 372.238Z" stroke="#CFF5FF" stroke-width="3"/>
<path d="M1272.27 496.647L1273.76 496.532C1273.7 495.758 1273.06 495.158 1272.29 495.147L1272.27 496.647ZM1273.06 506.998L1271.57 507.113C1271.63 507.887 1272.27 508.487 1273.04 508.498L1273.06 506.998ZM1283.44 507.142L1284.94 507.026C1284.88 506.253 1284.24 505.652 1283.47 505.642L1283.44 507.142ZM1284.24 517.492L1282.75 517.608C1282.81 518.381 1283.45 518.982 1284.22 518.992L1284.24 517.492ZM1294.62 517.636L1296.12 517.521C1296.06 516.747 1295.42 516.147 1294.64 516.136L1294.62 517.636ZM1293.93 528.102C1293.99 528.928 1294.71 529.546 1295.54 529.483C1296.36 529.419 1296.98 528.698 1296.92 527.872L1293.93 528.102ZM1261.86 498.003L1272.24 498.147L1272.29 495.147L1261.91 495.003L1261.86 498.003ZM1270.77 496.762L1271.57 507.113L1274.56 506.882L1273.76 496.532L1270.77 496.762ZM1273.04 508.498L1283.42 508.641L1283.47 505.642L1273.08 505.498L1273.04 508.498ZM1281.95 507.257L1282.75 517.608L1285.74 517.377L1284.94 507.026L1281.95 507.257ZM1284.22 518.992L1294.6 519.136L1294.64 516.136L1284.26 515.993L1284.22 518.992ZM1293.13 517.752L1293.93 528.102L1296.92 527.872L1296.12 517.521L1293.13 517.752Z" fill="#A8B8E0"/>
<path d="M1272.27 496.647L1273.76 496.532C1273.7 495.758 1273.06 495.158 1272.29 495.147L1272.27 496.647ZM1273.06 506.998L1271.57 507.113C1271.63 507.887 1272.27 508.487 1273.04 508.498L1273.06 506.998ZM1283.44 507.142L1284.94 507.026C1284.88 506.253 1284.24 505.652 1283.47 505.642L1283.44 507.142ZM1284.24 517.492L1282.75 517.608C1282.81 518.381 1283.45 518.982 1284.22 518.992L1284.24 517.492ZM1294.62 517.636L1296.12 517.521C1296.06 516.747 1295.42 516.147 1294.64 516.136L1294.62 517.636ZM1293.93 528.102C1293.99 528.928 1294.71 529.546 1295.54 529.483C1296.36 529.419 1296.98 528.698 1296.92 527.872L1293.93 528.102ZM1261.86 498.003L1272.24 498.147L1272.29 495.147L1261.91 495.003L1261.86 498.003ZM1270.77 496.762L1271.57 507.113L1274.56 506.882L1273.76 496.532L1270.77 496.762ZM1273.04 508.498L1283.42 508.641L1283.47 505.642L1273.08 505.498L1273.04 508.498ZM1281.95 507.257L1282.75 517.608L1285.74 517.377L1284.94 507.026L1281.95 507.257ZM1284.22 518.992L1294.6 519.136L1294.64 516.136L1284.26 515.993L1284.22 518.992ZM1293.13 517.752L1293.93 528.102L1296.92 527.872L1296.12 517.521L1293.13 517.752Z" fill="#A8B8E0"/>
<rect width="1440" height="565" fill="#0E269D" fill-opacity="0.03"/>
<circle cx="157.115" cy="345.404" r="13" transform="rotate(-45 157.115 345.404)" stroke="#0E269D" stroke-opacity="0.32" stroke-width="3"/>
<path d="M175.957 515.978C172.982 514.204 173.043 509.874 176.067 508.185L194.211 498.046C197.235 496.356 200.954 498.574 200.906 502.037L200.614 522.82C200.565 526.284 196.785 528.396 193.81 526.622L175.957 515.978Z" stroke="#CFF5FF" stroke-width="3"/>
<path d="M54.0312 222.031C51.0558 220.257 51.1166 215.928 54.1406 214.238L72.2847 204.099C75.3088 202.409 79.028 204.627 78.9794 208.091L78.6876 228.873C78.639 232.337 74.859 234.449 71.8836 232.675L54.0312 222.031Z" stroke="#CFF5FF" stroke-width="3"/>
<path d="M308.907 477.162L308.839 475.663C308.064 475.699 307.444 476.319 307.409 477.094L308.907 477.162ZM319.278 476.69L319.346 478.189C320.121 478.154 320.741 477.533 320.776 476.758L319.278 476.69ZM319.749 466.319L319.681 464.821C318.906 464.856 318.286 465.476 318.251 466.251L319.749 466.319ZM330.12 465.848L330.188 467.346C330.963 467.311 331.583 466.691 331.619 465.916L330.12 465.848ZM330.592 455.477L330.523 453.979C329.749 454.014 329.128 454.634 329.093 455.409L330.592 455.477ZM341.031 456.504C341.858 456.467 342.499 455.765 342.461 454.938C342.423 454.11 341.722 453.47 340.894 453.507L341.031 456.504ZM309.934 487.601L310.405 477.23L307.409 477.094L306.937 487.465L309.934 487.601ZM308.975 478.66L319.346 478.189L319.21 475.192L308.839 475.663L308.975 478.66ZM320.776 476.758L321.248 466.388L318.251 466.251L317.779 476.622L320.776 476.758ZM319.817 467.818L330.188 467.346L330.052 464.35L319.681 464.821L319.817 467.818ZM331.619 465.916L332.09 455.545L329.093 455.409L328.622 465.78L331.619 465.916ZM330.66 456.976L341.031 456.504L340.894 453.507L330.523 453.979L330.66 456.976Z" fill="#A8B8E0"/>
<path d="M197.421 240.106L197.353 238.607C196.578 238.642 195.958 239.263 195.923 240.038L197.421 240.106ZM207.792 239.634L207.86 241.133C208.635 241.098 209.255 240.477 209.291 239.702L207.792 239.634ZM208.263 229.263L208.195 227.765C207.42 227.8 206.8 228.42 206.765 229.195L208.263 229.263ZM218.634 228.792L218.702 230.29C219.477 230.255 220.098 229.635 220.133 228.86L218.634 228.792ZM219.106 218.421L219.038 216.923C218.263 216.958 217.643 217.578 217.607 218.353L219.106 218.421ZM229.545 219.448C230.372 219.411 231.013 218.709 230.975 217.882C230.937 217.054 230.236 216.414 229.409 216.451L229.545 219.448ZM198.448 250.545L198.92 240.174L195.923 240.038L195.451 250.408L198.448 250.545ZM197.489 241.604L207.86 241.133L207.724 238.136L197.353 238.607L197.489 241.604ZM209.291 239.702L209.762 229.332L206.765 229.195L206.294 239.566L209.291 239.702ZM208.332 230.762L218.702 230.29L218.566 227.294L208.195 227.765L208.332 230.762ZM220.133 228.86L220.604 218.489L217.607 218.353L217.136 228.724L220.133 228.86ZM219.174 219.92L229.545 219.448L229.409 216.451L219.038 216.923L219.174 219.92Z" fill="#CFF5FF"/>
</svg>
