<svg width="814" height="363" viewBox="0 0 814 363" fill="none" xmlns="http://www.w3.org/2000/svg">
<circle cx="610" cy="30" r="30" fill="#FFDD60"/>
<circle cx="357" cy="240" r="107" fill="#08CDFF"/>
<path d="M86.287 264.719C86.2858 264.596 86.2858 264.473 86.287 264.351V247.668H94.1171V248.624C96.2035 246.682 98.6905 244.841 101.611 243.154C122.058 231.347 155.194 231.347 175.64 243.154C178.577 244.854 181.085 246.708 183.175 248.666V247.309H191V264.82C190.838 272.462 185.729 280.083 175.64 285.914C155.194 297.723 122.058 297.723 101.611 285.914C91.6731 280.175 86.5831 272.701 86.3056 265.179L86.287 264.719Z" fill="#03C6F8"/>
<path d="M101.61 226.856C81.1685 238.664 81.1685 257.809 101.61 269.616C122.057 281.424 155.193 281.424 175.639 269.616C196.074 257.809 196.074 238.664 175.639 226.856C155.193 215.048 122.057 215.048 101.61 226.856Z" fill="#08CDFF"/>
<path d="M106.346 229.592C88.5194 239.888 88.5194 256.583 106.346 266.881C124.17 277.178 153.08 277.178 170.902 266.881C188.724 256.583 188.724 239.888 170.902 229.592C153.08 219.295 124.17 219.295 106.346 229.592Z" fill="#FEFFFF"/>
<path d="M168.488 232.01C150.654 221.713 121.756 221.713 103.928 232.01C101.657 233.322 99.6829 234.74 97.9912 236.233C100.109 233.841 102.88 231.593 106.346 229.592C124.171 219.295 153.081 219.295 170.903 229.592C186.461 238.577 188.434 252.432 176.836 262.658C185.613 252.749 182.85 240.306 168.488 232.01Z" fill="#0CB9E4"/>
<path d="M165.353 234.473C175.849 240.534 180.121 248.81 178.252 256.696C164.215 258.047 149.307 255.629 138.474 249.37C127.967 243.304 123.694 235.021 125.564 227.131C139.601 225.784 154.52 228.215 165.353 234.473Z" fill="#08CDFF"/>
<path d="M103.913 287.173V270.902L88.8916 279.58V295.85L103.913 287.173Z" fill="#03C6F8"/>
<path d="M78.2451 273.431L96.6894 262.779L107.335 268.929L88.8919 279.58L78.2451 273.431Z" fill="#08CDFF"/>
<path d="M78.2451 273.431V277.992L80.22 276.853L86.9169 280.721V292.428L84.9431 293.569L88.8919 295.85V279.58L78.2451 273.431Z" fill="white"/>
<path d="M86.9167 292.428V280.721L76.0586 286.992V298.7L84.9429 293.569L86.9167 292.428Z" fill="#0CB9E4"/>
<path d="M86.917 280.721L80.2202 276.853L78.2453 277.992L69.3633 283.124L76.059 286.992L86.917 280.721Z" fill="#03C6F8"/>
<path d="M60.0921 277.769L0 312.479L15.9666 321.701L76.0588 286.992L69.3631 283.124L60.0921 277.769Z" fill="#03C6F8"/>
<path d="M76.0592 286.992L15.9668 321.701V344.118L76.0592 309.409V298.7V286.992Z" fill="#08CDFF"/>
<path d="M15.9666 321.701V344.118L0 334.896V312.479L15.9666 321.701Z" fill="#0CB9E4"/>
<path d="M406.917 362.007L379.374 345.083L320 282L406.917 362.007Z" fill="#2030A5"/>
<path d="M318 280.433L420.867 258.635L408.077 284.527L318 280.433Z" fill="#4E61ED"/>
<path d="M497.628 207.945L608.817 122.215L524.079 240.653L497.628 207.945Z" fill="#3F51D3"/>
<path d="M502.64 265.181L463.832 287.06L483.394 287.949L490.024 288.251L494.616 281.832L506.159 265.698L509.159 261.505L502.64 265.181Z" fill="#3F51D3"/>
<path d="M420.867 258.635L465.52 168.24L425.444 285.316L408.076 284.527L420.867 258.635Z" fill="#2030A5"/>
<path d="M552.839 71.3388L552.18 69.6975C552.18 69.6975 552.81 67.9882 556.798 67.3473C560.788 66.7063 560.474 69.3641 560.474 69.3641L552.839 71.3388Z" fill="#3685FC"/>
<path d="M553.22 63.1012L554.899 67.1322L554.698 71.1605L560.269 71.3633L560.068 66.1918L560.135 60.5495L553.22 63.1012Z" fill="#F8BCB4"/>
<path d="M560.24 68.3054C560.222 69.1001 558.589 70.0065 556.442 70.3739C554.308 70.7386 552.474 70.4325 552.179 69.6976C551.949 69.507 552.47 74.6485 554.755 92.1048C555.309 96.3345 533.492 90.4254 525.728 99.8674C520.533 106.186 525.194 121.058 540.286 120.814C555.377 120.569 574.342 119.82 575.658 113.027C576.929 106.468 561.313 70.7509 560.24 68.3054Z" fill="url(#paint0_linear)"/>
<path d="M520.177 271.797C518.455 271.797 516.758 271.216 516.732 268.932C516.713 267.361 516.981 266.222 517.336 265.366C517.406 265.799 517.481 266.115 517.562 266.296C518.04 267.359 520.276 268.437 522.216 268.437C522.599 268.437 522.969 268.394 523.313 268.302C525.321 267.763 526.449 266.346 526.448 265.007C526.448 264.969 526.446 264.931 526.445 264.894V264.893C526.445 264.813 526.962 261.146 527.704 255.858L534.035 251.655C534.109 254.07 534.197 256.514 534.3 258.887C533.804 259.902 533.343 260.796 532.959 261.455C528.23 269.589 525.344 270.562 524.237 270.562C523.889 270.562 523.716 270.466 523.716 270.466L523.777 271.171C523.777 271.171 521.964 271.797 520.177 271.797Z" fill="url(#paint1_linear)"/>
<path d="M526.444 264.894C526.435 264.704 532.095 225.15 532.887 217.523C533.677 209.896 539.419 165.826 539.419 165.826C539.419 165.826 540.62 156.869 539.93 156.537C536.731 154.989 533.108 154.507 523.161 156.381C511.07 158.661 518.515 210.328 517.545 221.334C516.654 231.46 516.341 263.588 517.562 266.296C518.134 267.568 521.225 268.861 523.313 268.302C525.378 267.748 526.511 266.266 526.444 264.894Z" fill="#3685FC"/>
<path d="M516.154 268.437H540.144V155.165H516.154V268.437Z" fill="#3077E2"/>
<path d="M530.897 232.897C530.999 232.155 531.098 231.424 531.195 230.707C531.098 231.424 530.999 232.155 530.897 232.897Z" fill="#E5E5E5"/>
<path d="M531.194 230.707C531.926 225.314 532.53 220.7 532.81 218.218C532.532 220.702 531.925 225.315 531.194 230.707Z" fill="#92B5E3"/>
<path d="M530.896 232.897C530.099 226.063 528.774 215.37 526.72 200.562C524.666 185.743 520.077 180.26 516.207 178.378C516.315 173.922 516.627 169.778 517.258 166.309L521.54 159.585L536.664 167.626C536.624 167.636 536.586 167.644 536.547 167.654C527.588 169.77 530.813 199.005 532.81 218.218C532.493 221.031 531.759 226.578 530.896 232.897Z" fill="#2B6BCB"/>
<path d="M542.353 269.21L551.794 262.299C553.213 261.261 555.108 262.722 554.465 264.359C553.341 267.223 552.013 270.463 551.122 272.171C545.401 283.132 542.3 281.594 542.3 281.594L542.392 282.295C542.392 282.295 535.517 285.026 535.252 280.38C535.033 276.55 536.635 275.215 537.071 274.338C537.163 274.152 537.283 273.995 537.434 273.852L542.181 269.353L542.353 269.21Z" fill="url(#paint2_linear)"/>
<path d="M544.77 275.903C544.752 275.713 548.604 235.942 549.048 228.287C549.491 220.632 553.218 176.346 553.218 176.346C553.218 176.346 554.01 167.343 553.307 167.043C550.04 165.644 546.399 165.328 536.547 167.654C524.574 170.482 534.365 221.755 533.897 232.795C533.467 242.95 534.618 275.059 535.961 277.71C536.59 278.954 539.738 280.104 541.798 279.45C543.835 278.803 544.9 277.27 544.77 275.903Z" fill="#3685FC"/>
<path d="M550.285 211.942C550.374 210.822 550.466 209.681 550.559 208.522C550.466 209.678 550.374 210.823 550.285 211.942ZM550.565 208.455C550.578 208.292 550.592 208.126 550.606 207.961C550.592 208.126 550.578 208.292 550.565 208.455ZM550.608 207.917C550.615 207.834 550.622 207.754 550.629 207.671C550.622 207.753 550.615 207.836 550.608 207.917ZM550.634 207.607C550.637 207.559 550.641 207.513 550.645 207.467C550.641 207.515 550.637 207.559 550.634 207.607ZM550.672 207.139C550.672 207.125 550.674 207.113 550.675 207.101C550.674 207.113 550.672 207.125 550.672 207.139Z" fill="#E5E5E5"/>
<path d="M553.139 177.3C553.139 177.297 553.139 177.296 553.139 177.293C553.139 177.296 553.139 177.297 553.139 177.3ZM553.143 177.254C553.145 177.222 553.147 177.192 553.15 177.162C553.147 177.192 553.145 177.222 553.143 177.254ZM553.151 177.145C553.152 177.141 553.152 177.135 553.152 177.131C553.152 177.137 553.152 177.141 553.151 177.145ZM553.156 177.089C553.158 177.077 553.158 177.064 553.159 177.052C553.158 177.064 553.158 177.077 553.156 177.089ZM553.16 177.041C553.16 177.036 553.16 177.032 553.162 177.026C553.16 177.032 553.16 177.036 553.16 177.041ZM553.162 177.02C553.162 177.017 553.163 177.013 553.163 177.009C553.163 177.013 553.162 177.017 553.162 177.02ZM553.169 176.947C553.169 176.945 553.169 176.943 553.169 176.941C553.169 176.943 553.169 176.945 553.169 176.947ZM553.173 176.9C553.173 176.894 553.173 176.89 553.173 176.886C553.173 176.89 553.173 176.894 553.173 176.9ZM553.175 176.863C553.175 176.86 553.175 176.858 553.175 176.855C553.175 176.858 553.175 176.86 553.175 176.863ZM553.179 176.804C553.181 176.802 553.181 176.8 553.181 176.799C553.181 176.8 553.181 176.802 553.179 176.804ZM553.182 176.777C553.182 176.775 553.182 176.773 553.182 176.772C553.182 176.773 553.182 176.775 553.182 176.777ZM553.188 176.708C553.189 176.701 553.189 176.693 553.19 176.685C553.189 176.693 553.189 176.701 553.188 176.708ZM553.192 176.67C553.192 176.668 553.192 176.667 553.192 176.666C553.192 176.667 553.192 176.668 553.192 176.67ZM553.194 176.64C553.194 176.638 553.194 176.637 553.194 176.636C553.194 176.637 553.194 176.638 553.194 176.64ZM553.199 176.584C553.199 176.58 553.2 176.575 553.2 176.57C553.2 176.575 553.199 176.58 553.199 176.584ZM553.204 176.524C553.204 176.523 553.204 176.523 553.204 176.523C553.204 176.523 553.204 176.523 553.204 176.524ZM553.205 176.5C553.205 176.498 553.205 176.498 553.205 176.497C553.205 176.498 553.205 176.498 553.205 176.5ZM553.211 176.44C553.211 176.438 553.211 176.436 553.211 176.434C553.211 176.436 553.211 176.438 553.211 176.44ZM553.212 176.43C553.212 176.426 553.212 176.423 553.212 176.419C553.212 176.423 553.212 176.426 553.212 176.43ZM553.214 176.414C553.214 176.413 553.214 176.411 553.214 176.41C553.214 176.411 553.214 176.413 553.214 176.414ZM553.214 176.407C553.214 176.4 553.215 176.393 553.215 176.388C553.215 176.395 553.214 176.4 553.214 176.407ZM553.216 176.369V176.368V176.369ZM553.218 176.362C553.218 176.361 553.218 176.361 553.218 176.359C553.218 176.361 553.218 176.361 553.218 176.362Z" fill="#92B5E3"/>
<path d="M550.285 211.942C549.141 209.862 548.108 206.792 547.443 202.183C545.715 190.198 536.063 185.608 530.623 183.948C530.702 181.569 530.875 179.347 531.167 177.354L538.823 167.142C542.723 166.305 545.518 165.953 547.703 165.953C550.086 165.953 551.741 166.373 553.307 167.043C553.522 167.135 553.598 168.046 553.598 169.264C553.6 172.018 553.219 176.346 553.219 176.346C553.219 176.346 553.219 176.347 553.219 176.35C553.217 176.353 553.217 176.355 553.217 176.359C553.217 176.361 553.217 176.361 553.217 176.362C553.217 176.364 553.217 176.366 553.216 176.368V176.369C553.216 176.37 553.216 176.372 553.216 176.374C553.216 176.378 553.215 176.384 553.215 176.388C553.215 176.393 553.213 176.4 553.213 176.407C553.213 176.408 553.213 176.408 553.213 176.41C553.213 176.411 553.213 176.412 553.213 176.414C553.212 176.415 553.212 176.418 553.212 176.419C553.212 176.423 553.212 176.426 553.212 176.43C553.212 176.432 553.211 176.433 553.211 176.434C553.211 176.436 553.211 176.438 553.211 176.44C553.209 176.457 553.208 176.476 553.205 176.497C553.205 176.498 553.205 176.498 553.205 176.5C553.205 176.506 553.204 176.515 553.204 176.523C553.204 176.523 553.204 176.523 553.204 176.524C553.202 176.538 553.201 176.554 553.2 176.57C553.2 176.574 553.198 176.58 553.198 176.584C553.197 176.6 553.196 176.618 553.194 176.636C553.194 176.637 553.194 176.638 553.194 176.64C553.193 176.648 553.193 176.656 553.191 176.666C553.191 176.667 553.191 176.668 553.191 176.67C553.19 176.675 553.19 176.681 553.19 176.685C553.189 176.693 553.189 176.701 553.187 176.708C553.186 176.728 553.185 176.75 553.182 176.772C553.182 176.773 553.182 176.775 553.182 176.777C553.182 176.784 553.181 176.791 553.181 176.799C553.181 176.8 553.181 176.802 553.179 176.804C553.178 176.821 553.177 176.837 553.175 176.855C553.175 176.858 553.175 176.86 553.175 176.863C553.174 176.871 553.174 176.879 553.172 176.886C553.172 176.89 553.172 176.894 553.172 176.9C553.171 176.913 553.17 176.927 553.168 176.941C553.168 176.943 553.168 176.945 553.168 176.947C553.166 176.966 553.164 176.988 553.163 177.009C553.163 177.013 553.162 177.017 553.162 177.019C553.162 177.022 553.162 177.024 553.162 177.026C553.16 177.032 553.16 177.036 553.16 177.041C553.16 177.044 553.159 177.048 553.159 177.052C553.157 177.064 553.157 177.077 553.156 177.089C553.155 177.102 553.153 177.117 553.152 177.131C553.152 177.135 553.152 177.141 553.151 177.145C553.151 177.151 553.151 177.157 553.149 177.162C553.147 177.192 553.145 177.222 553.143 177.254C553.141 177.267 553.14 177.279 553.138 177.293C553.138 177.296 553.138 177.297 553.138 177.3C552.83 180.98 551.683 194.673 550.675 207.101C550.674 207.113 550.672 207.125 550.672 207.139C550.663 207.248 550.653 207.358 550.645 207.467C550.641 207.513 550.637 207.559 550.634 207.607C550.631 207.627 550.63 207.649 550.629 207.671C550.622 207.754 550.615 207.834 550.608 207.917C550.607 207.932 550.606 207.946 550.606 207.961C550.592 208.126 550.578 208.292 550.565 208.455C550.563 208.478 550.562 208.498 550.559 208.522C550.465 209.681 550.374 210.822 550.285 211.942Z" fill="#3077E2"/>
<path d="M592.367 47.6074C593.147 46.6302 592.998 45.8341 592.998 45.3619C592.998 42.4999 590.989 39.0174 588.51 37.5857C588.404 37.5245 588.197 37.4251 587.943 37.3244C587.396 37.089 586.885 36.9842 586.418 37.0019C586.29 36.9965 586.168 37.0101 586.037 37.0196C585.708 37.0618 585.445 37.0862 585.191 37.1938C579.617 39.5467 568.121 48.447 562.974 52.708C561.328 54.0689 561.575 54.8487 561.575 55.2012C561.575 55.6734 561.68 56.1701 561.842 56.6655C562.273 57.9815 563.194 59.2649 564.281 59.8909C564.635 60.095 564.969 60.1984 565.278 60.2338C565.649 60.2787 566.105 60.2324 566.829 59.9657C572.268 57.9597 585.028 52.6264 590.904 48.8689C591.352 48.5818 591.68 48.3082 591.959 48.0429C592.109 47.919 592.246 47.7747 592.367 47.6074Z" fill="#3685FC"/>
<path d="M566.729 59.9603C567.181 59.3955 567.094 58.9342 567.094 58.662C567.094 57.0085 565.933 54.9971 564.501 54.1697C564.44 54.1357 564.321 54.0772 564.173 54.0186C563.857 53.8826 563.562 53.8227 563.293 53.8322L563.073 53.8431C562.882 53.8676 562.731 53.8825 562.584 53.9438C559.363 55.3033 552.724 60.4448 549.749 62.9053C548.799 63.6919 548.941 64.1423 548.941 64.3465C548.941 64.6186 549.002 64.9072 549.096 65.193C549.345 65.9524 549.876 66.694 550.504 67.056C550.709 67.1744 550.901 67.233 551.08 67.2547C551.295 67.2792 551.558 67.2534 551.975 67.0982C555.119 65.9401 562.49 62.859 565.884 60.6884C566.143 60.5224 566.333 60.3645 566.494 60.2107L566.729 59.9603Z" fill="#609FFD"/>
<path d="M552.069 66.1524C552.069 67.1499 551.368 67.5542 550.506 67.0561C549.642 66.5566 548.941 65.344 548.941 64.3465C548.941 63.349 549.642 62.9448 550.506 63.4442C551.368 63.9423 552.069 65.1549 552.069 66.1524Z" fill="#83B8FC"/>
<path d="M567.094 58.662C567.094 60.3169 565.934 60.9878 564.501 60.1604C563.07 59.333 561.909 57.3216 561.909 55.6667C561.909 54.0132 563.07 53.3423 564.501 54.1697C565.934 54.9971 567.094 57.0085 567.094 58.662Z" fill="#609FFD"/>
<path d="M587.292 50.9376C586.673 51.2656 586.03 51.5976 585.363 51.9324C586.046 51.5949 586.692 51.2588 587.319 50.9267L587.292 50.9376Z" fill="#90CAF4"/>
<path d="M587.337 50.9171C587.942 50.5946 588.515 50.2789 589.061 49.9699C589.256 49.4174 589.38 48.7954 589.38 48.0782C589.38 44.7631 587.129 40.7185 584.363 39.0595C583.803 38.7247 583.259 38.5356 582.733 38.4267C581.644 39.0378 580.446 39.7781 579.189 40.5974C579.836 40.1823 580.484 39.7645 581.097 39.3903C581.386 39.2868 581.681 39.2065 582.006 39.2065C582.59 39.2065 583.247 39.4147 583.936 39.8298C586.465 41.3459 588.525 45.0461 588.525 48.0782C588.525 49.2241 588.213 50.0951 587.669 50.6272L587.693 50.7252L587.348 50.9062L587.337 50.9171Z" fill="#90CAF4"/>
<path d="M551.807 97.3673C563.523 118.152 558.153 152.608 554.669 177.508C554.34 179.86 552.755 181.221 550.394 181.894L548.447 169.042L543.771 182.33C530.632 181.335 510.368 172.527 510.368 172.527C510.368 172.527 508.26 114.336 521.191 93.4602C529.815 79.5368 550.828 95.6295 551.807 97.3673Z" fill="#2030A5"/>
<path d="M542.159 76.0325L543.28 85.68L529.11 84.4008L529.751 67.0779L542.159 76.0325Z" fill="#F8BCB4"/>
<path d="M531.463 68.9395C534.496 75.8515 540.978 79.6865 545.94 77.5077C550.901 75.3275 552.465 67.9583 549.433 61.0476C546.4 54.1356 539.92 50.3006 534.957 52.4794C529.995 54.6582 528.431 62.0288 531.463 68.9395Z" fill="#F8BCB4"/>
<path d="M525.362 56.3349C536.969 40.8859 549.304 52.8809 550.082 55.2094C550.912 57.6917 548.673 62.0179 544.561 63.8728C545.133 66.1102 545.861 70.0404 543.955 70.1724C542.21 70.2949 541.114 67.0342 540.561 64.7588L540.443 64.767C540.291 64.767 540.147 64.7792 540.002 64.7914C539.148 63.9708 536.128 61.3824 535.105 64.7547C534.68 66.1632 535.071 67.5936 535.743 68.8551C534.379 72.4193 534.001 77.045 530.996 77.2083C526.091 77.4723 521.288 61.758 525.362 56.3349Z" fill="url(#paint3_linear)"/>
<path d="M551.396 100.33C551.396 100.33 553.965 90.0512 545.352 86.423C536.74 82.7948 528.58 79.3177 527.221 82.6438C525.861 85.9698 524.802 92.6205 524.802 92.6205L532.357 103.354L551.396 100.33Z" fill="#2030A5"/>
<path d="M573.392 70.7291C573.425 71.5592 571.607 72.3036 569.334 72.3921C567.06 72.4805 565.191 71.8804 565.158 71.0516C565.126 70.2214 566.943 69.477 569.217 69.3886C571.49 69.2988 573.361 69.8989 573.392 70.7291Z" fill="#3685FC"/>
<path d="M567.742 121.872C561.24 121.872 553.598 121.089 546.766 120.307C531.771 118.587 529.081 103.236 535.052 97.6463C537.349 95.4934 540.441 94.7449 543.767 94.7449C547.587 94.7449 551.715 95.7343 555.297 96.7251C558.88 97.7144 561.917 98.7037 563.558 98.7037C564.393 98.7037 564.865 98.4479 564.865 97.8069C564.865 80.7385 564.983 71.5225 565.176 71.1742C565.18 71.1673 565.183 71.1633 565.187 71.1633C565.19 71.1633 565.193 71.1646 565.195 71.1673C565.378 71.8818 566.933 72.4003 568.893 72.4003C569.019 72.4003 569.147 72.3989 569.278 72.3948C569.295 72.3935 569.314 72.3935 569.333 72.3921C569.344 72.3921 569.357 72.3908 569.369 72.3908C569.37 72.3908 569.373 72.3908 569.376 72.3908C569.388 72.3894 569.4 72.3894 569.412 72.3894C569.412 72.3894 569.412 72.3894 569.414 72.3894C569.625 72.3785 569.833 72.3636 570.034 72.3431C570.037 72.3431 570.039 72.3431 570.041 72.3417C570.046 72.3417 570.05 72.3418 570.056 72.3404C571.883 72.1499 573.261 71.532 573.367 70.8353C573.371 70.8475 573.373 70.8611 573.378 70.8747C574.218 73.7585 584.951 110.873 582.851 117.181C581.659 120.754 575.515 121.872 567.742 121.872Z" fill="#2030A5"/>
<path d="M566.032 60.5727L565.885 60.6883C565.432 60.9782 564.901 61.2844 564.327 61.5988C564.575 62.3854 564.822 63.3271 564.96 64.3084C565.3 66.7253 566.275 67.0234 566.275 67.0234L567.123 63.0768C566.951 61.9717 566.489 61.1538 566.032 60.5727Z" fill="#F8BCB4"/>
<path d="M565.859 65.9387C566.198 68.7408 567.379 71.4776 567.775 72.3404C568.256 72.3935 568.781 72.4139 569.334 72.3921C570.184 72.3595 570.963 72.2315 571.609 72.0437C571.642 71.9553 569.78 68.6796 569.955 65.1848C570.676 62.8495 571.449 61.0967 571.2 59.088C570.721 55.2299 568.248 51.8561 566.867 51.6221C564.62 51.241 567.048 57.4604 567.008 60.0066C567.003 60.2053 565.617 63.926 565.859 65.9387Z" fill="#F8BCB4"/>
<path d="M568.903 72.4003C568.507 72.4003 568.13 72.3799 567.775 72.3404C567.765 72.3186 567.755 72.2969 567.744 72.2724C567.755 72.2969 567.765 72.3186 567.775 72.3404C568.13 72.3799 568.507 72.4003 568.903 72.4003C569.044 72.4003 569.187 72.3976 569.334 72.3921C569.187 72.3976 569.044 72.4003 568.903 72.4003ZM569.494 72.3853C570.283 72.3432 571.004 72.2193 571.61 72.0437C571.61 72.0437 571.611 72.0437 571.611 72.0424C571.611 72.0437 571.61 72.0437 571.61 72.0437C571.004 72.2193 570.283 72.3432 569.494 72.3853Z" fill="#5886E0"/>
<path d="M571.611 72.0424V72.041V72.0424ZM571.609 72.0274C571.609 72.026 571.609 72.026 571.609 72.026C571.609 72.026 571.609 72.026 571.609 72.0274ZM571.609 72.026C571.573 71.909 571.247 71.2803 570.892 70.3412C570.894 70.3385 570.896 70.3372 570.897 70.3358C571.249 71.2667 571.574 71.9076 571.609 72.026Z" fill="#5886E0"/>
<path d="M568.903 72.4003C568.507 72.4003 568.13 72.3799 567.775 72.3404C567.765 72.3187 567.755 72.2969 567.744 72.2724C567.624 72.0084 567.447 71.5974 567.249 71.0965C567.673 71.2326 568.129 71.3211 568.593 71.3211C569.379 71.3211 570.185 71.0653 570.891 70.3413C571.246 71.2803 571.573 71.909 571.608 72.026C571.608 72.026 571.608 72.026 571.608 72.0274C571.61 72.0328 571.611 72.037 571.611 72.0397C571.611 72.041 571.611 72.041 571.611 72.041V72.0424C571.611 72.0438 571.61 72.0437 571.61 72.0437C571.004 72.2193 570.283 72.3432 569.494 72.3853C569.467 72.3867 569.44 72.388 569.414 72.3894C569.413 72.3894 569.413 72.3894 569.413 72.3894C569.401 72.3894 569.388 72.3894 569.376 72.3908C569.373 72.3908 569.371 72.3908 569.369 72.3908C569.357 72.3908 569.345 72.3921 569.334 72.3921C569.187 72.3976 569.044 72.4003 568.903 72.4003Z" fill="#F3B2A6"/>
<path d="M551.69 61.3892C551.69 61.3892 552.952 59.8936 556.01 61.7404C559.069 63.5885 560.155 61.3063 559.928 59.318C559.702 57.3297 559.324 55.1563 556.465 56.4043C553.605 57.6522 551.69 61.3892 551.69 61.3892Z" fill="#F8BCB4"/>
<path d="M557.629 65.6761C557.629 65.6761 555.823 67.3759 554.576 64.684C553.328 61.9935 552.541 60.8109 552.283 62.1188C552.026 63.4266 553.247 67.6154 556.053 69.0321C558.859 70.4502 556.719 68.0115 556.719 68.0115L557.629 65.6761Z" fill="#F8BCB4"/>
<path d="M425.445 285.316L465.521 168.24L497.629 207.945L524.079 240.652L509.16 261.505L502.641 265.181L463.833 287.06L425.445 285.316Z" fill="#6073FF"/>
<path d="M608.817 122.215L547.925 284.71L490.739 288.284L490.025 288.251L494.617 281.832L506.161 265.698L509.16 261.506L524.08 240.652L608.817 122.215Z" fill="#4E61ED"/>
<path d="M406.436 361.839L319.519 281.832L318 280.433L408.077 284.527L425.445 285.316L463.832 287.061L483.394 287.949L490.024 288.251L490.738 288.284L406.436 361.839Z" fill="#3F51D3"/>
<path d="M547.925 284.71L406.437 361.839L490.739 288.284L547.925 284.71Z" fill="#2030A5"/>
<path d="M737.211 285.868L731.478 282.557V266.809L712.17 255.657V247.968L737.211 262.432V285.868Z" fill="#07C2F1"/>
<path d="M730.739 240.425L726.932 237.604V214.167L749.337 230.763V239.965L745.495 239.834L741.299 239.709L738.101 239.651L736.03 239.661L734.724 239.717L733.933 239.808L733.403 239.926L732.883 240.06L732.122 240.204L731.165 240.352L730.739 240.425Z" fill="#08CDFF"/>
<path d="M731.478 290.246L707.82 303.911V280.474L731.478 266.809V282.556V290.246Z" fill="#08CDFF"/>
<path d="M707.82 303.911L681 288.419V264.983L707.82 280.474V303.911Z" fill="#07C2F1"/>
<path d="M802.444 254.645C792.831 259.477 782.883 259.433 771.582 258.941C746.746 257.724 747.032 257.598 737.211 262.432V285.868C746.657 281.219 746.76 281.154 768.937 282.248C781.582 282.866 792.21 283.223 802.444 278.081C811.342 273.177 813.55 268.38 813.917 263.687L813.871 239.628C813.504 244.338 811.319 249.754 802.444 254.645Z" fill="#08CDFF"/>
<path d="M777.793 231.537L777.323 231.112C767.361 223.081 756.928 226.325 749.337 230.763V239.965C766.532 240.555 775.473 242.941 778.718 237.191L779.149 236.903C779.908 235.11 779.16 232.936 777.793 231.537Z" fill="#07C2F1"/>
<path d="M731.478 266.809L707.82 280.474L681 264.983L704.658 251.318L712.17 255.657L731.478 266.809Z" fill="#54DCFF"/>
<path d="M749.311 230.814L726.905 214.219C752.022 203.672 774.053 203.938 799.325 219.986C806.794 224.947 812.635 230.008 813.814 238.434C814.33 244.999 810.825 249.117 805.427 252.89C794.424 260.027 782.299 259.524 768.911 258.862C746.724 257.767 746.626 257.836 737.185 262.483L712.144 248.019C725.032 240.399 732.39 237.957 745.592 239.088C768.86 241.081 772.258 241.154 776.81 238.212C783.343 233.087 774.375 228.537 769.83 227.498C760.934 225.465 754.919 228.647 749.311 230.814Z" fill="#54DCFF"/>
<defs>
<linearGradient id="paint0_linear" x1="550.313" y1="106.43" x2="562.486" y2="60.7693" gradientUnits="userSpaceOnUse">
<stop stop-color="#2030A5"/>
<stop offset="0.961996" stop-color="#2C65D6"/>
<stop offset="0.996397" stop-color="#2C65D6"/>
<stop offset="1" stop-color="#2C65D6"/>
</linearGradient>
<linearGradient id="paint1_linear" x1="516.731" y1="261.56" x2="536.816" y2="261.56" gradientUnits="userSpaceOnUse">
<stop stop-color="#2030A5"/>
<stop offset="0.244519" stop-color="#2C65D6"/>
<stop offset="0.996397" stop-color="#2C65D6"/>
<stop offset="1" stop-color="#2C65D6"/>
</linearGradient>
<linearGradient id="paint2_linear" x1="535.231" y1="272.522" x2="554.594" y2="272.522" gradientUnits="userSpaceOnUse">
<stop stop-color="#2030A5"/>
<stop offset="0.244519" stop-color="#2C65D6"/>
<stop offset="0.996397" stop-color="#2C65D6"/>
<stop offset="1" stop-color="#2C65D6"/>
</linearGradient>
<linearGradient id="paint3_linear" x1="523.83" y1="62.893" x2="550.253" y2="62.893" gradientUnits="userSpaceOnUse">
<stop stop-color="#2030A5"/>
<stop offset="0.244519" stop-color="#2C65D6"/>
<stop offset="0.996397" stop-color="#2C65D6"/>
<stop offset="1" stop-color="#2C65D6"/>
</linearGradient>
</defs>
</svg>
