<svg width="319" height="412" viewBox="0 0 319 412" fill="none" xmlns="http://www.w3.org/2000/svg">
<path d="M66.5 89C69.7 39.8 20.1667 9.16667 -5 0V411.5H319C316.167 391 293.3 342.8 224.5 314C138.5 278 174 232.5 162.5 176.5C151 120.5 62.5 150.5 66.5 89Z" fill="#0E269D"/>
<circle cx="24" cy="103" r="3" fill="#FFE47E"/>
<circle cx="30" cy="358" r="3" fill="#08CDFF"/>
<circle cx="178" cy="323" r="3" fill="#FFE47E"/>
<circle cx="284" cy="383" r="3" fill="white"/>
<circle cx="72.5" cy="193.5" r="1.5" fill="white"/>
<circle cx="147.5" cy="221.5" r="1.5" fill="#FFE47E"/>
<circle cx="15.5" cy="212.5" r="1.5" fill="#08CDFF"/>
<circle cx="15.5" cy="54.5" r="1.5" fill="white"/>
<circle cy="142" r="3" fill="#FFE47E"/>
<circle cx="73" cy="136" r="1" fill="#08CDFF"/>
<path d="M122.83 305.374C122.83 305.374 37.4215 247.76 31.5744 245.075C29.9874 244.345 28.3195 244 26.6774 244C22.2727 244 18.0566 246.485 16.0838 250.71C14.9425 253.153 14.7331 255.789 15.3124 258.221C15.7275 258.378 16.0214 258.776 16.0214 259.242C16.0214 259.47 15.9516 259.68 15.8316 259.856C16.8957 262.509 18.9468 264.777 21.7657 266.073C27.613 268.759 122.83 305.374 122.83 305.374" fill="#203FD6"/>
<circle cx="26.5" cy="255.5" r="8.5" fill="#08CDFF"/>
<path d="M198 395.166C198 395.166 156.021 366.848 153.147 365.528C152.367 365.17 151.547 365 150.74 365C148.575 365 146.502 366.222 145.533 368.298C144.972 369.499 144.869 370.795 145.154 371.99C145.358 372.067 145.502 372.262 145.502 372.492C145.502 372.604 145.468 372.707 145.409 372.793C145.932 374.097 146.94 375.212 148.325 375.849C151.199 377.169 198 395.166 198 395.166" fill="#203FD6"/>
<circle cx="151.345" cy="370.599" r="4.10563" fill="#08CDFF"/>
</svg>
