<svg width="188" height="204" viewBox="0 0 188 204" fill="none" xmlns="http://www.w3.org/2000/svg">
<g filter="url(#filter0_ddd)">
<g clip-path="url(#clip0)">
<rect x="20" y="10" width="148" height="164" rx="15" fill="white"/>
<circle cx="109" cy="43" r="99" fill="#0E269D"/>
<ellipse cx="83" cy="60.9754" rx="14" ry="13.7241" fill="#08CDFF"/>
<circle cx="120.5" cy="96.5" r="7.5" fill="#FFDD60"/>
<path d="M85.9062 86.6305V83.8438C85.9062 83.3713 86.0939 82.9183 86.428 82.5842C86.762 82.2502 87.2151 82.0625 87.6875 82.0625H91.25C91.7224 82.0625 92.1755 82.2502 92.5095 82.5842C92.8436 82.9183 93.0312 83.3713 93.0312 83.8438V88.1499C93.6351 88.328 94.238 88.5177 94.8339 88.7262C94.8232 88.5845 94.8125 88.442 94.8125 88.2969C94.8148 87.0353 95.263 85.8151 96.0779 84.8519C96.8928 83.8887 98.0218 83.2446 99.2656 83.0333V60.5094C93.3984 57.7017 86.9778 56.2411 80.4734 56.2344H78.7812V86.2752H80.4734C82.29 86.2792 84.1046 86.3979 85.9062 86.6305V86.6305ZM86.6624 75.4015C84.9304 75.1364 83.1834 74.9814 81.4317 74.9375L81.4745 73.1562C83.3019 73.202 85.1245 73.3639 86.9314 73.6408L86.6624 75.4015ZM81.4745 62.4821C86.787 62.6092 92.0297 63.722 96.9358 65.7641L96.2517 67.4099C91.5495 65.4509 86.5242 64.3827 81.4317 64.2598L81.4745 62.4821ZM81.4745 67.8125C85.1697 67.906 88.8374 68.4747 92.3873 69.5047L91.8921 71.2156C88.4891 70.2282 84.9731 69.6831 81.4309 69.5938L81.4745 67.8125Z" fill="white"/>
<path d="M100.156 91.8594C102.124 91.8594 103.719 90.2644 103.719 88.2969C103.719 86.3294 102.124 84.7344 100.156 84.7344C98.1887 84.7344 96.5938 86.3294 96.5938 88.2969C96.5938 90.2644 98.1887 91.8594 100.156 91.8594Z" fill="white"/>
<path d="M112.625 83.8438H109.062V89.1875L105.5 91.8594H100.156H94.8125L91.25 89.1875V83.8438H87.6875V90.9688L94.8125 96.3125L94.8196 105.219H105.507L105.5 96.3125L112.625 90.9688V83.8438Z" fill="white"/>
<path d="M119.839 86.2752H121.531V77.6094C120.288 77.5997 119.099 77.0973 118.226 76.2124C117.353 75.3275 116.866 74.1323 116.873 72.8891V72.0261C116.778 70.5108 116.259 69.0527 115.376 67.8179C114.02 66.1616 113.362 64.042 113.543 61.9088C113.724 59.7757 114.729 57.797 116.345 56.3929C111.038 56.8228 105.853 58.2178 101.047 60.5094V83.0333C102.291 83.2446 103.42 83.8888 104.235 84.8519C105.049 85.8151 105.498 87.0353 105.5 88.2969C105.5 88.4421 105.489 88.5846 105.479 88.7262C106.074 88.5178 106.677 88.3325 107.281 88.1499V83.8438C107.281 83.3713 107.469 82.9183 107.803 82.5842C108.137 82.2502 108.59 82.0625 109.062 82.0625H112.625C113.097 82.0625 113.55 82.2502 113.885 82.5842C114.219 82.9183 114.406 83.3713 114.406 83.8438V86.6305C116.208 86.3979 118.022 86.2792 119.839 86.2752V86.2752Z" fill="white"/>
<path d="M124.409 72.8891V71.8827C124.409 71.7206 124.424 71.5478 124.441 71.375H118.615C118.64 71.5915 118.653 71.8091 118.654 72.027V72.8891C118.644 73.273 118.712 73.6549 118.852 74.0124C118.992 74.3699 119.203 74.6957 119.471 74.9706C119.739 75.2455 120.059 75.464 120.413 75.6132C120.767 75.7623 121.147 75.8392 121.531 75.8392C121.915 75.8392 122.296 75.7623 122.649 75.6132C123.003 75.464 123.324 75.2455 123.592 74.9706C123.86 74.6957 124.07 74.3699 124.211 74.0124C124.351 73.6549 124.418 73.273 124.409 72.8891V72.8891ZM120.819 56.2745C119.4 56.4577 118.085 57.1161 117.088 58.1425C116.091 59.1689 115.472 60.5027 115.33 61.9264C115.24 62.7747 115.32 63.6324 115.565 64.4496C115.809 65.2668 116.214 66.0273 116.755 66.6868C117.413 67.5603 117.908 68.545 118.217 69.5938H120.641V66.4L118.23 63.9891L119.489 62.7297L121.531 64.7719L123.574 62.7297L124.833 63.9891L122.422 66.4V69.5938H124.834C125.166 68.5307 125.678 67.5324 126.348 66.6422C127.269 65.4978 127.77 64.0717 127.766 62.6024C127.776 61.7147 127.599 60.8349 127.245 60.0207C126.891 59.2066 126.369 58.4766 125.713 57.8788C125.057 57.2811 124.281 56.829 123.438 56.5525C122.594 56.276 121.702 56.1812 120.819 56.2745V56.2745Z" fill="white"/>
<path d="M122.422 51.7812H120.641V54.4531H122.422V51.7812Z" fill="white"/>
<path d="M130.793 56.2343L128.274 57.4937L129.071 59.0869L131.59 57.8275L130.793 56.2343Z" fill="white"/>
<path d="M129.7 64.4207L128.903 66.0139L131.422 67.2733L132.219 65.6801L129.7 64.4207Z" fill="white"/>
</g>
<rect x="20.5" y="10.5" width="147" height="163" rx="14.5" stroke="#F2F2F2"/>
</g>
<defs>
<filter id="filter0_ddd" x="0" y="0" width="188" height="204" filterUnits="userSpaceOnUse" color-interpolation-filters="sRGB">
<feFlood flood-opacity="0" result="BackgroundImageFix"/>
<feColorMatrix in="SourceAlpha" type="matrix" values="0 0 0 0 0 0 0 0 0 0 0 0 0 0 0 0 0 0 127 0"/>
<feOffset/>
<feGaussianBlur stdDeviation="0.5"/>
<feColorMatrix type="matrix" values="0 0 0 0 0 0 0 0 0 0 0 0 0 0 0 0 0 0 0.04 0"/>
<feBlend mode="normal" in2="BackgroundImageFix" result="effect1_dropShadow"/>
<feColorMatrix in="SourceAlpha" type="matrix" values="0 0 0 0 0 0 0 0 0 0 0 0 0 0 0 0 0 0 127 0"/>
<feOffset dy="2"/>
<feGaussianBlur stdDeviation="3"/>
<feColorMatrix type="matrix" values="0 0 0 0 0 0 0 0 0 0 0 0 0 0 0 0 0 0 0.04 0"/>
<feBlend mode="normal" in2="effect1_dropShadow" result="effect2_dropShadow"/>
<feColorMatrix in="SourceAlpha" type="matrix" values="0 0 0 0 0 0 0 0 0 0 0 0 0 0 0 0 0 0 127 0"/>
<feOffset dy="10"/>
<feGaussianBlur stdDeviation="10"/>
<feColorMatrix type="matrix" values="0 0 0 0 0 0 0 0 0 0 0 0 0 0 0 0 0 0 0.04 0"/>
<feBlend mode="normal" in2="effect2_dropShadow" result="effect3_dropShadow"/>
<feBlend mode="normal" in="SourceGraphic" in2="effect3_dropShadow" result="shape"/>
</filter>
<clipPath id="clip0">
<rect x="20" y="10" width="148" height="164" rx="15" fill="white"/>
</clipPath>
</defs>
</svg>
