<svg width="333" height="577" viewBox="0 0 333 577" fill="none" xmlns="http://www.w3.org/2000/svg">
<g filter="url(#filter0_ddd)">
<rect x="20" y="10" width="293" height="537" fill="#031B74"/>
<rect x="20.5" y="10.5" width="292" height="536" stroke="#E2E2E2"/>
</g>
<path d="M252 374H79V267H252V374" fill="#0A5DC1"/>
<path d="M246 368H85V260H154.006L162.52 265.055L171.789 260H246V368Z" fill="#A2CCDA"/>
<path d="M162 264.581L154.256 260H85V368H162V264.581Z" fill="#B7DFEA"/>
<path d="M149 279H96V278H149V279Z" fill="white"/>
<path d="M149 285H96V284H149V285Z" fill="white"/>
<path d="M149 299H96V297H149V299Z" fill="white"/>
<path d="M231 299H177V298H231V299Z" fill="white"/>
<path d="M231 279H177V278H231V279Z" fill="white"/>
<path d="M231 319H177V318H231V319Z" fill="white"/>
<path d="M178 302C178 310.284 171.284 317 163 317C154.716 317 148 310.284 148 302C148 293.716 154.716 287 163 287C171.284 287 178 293.716 178 302Z" fill="#FF645F"/>
<path d="M159 296L170 302L159 308V296Z" fill="white"/>
<path d="M302 475H298.323C297.592 475 297 474.335 297 473.514V471.325L301.904 471L302 475Z" fill="#F7958D"/>
<path d="M250.926 479.559L247.879 481C247.132 481 246 475.101 246 474.337V472.3L251 472L250.926 479.559Z" fill="#F7958D"/>
<path d="M291.956 470H267L267.665 523H272.432C272.432 523 276.041 496.336 277.401 481.6H280.705L281.697 523H286.463C286.463 523 292.09 481.432 291.937 473.417C292.067 472.818 291.956 470 291.956 470Z" fill="#0E97CD"/>
<path d="M291.886 470H267.114L264.02 436.133C263.745 433.371 266.338 431 269.637 431H289.363C292.664 431 295.257 433.371 294.98 436.133L291.886 470" fill="white"/>
<path d="M278.18 437.329C278.531 438.185 279.789 438.233 280.211 437.411C281.391 435.114 284 431.685 284 430.956V426.024C284 424.909 282.238 425.002 281.188 425.002H277.812C276.764 425.002 275 425.907 275 427.024V430.956C275 431.677 277.237 435.033 278.18 437.329Z" fill="#F7958D"/>
<path d="M272.449 424.647C273.768 428.983 277.498 428.318 281.963 427.036C286.423 425.754 288.97 421.203 287.653 416.867C286.333 412.532 281.648 410.057 277.185 411.337C272.722 412.619 271.129 420.312 272.449 424.647Z" fill="#FCA89E"/>
<path d="M281.632 415.788C281.632 415.788 281.632 418.673 282.032 418.673C282.428 418.673 283.922 418.077 285.017 419.47C286.11 420.863 284.916 422.257 283.623 422.554C282.329 422.854 283.225 426.238 286.308 425.641C289.392 425.043 290.487 417.778 288.895 414.992C287.305 412.206 282.23 409.119 280.44 409.32C278.65 409.518 266.842 415.878 266.842 415.878L281.632 415.788" fill="#2A2873"/>
<path d="M263.915 435L256.328 455.039L245 471.712L250.956 473C250.956 473 257.698 467.416 262.155 462.005C265.807 457.572 267.289 453.204 267.694 452.544C268.589 451.074 269 435.514 269 435.514L263.915 435" fill="white"/>
<path d="M292.724 432L307.456 444.626C308.835 445.809 309.352 447.714 308.755 449.431L301.382 470.702L296.308 471L300.189 450.754C300.189 450.754 289.768 443.561 289.441 443.014C288.546 441.526 289.291 434.977 289.291 434.977L292.724 432" fill="white"/>
<path d="M267.903 523H273V527H262.662C261.98 527 261.744 525.432 262.343 525.093L267.903 523Z" fill="#4863C7"/>
<path d="M281.903 523H287V527H276.661C275.979 527 275.745 525.432 276.342 525.093L281.903 523Z" fill="#4863C7"/>
<path d="M265.96 459.022H265.532V440.808H265.96V459.022Z" fill="#0E97CD"/>
<path d="M149 478H175L174.307 533H169.341C169.341 533 165.583 505.331 164.166 490.038H160.722L157.229 510.141L142.792 525.496L139 522.195L149.95 505.582C149.95 505.582 148.952 485.097 149.02 481.546C148.886 480.925 149 478 149 478" fill="#A2CCDA"/>
<path d="M149.215 478H174.787L177.979 444.134C178.266 441.37 175.59 439 172.182 439H151.82C148.414 439 145.736 441.37 146.021 444.134L149.215 478" fill="#08CDFF"/>
<path d="M161.688 442C156.973 442 157 438.881 157 438.131V433.056C157 431.907 158.764 432.002 159.81 432.002H163.188C164.234 432.002 166 432.934 166 434.083V438.131C166 438.873 165.501 442 161.688 442" fill="#F7958D"/>
<path d="M168.552 432.448C167.234 437.04 163.501 436.337 159.04 434.981C154.578 433.624 152.03 428.803 153.347 424.213C154.667 419.622 159.352 417.001 163.814 418.358C168.279 419.714 169.869 427.858 168.552 432.448Z" fill="#FCA89E"/>
<path d="M148.165 440C148.165 440 136.209 452.692 131.991 456.691C129.664 458.898 131.991 460.552 133.321 462.205C137.007 466.793 148.945 475 148.945 475L148.28 468.051L141.076 459.668C141.076 459.668 151.21 451.882 151.545 451.321C152.468 449.792 151.7 443.06 151.7 443.06L148.165 440" fill="#08CDFF"/>
<path d="M175.835 440C175.835 440 187.792 452.588 192.01 456.555C194.335 458.743 192.01 460.384 190.68 462.024C186.992 466.574 173.197 475 173.197 475L173.435 467.706L182.921 459.508C182.921 459.508 172.792 451.785 172.455 451.228C171.532 449.712 172.3 443.035 172.3 443.035L175.835 440" fill="#08CDFF"/>
<path d="M142.921 525.408L138.787 522L136 524.971L144.382 531.885C144.935 532.342 146.217 531.334 145.969 530.683L142.921 525.408" fill="#2A2873"/>
<path d="M166.297 415.53C164.27 413.875 162.36 416.552 160.109 417.347C157.86 418.139 153.979 416.042 151.843 418.31C149.706 420.578 152.293 424.662 152.404 426.25C152.518 427.837 151.376 431.545 152.742 433.736C153.979 435.721 157.074 436.854 160.504 435.211C162.749 434.134 159.94 430.56 159.492 428.632C159.041 426.703 159.38 424.322 162.08 426.307C163.301 427.205 165.463 428.231 165.286 425.174C165.058 421.315 170.74 419.161 166.297 415.53Z" fill="#4396CA"/>
<path d="M117.643 439.719C115.977 440.645 114.713 444.908 113.71 453.249C112.708 461.59 112.925 463.023 113.397 463.967C113.867 464.912 121.712 476 121.712 476L126 475.508L120.589 459.557C120.589 459.557 124.943 449.158 123.119 439.6C122.848 438.184 117.643 439.719 117.643 439.719" fill="#08CDFF"/>
<path d="M109 417.105C109 417.105 101.528 415.699 97.9578 423.166C96.8978 425.385 96.5562 428.558 96.7041 431.298C96.7686 432.491 95.2525 444 96.4833 444L105.183 435.775L109 417.105" fill="#4A4A99"/>
<path d="M97.04 472H120L119.389 522H115.003C115.003 522 111.682 491.746 110.432 477.842H107.391L106.479 522H102.093C102.093 522 96.9181 482.784 97.0573 475.224C96.9394 474.658 97.04 472 97.04 472Z" fill="#2A2873"/>
<path d="M96.9108 472H120.087L116.897 459.983L122.981 440.739C123.24 438.187 120.813 436 117.726 436H99.2717C96.1849 436 93.7595 438.187 94.019 440.739L100.595 459.983L96.9108 472Z" fill="#0E97CD"/>
<path d="M108.167 439C103.978 439 104 436.194 104 435.518V430.95C104 429.915 105.568 430.002 106.5 430.002H109.5C110.432 430.002 112 430.84 112 431.876V435.518C112 436.186 111.558 439 108.167 439" fill="#F7958D"/>
<path d="M114.608 429.843C113.453 433.925 110.188 433.299 106.284 432.093C102.379 430.888 100.149 426.603 101.305 422.523C102.457 418.443 106.559 416.113 110.463 417.317C114.368 418.523 115.76 425.764 114.608 429.843" fill="#FCA89E"/>
<path d="M106.505 421.358C106.505 421.358 106.505 424.064 106.131 424.064C105.761 424.064 104.362 423.505 103.334 424.809C102.31 426.115 102.6 427.499 103.81 427.779C105.024 428.058 104.226 438.951 101.334 438.393C98.4444 437.832 98.2068 423.224 99.7001 420.613C101.191 418.001 105.945 415.111 107.622 415.297C109.302 415.483 120.365 421.443 120.365 421.443L106.505 421.358" fill="#4A4A99"/>
<path d="M119.635 522H115V526H124.399C125.018 526 125.233 524.431 124.688 524.092L119.635 522Z" fill="#08CDFF"/>
<path d="M106.169 522H102V526H110.46C111.017 526 111.209 524.431 110.72 524.092L106.169 522Z" fill="#08CDFF"/>
<path d="M100 475.659L103.67 474C103.67 474 104.769 477.467 102.954 478.687C100.681 480.214 100 475.659 100 475.659Z" fill="#F7958D"/>
<path d="M94.8342 437C93.0933 437.946 91.7851 442.847 90.7414 451.362C89.6956 459.877 89.9212 461.339 90.4133 462.303C90.9054 463.269 99.6796 476 99.6796 476L104 474.226L96.2737 459.668C96.2737 459.668 98.5005 448.08 98.1581 444.199C97.7603 439.726 94.8342 437 94.8342 437" fill="#08CDFF"/>
<path d="M125.734 475L122 475.485C122 475.485 122.225 479.556 124.304 479.966C126.914 480.48 125.734 475 125.734 475" fill="#F7958D"/>
<path d="M107.19 419C106.022 419 103.785 415.068 105.828 412.884C107.752 410.827 110.868 412.711 110.983 414.958C111.177 418.782 109.719 419 107.19 419" fill="#4A4A99"/>
<path d="M231.962 477H210L210.586 523H214.781C214.781 523 217.956 499.857 219.151 487.068H222.059L222.933 523H227.128C227.128 523 232.078 486.923 231.946 479.967C232.058 479.446 231.962 477 231.962 477Z" fill="#F7958D"/>
<path d="M210.368 523H215V527H205.602C204.981 527 204.768 525.431 205.312 525.094L210.368 523" fill="#08CDFF"/>
<path d="M222.367 523H227V527H217.603C216.98 527 216.768 525.431 217.311 525.094L222.367 523Z" fill="#08CDFF"/>
<path d="M210.777 462H230.937C230.937 462 235.39 464.094 235.917 470.881C236.881 483.244 229.15 505 229.15 505H210.126C210.126 505 203.805 479.038 205.201 470.881C206.322 464.331 210.777 462 210.777 462" fill="#0A5DC1"/>
<path d="M231.142 462H210.402L209.016 437.684C208.801 435.701 210.795 434 213.331 434H229.669C232.205 434 234.199 435.701 233.984 437.684L231.142 462" fill="#4863C7"/>
<path d="M194.765 431.402L196.433 430.25C197.062 429.816 197.936 429.962 198.38 430.577L201 434.204L197.099 437L194.349 433.892C193.752 433.095 193.94 431.974 194.765 431.402Z" fill="#F7958D"/>
<path d="M211.76 434C209.816 434.779 208.52 437.116 207.764 439.79C207.011 442.462 204.095 448.138 204.095 448.138L200.725 434.361L197 437.176C197 437.176 198.729 451.718 200.965 456.711C202.259 459.605 207.873 458.046 212.407 447.693C214.049 443.937 211.76 434 211.76 434Z" fill="#4863C7"/>
<path d="M232.291 435C232.291 435 235.238 437.308 237.527 441.264C239.817 445.221 244.927 457.148 245.472 458.246C246.019 459.346 248 474.122 248 474.122L243.854 475L238.017 457.803L230 445L232.291 435" fill="#4863C7"/>
<path d="M248.203 474L244.2 474.857C244.2 474.857 243.832 478.719 244.095 479.041C244.358 479.362 245.831 480.758 246.412 480.972C246.993 481.186 249.519 480.115 249.942 479.686C250.363 479.255 248.361 474.054 248.203 474" fill="#F7958D"/>
<path d="M226 419.229C226 418.493 230.568 412 230.983 412C231.397 412 235.133 418.787 234.996 419.523C234.857 420.262 226.139 421 226.139 421L226 419.229" fill="#4A4A99"/>
<path d="M219.588 435H222.412C223.287 435 224 434.206 224 433.225V429.775C224 428.794 223.287 428 222.412 428H219.588C218.709 428 218 428.794 218 429.775V433.225C218 434.206 218.709 435 219.588 435Z" fill="#F7958D"/>
<path d="M213.068 425.376C212.49 429.486 215.671 430.325 219.657 430.921C223.644 431.517 227.344 428.67 227.924 424.56C228.5 420.452 225.74 416.639 221.752 416.043C217.767 415.445 213.646 421.268 213.068 425.376" fill="#FF8860"/>
<path d="M213.068 425.376C212.49 429.486 215.671 430.325 219.657 430.921C223.644 431.517 227.344 428.67 227.924 424.56C228.5 420.452 225.74 416.639 221.752 416.043C217.767 415.445 213.646 421.268 213.068 425.376" fill="#FCA89E"/>
<path d="M214.292 419.598L223.864 424.821C223.864 424.821 225.684 422.808 226.478 424.805C227.165 426.53 224.432 427.535 224.331 428.052C223.509 432.32 226.839 434.798 229.271 429.932C231.705 425.068 230.814 416.939 230.178 416.646C229.54 416.353 223.537 412.624 223.06 412.404C222.582 412.182 216.688 416.608 216.051 416.315C215.413 416.022 214.292 419.598 214.292 419.598" fill="#4A4A99"/>
<path d="M88.3889 433.63C89.0265 432.558 89.3091 429.654 88.5175 429.13C87.7369 428.616 85.6049 426.999 84.9039 428.905L84 432.756L87.5702 435L88.3889 433.63" fill="#F7958D"/>
<path d="M38.0445 467H64L63.3075 522H58.3517C58.3517 522 54.5981 494.331 53.1851 479.037H49.7487L48.7149 522H43.7571C43.7571 522 37.906 478.864 38.0646 470.546C37.9321 469.925 38.0445 467 38.0445 467" fill="#08CDFF"/>
<path d="M38.2129 467H63.7853L66.9792 433.134C67.264 430.37 64.5863 428 61.1809 428H40.8174C37.412 428 34.7343 430.37 35.0211 433.134L38.2129 467" fill="white"/>
<path d="M51.1674 431C46.9743 431 47 428.193 47 427.519V422.95C47 421.915 48.5667 422.002 49.5001 422.002H52.5017C53.4315 422.002 55 422.842 55 423.876V427.519C55 428.186 54.5589 431 51.1674 431Z" fill="#F7958D"/>
<path d="M57.5804 421.648C56.3416 425.982 52.845 425.318 48.6632 424.037C44.4796 422.757 42.0903 418.205 43.3253 413.867C44.5622 409.532 48.956 407.056 53.1377 408.338C57.3213 409.618 58.8154 417.312 57.5804 421.648Z" fill="#FCA89E"/>
<path d="M48.8061 412.123C48.8061 412.123 48.8061 415.067 48.4001 415.067C47.9941 415.067 46.4711 414.459 45.356 415.879C44.237 417.302 45.4551 418.722 46.7741 419.027C48.0951 419.331 47.1821 422.782 44.037 422.174C40.8899 421.563 39.7729 414.153 41.397 411.31C43.021 408.467 48.1962 405.319 50.0222 405.523C51.8502 405.727 63.8958 412.214 63.8958 412.214L48.8061 412.123Z" fill="#4396CA"/>
<path d="M67.3806 431.817L73.8629 444.446L83.8832 432.681C83.8832 432.239 88.5298 434.002 87.9499 435.033C87.0065 436.703 80.5418 450.033 75.459 455.475C72.6227 458.512 64.2947 447.416 63.8407 446.651C63.1174 445.431 62.1366 437.866 62.001 433.644C61.9695 432.671 62.6889 431.839 63.6481 431.739L65.1478 429.003C65.9792 428.917 67.0897 431.021 67.3806 431.817" fill="white"/>
<path d="M63.0976 522H58V526H68.3373C69.0214 526 69.2548 524.43 68.658 524.093L63.0976 522" fill="#4863C7"/>
<path d="M48.0978 522H43V526H53.3377C54.0218 526 54.2553 524.43 53.6564 524.093L48.0978 522" fill="#4863C7"/>
<path d="M65.2309 456.228H64.7913V437.648H65.2309V456.228Z" fill="#0E97CD"/>
<circle cx="65.5" cy="82.5" r="13.5" fill="#08CDFF" fill-opacity="0.49"/>
<circle cx="65.5" cy="154.5" r="13.5" fill="#08CDFF" fill-opacity="0.49"/>
<path d="M78.6171 85.8562C76.7585 85.6872 75.7447 88.2223 74.3929 88.8983C72.1964 90.0813 68.1411 85.8562 68.1411 85.8562C68.1411 85.8562 63.917 81.8 64.9308 79.603C65.7756 78.2509 68.3101 77.2369 68.1411 75.3778C67.9722 73.6878 64.2549 67.6035 62.3963 69.2936C58.341 73.0117 58.0031 74.5328 58.0031 77.5749C57.8341 82.8141 64.5928 89.4053 64.5928 89.4053C65.2687 90.0813 71.1825 96.1656 76.4205 95.9965C79.4619 95.9965 80.9826 95.6585 84.6999 91.6024C86.3896 89.7433 80.4757 86.0252 78.6171 85.8562V85.8562Z" fill="white"/>
<path d="M80.5 150.5H62.5C61.2569 150.5 60.2612 151.507 60.2612 152.75L60.25 166.25C60.25 167.493 61.2569 168.5 62.5 168.5H80.5C81.7431 168.5 82.75 167.493 82.75 166.25V152.75C82.75 151.507 81.7431 150.5 80.5 150.5ZM80.5 155L71.5 160.625L62.5 155V152.75L71.5 158.375L80.5 152.75V155Z" fill="white"/>
<path d="M154.667 219L155.678 217.892C155.105 217.369 154.228 217.369 153.655 217.892L154.667 219ZM162.333 226L161.322 227.108C161.895 227.631 162.772 227.631 163.345 227.108L162.333 226ZM170 219L171.011 217.892C170.439 217.369 169.561 217.369 168.989 217.892L170 219ZM177.667 226L176.655 227.108C177.228 227.631 178.105 227.631 178.678 227.108L177.667 226ZM185.333 219L186.345 217.892C185.772 217.369 184.895 217.369 184.322 217.892L185.333 219ZM191.989 227.108C192.6 227.666 193.549 227.623 194.108 227.011C194.666 226.4 194.623 225.451 194.011 224.892L191.989 227.108ZM148.011 227.108L155.678 220.108L153.655 217.892L145.989 224.892L148.011 227.108ZM153.655 220.108L161.322 227.108L163.345 224.892L155.678 217.892L153.655 220.108ZM163.345 227.108L171.011 220.108L168.989 217.892L161.322 224.892L163.345 227.108ZM168.989 220.108L176.655 227.108L178.678 224.892L171.011 217.892L168.989 220.108ZM178.678 227.108L186.345 220.108L184.322 217.892L176.655 224.892L178.678 227.108ZM184.322 220.108L191.989 227.108L194.011 224.892L186.345 217.892L184.322 220.108Z" fill="white"/>
<defs>
<filter id="filter0_ddd" x="0" y="0" width="333" height="577" filterUnits="userSpaceOnUse" color-interpolation-filters="sRGB">
<feFlood flood-opacity="0" result="BackgroundImageFix"/>
<feColorMatrix in="SourceAlpha" type="matrix" values="0 0 0 0 0 0 0 0 0 0 0 0 0 0 0 0 0 0 127 0"/>
<feOffset/>
<feGaussianBlur stdDeviation="0.5"/>
<feColorMatrix type="matrix" values="0 0 0 0 0 0 0 0 0 0 0 0 0 0 0 0 0 0 0.04 0"/>
<feBlend mode="normal" in2="BackgroundImageFix" result="effect1_dropShadow"/>
<feColorMatrix in="SourceAlpha" type="matrix" values="0 0 0 0 0 0 0 0 0 0 0 0 0 0 0 0 0 0 127 0"/>
<feOffset dy="2"/>
<feGaussianBlur stdDeviation="3"/>
<feColorMatrix type="matrix" values="0 0 0 0 0 0 0 0 0 0 0 0 0 0 0 0 0 0 0.04 0"/>
<feBlend mode="normal" in2="effect1_dropShadow" result="effect2_dropShadow"/>
<feColorMatrix in="SourceAlpha" type="matrix" values="0 0 0 0 0 0 0 0 0 0 0 0 0 0 0 0 0 0 127 0"/>
<feOffset dy="10"/>
<feGaussianBlur stdDeviation="10"/>
<feColorMatrix type="matrix" values="0 0 0 0 0 0 0 0 0 0 0 0 0 0 0 0 0 0 0.04 0"/>
<feBlend mode="normal" in2="effect2_dropShadow" result="effect3_dropShadow"/>
<feBlend mode="normal" in="SourceGraphic" in2="effect3_dropShadow" result="shape"/>
</filter>
</defs>
</svg>
